<?xml version="1.0" encoding="UTF-8" standalone="no"?>
<svg
   xmlns:osb="http://www.openswatchbook.org/uri/2009/osb"
   xmlns:dc="http://purl.org/dc/elements/1.1/"
   xmlns:cc="http://creativecommons.org/ns#"
   xmlns:rdf="http://www.w3.org/1999/02/22-rdf-syntax-ns#"
   xmlns:svg="http://www.w3.org/2000/svg"
   xmlns="http://www.w3.org/2000/svg"
   xmlns:sodipodi="http://sodipodi.sourceforge.net/DTD/sodipodi-0.dtd"
   xmlns:inkscape="http://www.inkscape.org/namespaces/inkscape"
   width="2438.9932"
   height="300.00003"
   id="svg2"
   version="1.0"
   inkscape:version="1.0.1 (3bc2e813f5, 2020-09-07)"
   sodipodi:docname="Kiwi-TCMS-logo-header.svg"
   inkscape:output_extension="org.inkscape.output.svg.inkscape"
   sodipodi:version="0.32"
   inkscape:export-filename="/home/senko/Kiwi/tcms/static/images/kiwi_h80.png"
   inkscape:export-xdpi="31.999996"
   inkscape:export-ydpi="31.999996">
  <defs
     id="defs4">
    <linearGradient
       id="linearGradient4255"
       osb:paint="solid">
      <stop
         style="stop-color:#000000;stop-opacity:1;"
         offset="0"
         id="stop4257" />
    </linearGradient>
    <filter
       style="color-interpolation-filters:sRGB;"
       inkscape:label="Invert"
       id="filter124">
      <feColorMatrix
         type="hueRotate"
         values="180"
         result="color1"
         id="feColorMatrix120" />
      <feColorMatrix
         values="-1 0 0 0 1 0 -1 0 0 1 0 0 -1 0 1 -0.21 -0.72 -0.07 2 0 "
         result="color2"
         id="feColorMatrix122" />
    </filter>
  </defs>
  <sodipodi:namedview
     id="base"
     pagecolor="#fafafa"
     bordercolor="#666666"
     borderopacity="1.0"
     inkscape:pageopacity="1"
     inkscape:pageshadow="2"
     inkscape:zoom="0.3"
     inkscape:cx="1378.5996"
     inkscape:cy="384.45102"
     inkscape:document-units="px"
     inkscape:current-layer="g3209"
     showgrid="false"
     inkscape:window-width="1256"
     inkscape:window-height="772"
     inkscape:window-x="0"
     inkscape:window-y="0"
     inkscape:window-maximized="1"
     showguides="true"
     inkscape:guide-bbox="true"
     fit-margin-top="0"
     fit-margin-left="0"
     fit-margin-right="0"
     fit-margin-bottom="0"
     borderlayer="false"
     inkscape:document-rotation="0">
    <sodipodi:guide
       position="-236.51075,1077.5855"
       orientation="0,1"
       id="guide3385" />
    <sodipodi:guide
       position="500.11957,1077.5855"
       orientation="0,1"
       id="guide8309" />
    <sodipodi:guide
       position="491.02867,1042.7819"
       orientation="0,1"
       id="guide8311" />
    <sodipodi:guide
       position="521.33167,1359.4486"
       orientation="0,1"
       id="guide8313" />
    <sodipodi:guide
       position="963.44252,893.5134"
       orientation="0,1"
       id="guide8510" />
  </sodipodi:namedview>
  <metadata
     id="metadata7">
    <rdf:RDF>
      <cc:Work
         rdf:about="">
        <dc:format>
          image/svg+xml
        </dc:format>
        <dc:type
           rdf:resource="http://purl.org/dc/dcmitype/StillImage" />
        <dc:title></dc:title>
      </cc:Work>
    </rdf:RDF>
  </metadata>
  <g
     inkscape:label="Capa 1"
     inkscape:groupmode="layer"
     id="layer1"
     transform="translate(3080.2141,-1217.4031)">
    <g
       id="g3885"
       transform="matrix(25,0,0,25,90820.575,-9012.8355)"
       style="fill:#808080" />
    <g
       id="g3209">
      <g
         id="g1052">
        <g
           id="g1034">
          <g
             aria-label="Kiwi TCMS"
             transform="translate(0,24)"
             id="flowRoot3482"
             style="font-style:normal;font-variant:normal;font-weight:bold;font-stretch:normal;line-height:0.01%;font-family:'Open Sans';-inkscape-font-specification:'Open Sans Bold';letter-spacing:0px;word-spacing:0px;fill:#3c8d2c;fill-opacity:1;stroke:none;stroke-width:1px;stroke-linecap:butt;stroke-linejoin:miter;stroke-opacity:1">
            <path
               d="m -2220.2642,1461.9877 h -57.81 l -91.6499,-91.8066 h -28.6699 v -41.0466 h 28.6699 l 91.6499,-91.8066 h 57.81 l -115.4632,112.3299 z m -194.4232,0 h -40.7333 v -224.6598 h 40.7333 z"
               style="font-style:normal;font-variant:normal;font-weight:normal;font-stretch:normal;font-size:320.853px;line-height:1.25;font-family:Audiowide;-inkscape-font-specification:Audiowide;fill:#3c8d2c;fill-opacity:1"
               id="path1008" />
            <path
               d="m -2157.911,1257.8512 h -40.7333 v -36.8166 h 40.7333 z m 0,204.1365 h -40.7333 v -169.3565 h 40.7333 z"
               style="font-style:normal;font-variant:normal;font-weight:normal;font-stretch:normal;font-size:320.853px;line-height:1.25;font-family:Audiowide;-inkscape-font-specification:Audiowide;fill:#3c8d2c;fill-opacity:1"
               id="path1010" />
            <path
               d="m -1840.0347,1292.6312 q -9.7133,21.7766 -20.9933,42.9266 -11.28,20.9933 -23.6566,39.7933 -12.22,18.8 -25.0666,34.78 -12.8467,15.8233 -25.5367,27.4166 -12.5333,11.4367 -24.5966,18.0167 -11.9067,6.4233 -22.56,6.4233 -4.3867,0 -8.1467,-1.5667 -3.76,-1.5666 -6.58,-4.23 -2.82,-2.82 -4.3866,-6.58 -1.5667,-3.76 -1.5667,-8.1466 v -75.9833 l -80.8399,90.3966 q -3.1333,3.1333 -6.8933,4.7 -3.6034,1.41 -7.52,1.41 -4.23,0 -7.99,-1.5667 -3.6033,-1.5666 -6.4233,-4.23 -2.82,-2.82 -4.5434,-6.58 -1.5666,-3.76 -1.5666,-8.1466 v -148.8332 h 40.7333 v 96.5066 l 81.1532,-90.7099 q 4.3867,-4.3867 10.34,-5.4834 6.11,-1.2533 11.9067,1.2534 5.7966,2.35 9.0866,7.52 3.4467,5.0133 3.4467,11.1233 v 96.8199 q 13.16,-12.69 23.8133,-26.79 10.6533,-14.1 19.74,-28.9833 9.2433,-15.04 17.2333,-30.3933 8.1466,-15.51 15.8233,-30.8633 z"
               style="font-style:normal;font-variant:normal;font-weight:normal;font-stretch:normal;font-size:320.853px;line-height:1.25;font-family:Audiowide;-inkscape-font-specification:Audiowide;fill:#3c8d2c;fill-opacity:1"
               id="path1012" />
            <path
               d="m -1784.5747,1257.8512 h -40.7333 v -36.8166 h 40.7333 z m 0,204.1365 h -40.7333 v -169.3565 h 40.7333 z"
               style="font-style:normal;font-variant:normal;font-weight:normal;font-stretch:normal;font-size:320.853px;line-height:1.25;font-family:Audiowide;-inkscape-font-specification:Audiowide;fill:#3c8d2c;fill-opacity:1"
               id="path1014" />
            <path
               d="m -1437.0884,1278.0612 h -89.7699 v 183.9265 h -40.7333 v -183.9265 h -89.9265 v -40.7333 h 220.4297 z"
               style="font-style:normal;font-variant:normal;font-weight:normal;font-stretch:normal;font-size:320.853px;line-height:1.25;font-family:Audiowide;-inkscape-font-specification:Audiowide;fill:#3c8d2c;fill-opacity:1"
               id="path1016" />
            <path
               d="m -1206.0053,1461.9877 h -146.9532 q -5.64,0 -12.22,-1.2533 -6.4233,-1.41 -12.8467,-4.23 -6.2666,-2.82 -12.0633,-7.2067 -5.7966,-4.5433 -10.34,-10.81 -4.3866,-6.4233 -7.05,-14.7266 -2.6633,-8.46 -2.6633,-18.9567 v -110.2932 q 0,-5.64 1.2533,-12.0633 1.41,-6.58 4.23,-12.8467 2.82,-6.4233 7.3634,-12.22 4.5433,-5.7966 10.8099,-10.1833 6.4234,-4.5433 14.7267,-7.2066 8.3033,-2.6634 18.8,-2.6634 h 146.9532 v 40.7333 h -146.9532 q -7.99,0 -12.22,4.23 -4.23,4.23 -4.23,12.5333 v 109.9799 q 0,7.8333 4.23,12.22 4.3866,4.23 12.22,4.23 h 146.9532 z"
               style="font-style:normal;font-variant:normal;font-weight:normal;font-stretch:normal;font-size:320.853px;line-height:1.25;font-family:Audiowide;-inkscape-font-specification:Audiowide;fill:#3c8d2c;fill-opacity:1"
               id="path1018" />
            <path
               d="m -905.98891,1461.9877 h -41.04663 v -133.7932 l -72.22326,127.0565 q -2.6633,4.8567 -7.52,7.3634 -4.7,2.5066 -10.1833,2.5066 -5.3267,0 -10.0267,-2.5066 -4.5433,-2.5067 -7.2066,-7.3634 l -72.5366,-127.0565 v 133.7932 h -40.7333 v -207.2698 q 0,-7.05 4.0733,-12.5333 4.23,-5.4833 10.9667,-7.3633 3.29,-0.7834 6.58,-0.47 3.29,0.1566 6.2666,1.41 3.1334,1.0966 5.64,3.29 2.5067,2.0366 4.23,5.0133 l 92.7466,161.2098 92.74656,-161.2098 q 3.60333,-5.9533 9.86999,-8.46 6.42333,-2.5067 13.31665,-0.7833 6.57999,1.88 10.80999,7.3633 4.23,5.4833 4.23,12.5333 z"
               style="font-style:normal;font-variant:normal;font-weight:normal;font-stretch:normal;font-size:320.853px;line-height:1.25;font-family:Audiowide;-inkscape-font-specification:Audiowide;fill:#3c8d2c;fill-opacity:1"
               id="path1020" />
            <path
               d="m -642.78919,1395.8744 q 0,12.0633 -3.13333,21.7767 -2.97667,9.5566 -7.98999,16.92 -5.01333,7.3633 -11.74999,12.5333 -6.73666,5.17 -13.94332,8.46 -7.20666,3.29 -14.72665,4.8566 -7.36333,1.5667 -13.94332,1.5667 h -157.1365 v -40.7333 h 157.1365 q 11.74999,0 18.17331,-6.8933 6.58,-6.8934 6.58,-18.4867 0,-5.64 -1.72334,-10.34 -1.72333,-4.7 -5.01332,-8.1466 -3.13333,-3.4467 -7.83333,-5.3267 -4.54333,-1.88 -10.18332,-1.88 h -93.68657 q -9.86999,0 -21.30664,-3.4466 -11.43666,-3.6034 -21.30665,-11.4367 -9.71332,-7.8333 -16.29331,-20.5233 -6.42333,-12.69 -6.42333,-31.02 0,-18.33 6.42333,-30.8633 6.57999,-12.69 16.29331,-20.5233 9.86999,-7.99 21.30665,-11.4366 11.43665,-3.6034 21.30664,-3.6034 h 138.64985 v 40.7333 h -138.64985 q -11.59332,0 -18.17331,7.05 -6.42333,7.05 -6.42333,18.6433 0,11.75 6.42333,18.6433 6.57999,6.7367 18.17331,6.7367 h 93.68657 0.31333 q 6.57999,0.1567 13.94332,1.88 7.36333,1.5667 14.56999,5.0133 7.36332,3.4467 13.94331,8.7733 6.58,5.17 11.59333,12.5334 5.16999,7.3633 8.14665,16.92 2.97667,9.5566 2.97667,21.6199 z"
               style="font-style:normal;font-variant:normal;font-weight:normal;font-stretch:normal;font-size:320.853px;line-height:1.25;font-family:Audiowide;-inkscape-font-specification:Audiowide;fill:#3c8d2c;fill-opacity:1"
               id="path1022" />
          </g>
        </g>
        <g
           id="g1006">
          <g
             id="g999">
            <path
               inkscape:export-ydpi="18"
               inkscape:export-xdpi="18"
               id="path3505-5-9-3-4"
               d="m -2604.8281,1438.1267 0.6331,43.9522 40.73,-1.1727 1.4321,-42.9519 -42.7959,0.1715 z"
               inkscape:connector-curvature="0"
               style="fill:none;fill-opacity:0;stroke:#3c8d2c;stroke-width:11.6323;stroke-linecap:round;stroke-linejoin:round;stroke-miterlimit:4;stroke-dasharray:none;stroke-dashoffset:3.003;stroke-opacity:1" />
            <path
               inkscape:export-ydpi="18"
               inkscape:export-xdpi="18"
               style="fill:#3c8d2c;fill-opacity:1"
               id="path7533-2-2-9"
               d="m -2554.8872,1392.5746 q 0,1.8773 -1.3143,3.1914 l -6.3834,6.383 q -1.3136,1.3142 -3.1905,1.3142 -1.8779,0 -3.1916,-1.3142 l -13.7988,-13.7984 -13.7983,13.7984 q -1.3144,1.3142 -3.1915,1.3142 -1.8769,0 -3.1915,-1.3142 l -6.3828,-6.383 q -1.3144,-1.3141 -1.3144,-3.1914 0,-1.8773 1.3144,-3.1914 l 13.7981,-13.7985 -13.7981,-13.7984 q -1.3144,-1.3142 -1.3144,-3.1915 0,-1.8773 1.3144,-3.1914 l 6.3828,-6.383 q 1.3146,-1.3141 3.1915,-1.3141 1.8771,0 3.1915,1.3141 l 13.7983,13.7985 13.7988,-13.7985 q 1.3137,-1.3141 3.1916,-1.3141 1.8769,0 3.1905,1.3141 l 6.3834,6.383 q 1.3143,1.3141 1.3143,3.1914 0,1.8773 -1.3143,3.1915 l -13.7989,13.7984 13.7989,13.7985 q 1.3143,1.3141 1.3143,3.1914 z"
               inkscape:connector-curvature="0" />
            <path
               inkscape:export-ydpi="18"
               inkscape:export-xdpi="18"
               style="fill:#3c8d2c;fill-opacity:1;stroke:none;stroke-opacity:0.741176"
               id="path7475-1-3-9"
               d="m -2537.8973,1274.1629 q 0,1.8773 -1.3136,3.1915 l -33.9807,33.9797 -6.3822,6.3831 q -1.3148,1.3141 -3.1919,1.3141 -1.8771,0 -3.1917,-1.3141 l -6.3825,-6.3831 -16.9906,-16.9898 q -1.3138,-1.3142 -1.3138,-3.1915 0,-1.8773 1.3138,-3.1915 l 6.3835,-6.3828 q 1.3137,-1.3142 3.1914,-1.3142 1.8771,0 3.191,1.3142 l 13.7989,13.8452 30.7883,-30.8352 q 1.3137,-1.3141 3.1917,-1.3141 1.877,0 3.1909,1.3141 l 6.3835,6.383 q 1.3138,1.3141 1.3138,3.1914 z"
               inkscape:connector-curvature="0" />
          </g>
          <path
             d="m -2650.1048,2038.5181 -0.16,-0.32 q -1.54,-3 -3.2,-6 a 0.13,0.13 0 0 0 0,-0.07 254.27,254.27 0 0 0 -52.86,-66.61 v 0 c -0.62,-0.57 -1.26,-1.13 -1.89,-1.69 a 31.75,31.75 0 0 1 -8.65,-30.7 31.17,31.17 0 0 1 1.83,-5.18 95.14,95.14 0 0 0 -90.52,-124.43 q -3.29,0 -6.52,0.22 a 94.46,94.46 0 0 0 -25.44,5.28 c -0.37,0.16 -0.75,0.29 -1.13,0.42 h -0.06 a 31.77,31.77 0 0 1 -38.25,-15.45 27.65,27.65 0 0 1 -1.22,-2.65 253.68,253.68 0 0 0 -229.65,-145.82 q -7.77,0 -15.43,0.46 c -132.88,7.98 -238.16,118.26 -238.16,253.13 0,132.76 102,241.69 231.94,252.68 0,-0.42 0,-0.82 0,-1.24 a 95.11,95.11 0 1 1 71.85,-173.33 l 0.18,-0.18 q 1.86,1.41 3.76,2.79 c 0.85,0.59 1.69,1.19 2.52,1.81 l 0.06,0.05 a 252.43,252.43 0 0 0 97.75,41.83 254.29,254.29 0 0 0 48.68,4.67 q 7.77,0 15.44,-0.46 a 252.3,252.3 0 0 0 119.05,-38.09 v 0 a 31.49,31.49 0 0 1 17.08,-5 32,32 0 0 1 6.39,0.64 v 0 a 31.56,31.56 0 0 1 11.32,4.77 c 0.46,0.31 0.91,0.63 1.34,1 a 158.7,158.7 0 0 1 62.5,158.81 95.16,95.16 0 0 0 21.45,-111.34 z m -131,-119.74 a 31.7,31.7 0 0 1 -55.78,-15.26 32.15,32.15 0 0 1 -0.37,-4.84 31.7,31.7 0 0 1 30.67,-31.68 h 1 a 31.7,31.7 0 0 1 24.46,51.86 z"
             id="path8"
             style="filter:url(#filter124);fill:#3c8d2c;fill-opacity:1"
             transform="matrix(0.57763885,0,0,0.57763885,-1132.8972,270.54811)" />
        </g>
      </g>
    </g>
  </g>
</svg>
