<?xml version="1.0" encoding="UTF-8" standalone="no"?>
<svg
   xmlns:dc="http://purl.org/dc/elements/1.1/"
   xmlns:cc="http://creativecommons.org/ns#"
   xmlns:rdf="http://www.w3.org/1999/02/22-rdf-syntax-ns#"
   xmlns:svg="http://www.w3.org/2000/svg"
   xmlns="http://www.w3.org/2000/svg"
   xmlns:xlink="http://www.w3.org/1999/xlink"
   xml:space="preserve"
   style="enable-background:new 0 0 2674 1359;"
   viewBox="0 0 2674 1359"
   y="0px"
   x="0px"
   id="Layer_1"
   version="1.1"><title
   id="title359">Coffee and Laptop</title><metadata
   id="metadata61"><rdf:RDF><cc:Work
       rdf:about=""><dc:format>image/svg+xml</dc:format><dc:type
         rdf:resource="http://purl.org/dc/dcmitype/StillImage" /><dc:title>Coffee and Laptop</dc:title><dc:creator><cc:Agent><dc:title></dc:title></cc:Agent></dc:creator><dc:publisher><cc:Agent><dc:title>Openclipart.org</dc:title></cc:Agent></dc:publisher><dc:identifier>https://openclipart.org/</dc:identifier><dc:source>https://openclipart.org/user-detail/Arvin61r58</dc:source><dc:contributor><cc:Agent><dc:title>Arvin61r58 (https://openclipart.org/user-detail/Arvin61r58)
GDJ (https://openclipart.org/user-detail/GDJ)
Pixabay (https://pixabay.com/)</dc:title></cc:Agent></dc:contributor><dc:subject><rdf:Bag><rdf:li>laptop</rdf:li><rdf:li>computer</rdf:li><rdf:li>coffee</rdf:li><rdf:li>mug</rdf:li><rdf:li>cup</rdf:li></rdf:Bag></dc:subject><dc:description>laptop and coffee mug</dc:description><cc:license
         rdf:resource="http://creativecommons.org/publicdomain/zero/1.0/" /></cc:Work><cc:License
       rdf:about="http://creativecommons.org/publicdomain/zero/1.0/"><cc:permits
         rdf:resource="http://creativecommons.org/ns#Reproduction" /><cc:permits
         rdf:resource="http://creativecommons.org/ns#Distribution" /><cc:permits
         rdf:resource="http://creativecommons.org/ns#DerivativeWorks" /></cc:License></rdf:RDF></metadata><defs
   id="defs59"><radialGradient
     gradientUnits="userSpaceOnUse"
     gradientTransform="matrix(1,0,0,0.17902352,0,148.25337)"
     r="46.4576"
     fy="180.58176"
     fx="87.983719"
     cy="180.58176"
     cx="87.983719"
     id="radialGradient2086"
     xlink:href="#linearGradient1974" /><linearGradient
     id="linearGradient1974"><stop
       id="stop1972"
       offset="0"
       stop-color="#a0a2a2" /><stop
       id="stop1970"
       offset="0.071429"
       stop-color="#5f6763" /><stop
       id="stop1968"
       offset="0.142857"
       stop-color="#616964" /><stop
       id="stop1966"
       offset="0.214286"
       stop-color="#717873" /><stop
       id="stop1964"
       offset="0.285714"
       stop-color="#c8caca" /><stop
       id="stop1962"
       offset="0.357143"
       stop-color="#d3d4d5" /><stop
       id="stop1960"
       offset="0.428571"
       stop-color="#8c948f" /><stop
       id="stop1958"
       offset="0.5"
       stop-color="#989e9a" /><stop
       id="stop1956"
       offset="0.571429"
       stop-color="#a7aeaa" /><stop
       id="stop1954"
       offset="0.642857"
       stop-color="#f8f9fa" /><stop
       id="stop1952"
       offset="0.714286"
       stop-color="#fdfdfd" /><stop
       id="stop1950"
       offset="0.785714"
       stop-color="#f4f4f4" /><stop
       id="stop1948"
       offset="0.857143"
       stop-color="#d8d9d9" /><stop
       id="stop1946"
       offset="0.928571"
       stop-color="#bfc1bf" /><stop
       id="stop1944"
       offset="1"
       stop-color="#cfcfcf" /></linearGradient><linearGradient
     gradientUnits="userSpaceOnUse"
     y2="245.32124"
     x2="155.7014"
     y1="245.32124"
     x1="81.701401"
     id="linearGradient1857"
     xlink:href="#linearGradient1889" /><linearGradient
     id="linearGradient1889"><stop
       id="stop1887"
       offset="0"
       stop-color="#cfcfcf" /><stop
       id="stop1885"
       offset="0.071429"
       stop-color="#bfc1bf" /><stop
       id="stop1883"
       offset="0.142857"
       stop-color="#d8d9d9" /><stop
       id="stop1881"
       offset="0.214286"
       stop-color="#f4f4f4" /><stop
       id="stop1879"
       offset="0.285714"
       stop-color="#fdfdfd" /><stop
       id="stop1877"
       offset="0.357143"
       stop-color="#f8f9fa" /><stop
       id="stop1875"
       offset="0.428571"
       stop-color="#a7aeaa" /><stop
       id="stop1873"
       offset="0.5"
       stop-color="#989e9a" /><stop
       id="stop1871"
       offset="0.571429"
       stop-color="#8c948f" /><stop
       id="stop1869"
       offset="0.642857"
       stop-color="#d3d4d5" /><stop
       id="stop1867"
       offset="0.714286"
       stop-color="#c8caca" /><stop
       id="stop1865"
       offset="0.785714"
       stop-color="#717873" /><stop
       id="stop1863"
       offset="0.857143"
       stop-color="#616964" /><stop
       id="stop1861"
       offset="0.928571"
       stop-color="#5f6763" /><stop
       id="stop1859"
       offset="1"
       stop-color="#a0a2a2" /></linearGradient><linearGradient
     gradientUnits="userSpaceOnUse"
     y2="65.045731"
     x2="121.49682"
     y1="65.045731"
     x1="47.496651"
     id="linearGradient1942"
     xlink:href="#linearGradient1974" /></defs>
<style
   id="style2"
   type="text/css">
	.st0{fill:#FFFFFF;stroke:#FFFFFF;stroke-width:0.1158;}
	.st1{fill:#784421;stroke:#784421;stroke-width:0.1158;}
	.st2{fill:#CCCCCC;stroke:#CCCCCC;stroke-width:0.1158;}
	.st3{fill:#B3B3B3;}
	.st4{fill:#010101;}
	.st5{fill:#FFFFFF;}
	.st6{fill:#333333;}
	.st7{fill:none;stroke:#333333;stroke-width:0.1158;}
	.st8{fill:none;stroke:#FFFFFF;stroke-width:0.1158;}
	.st9{fill:none;stroke:#010101;stroke-width:0.1158;}
	.st10{fill:#F9F9F9;stroke:#F9F9F9;stroke-width:0.1158;}
	.st11{fill:#999999;stroke:#999999;stroke-width:0.1158;}
	.st12{fill:#B3B3B3;stroke:#B3B3B3;stroke-width:0.1158;}
	.st13{fill:#4E4E4E;stroke:#4E4E4E;stroke-width:0.1158;}
	.st14{fill:#4F4F4F;stroke:#4F4F4F;stroke-width:0.1158;}
</style>
<g
   id="g52">
		<path
   class="st3"
   d="m 1938.7,146.5 c 0,163.7 0.1,327.5 0.1,491.2 0,32.7 0,65.4 0,98.1 0,131 0,262.1 -0.1,393.1 -126.8,0.4 -253.6,0 -380.4,0.2 -347.5,0 -695.1,0 -1042.6,0 -88.5,-0.1 -177,0.2 -265.5,-0.2 -0.1,-327.5 0,-654.9 0,-982.4 281.4,0 562.9,-0.1 844.3,-0.1 281.4,0.1 562.8,0.1 844.2,0.1 z"
   id="path20"
   style="fill:#b3b3b3" />
		<path
   class="st4"
   d="m 1093.9,112.2 c -3.2,-0.3 -3.9,-5.2 -1,-6.6 2,-1 4.9,0.2 5.1,2.6 0.5,2.3 -1.8,4.6 -4.1,4 z"
   id="path22"
   style="fill:#010101" />
		<path
   class="st5"
   d="m 1090.6,100 c 1.2,-0.6 2.5,-0.9 3.8,-0.9 5.3,0 10.5,4.8 9.8,10.4 -0.1,5 -4.9,9.1 -9.6,9.1 -1.3,0 -2.7,-0.3 -3.9,-1 -7.7,-2.7 -7.6,-14.8 -0.1,-17.6 z m 2.3,5.7 c -2.9,1.4 -2.2,6.3 1,6.6 2.3,0.6 4.5,-1.7 4,-4 -0.2,-2.4 -3,-3.6 -5,-2.6 z"
   id="path24"
   style="fill:#ffffff" />
		<path
   class="st6"
   d="m 1979,956 c 0,-73.4 -0.1,-146.8 -0.1,-220.2 v -98.1 c 0,-84 0,-168 0,-251.9 0,-87.6 0,-175.2 0,-262.8 0.2,-19.2 -11.3,-37.8 -28.5,-46.2 -7.4,-3.8 -15.7,-5.6 -23.9,-5.6 -10.3,0 -20.5,0 -30.7,0 -267.1,0 -534.3,0 -801.4,0 -105.2,0 -210.5,0 -315.7,0 -95.5,0 -191,0 -286.5,0 -76.6,0 -153.1,0 -229.7,0 -9.9,-0.1 -19.7,2.8 -28.2,7.9 -14.7,9.5 -24.3,26.4 -24.1,44 v 23.5 c 0,302.2 0,604.4 0,906.6 0.1,49.7 -0.2,99.5 0.1,149.2 122.4,-0.3 244.8,0 367.3,-0.1 137.9,-0.1 275.7,0.1 413.6,-0.1 10.4,-0.4 20.8,-0.1 31.1,-0.2 58.6,0.1 117.1,-0.3 175.7,0.2 260.4,0.3 520.8,-0.1 781.2,0.2 -0.4,-82.2 -0.2,-164.3 -0.2,-246.4 z m -40.2,-220.2 c 0,131 0,262.1 -0.1,393.1 -126.8,0.4 -253.6,0 -380.4,0.2 H 515.7 c -88.5,-0.1 -177,0.2 -265.5,-0.2 -0.1,-327.5 0,-654.9 0,-982.4 281.4,0 562.9,-0.1 844.3,-0.1 281.4,0 562.8,0 844.2,0 0,163.7 0.1,327.5 0.1,491.2 z"
   id="path26"
   style="fill:#333333" />
		<g
   id="g36">
			<path
   class="st7"
   d="m 234.2,79 c 8.5,-5.1 18.3,-8 28.2,-7.9 76.6,0 153.1,0 229.7,0 95.5,0 191,0 286.5,0 105.2,0 210.5,0 315.7,0 267.1,0 534.2,0 801.4,0 10.2,0 20.5,0 30.7,0 8.3,0 16.6,1.8 23.9,5.6 17.2,8.5 28.7,27.1 28.5,46.2 0.1,87.6 0,175.2 0,262.8 0,84 0,168 0,251.9 0,32.7 0,65.4 0,98.1 0,73.4 0,146.8 0.1,220.2 0,82.1 -0.2,164.2 0.1,246.3 -260.4,-0.3 -520.8,0.1 -781.2,-0.2 -58.6,-0.5 -117.1,-0.1 -175.7,-0.2 -10.4,0.1 -20.8,-0.2 -31.1,0.2 -137.9,0.3 -275.7,0 -413.6,0.1 -122.4,0.1 -244.8,-0.2 -367.3,0.1 -0.3,-49.7 0,-99.5 -0.1,-149.2 0,-302.2 0,-604.4 0,-906.6 0,-7.8 0,-15.7 0,-23.5 -0.1,-17.5 9.6,-34.4 24.2,-43.9"
   id="path28"
   style="fill:none;stroke:#333333;stroke-width:0.1158" />
			<path
   class="st7"
   d="m 250.2,146.5 c 0,327.5 0,654.9 0,982.4 88.5,0.4 177,0.1 265.5,0.2 347.5,0 695.1,0 1042.6,0 126.8,-0.1 253.6,0.2 380.4,-0.2 0,-131 0,-262.1 0.1,-393.1 0,-32.7 0,-65.4 0,-98.1 0,-163.7 0,-327.5 -0.1,-491.2 -281.4,0 -562.8,0 -844.2,0 -281.4,0 -562.8,0 -844.3,0 z"
   id="path30"
   style="fill:none;stroke:#333333;stroke-width:0.1158" />
			<path
   class="st8"
   d="m 1090.6,100 c 1.2,-0.6 2.5,-0.9 3.8,-0.9 5.3,0 10.5,4.8 9.8,10.4 -0.1,5 -4.9,9.1 -9.6,9.1 -1.3,0 -2.7,-0.3 -3.9,-1 -7.7,-2.7 -7.6,-14.8 -0.1,-17.6"
   id="path32"
   style="fill:none;stroke:#ffffff;stroke-width:0.1158" />
			<path
   class="st9"
   d="m 1092.9,105.7 c 2,-1 4.9,0.2 5.1,2.6 0.5,2.2 -1.8,4.5 -4,4 -3.3,-0.3 -4,-5.3 -1.1,-6.6 z"
   id="path34"
   style="fill:none;stroke:#010101;stroke-width:0.1158" />
		</g>
		<path
   class="st10"
   d="m 57.9,1203.1 c 10.1,-1 20.3,-0.3 30.4,-0.5 40.6,-0.2 81.3,0.4 121.9,-0.3 122.4,-0.3 244.8,0 367.3,-0.1 137.9,-0.1 275.7,0.1 413.6,-0.1 -0.1,5.9 -1.6,13 2.8,17.9 2.7,3.2 7.1,3.8 11,3.8 59.8,-0.1 119.5,-0.1 179.3,0 4.2,0 9,-0.7 11.6,-4.4 3.6,-5 2.3,-11.6 2.2,-17.3 260.4,0.3 520.8,-0.1 781.2,0.2 34.7,0.9 69.5,-0.2 104.2,0.5 15.5,2 31.1,0.4 46.7,1.3 0.6,8.2 0.3,16.3 -0.1,24.5 -0.4,3.1 0.8,5.9 2.5,8.5 -6.7,-2.3 -13.8,-1.5 -20.7,-1.5 -678.2,0 -1356.3,0 -2034.5,0 -6.7,0 -13.7,-0.9 -20.2,1.5 1.4,-11.3 -0.6,-22.7 0.8,-34 m 76.4,9.8 c -2.3,2.7 -1.9,6.3 -2,9.6 2.2,3 5,6.4 9.2,6.2 4,0.5 7.2,-2.2 9.3,-5.3 l 0.7,-0.2 c -0.3,-3.4 0.2,-7.3 -2,-10.2 -3.5,-4.7 -11.6,-4.8 -15.2,-0.1 m 59,-0.3 c -2.9,2.7 -2.4,7 -2.6,10.6 l 0.7,0.2 c 3.4,6.6 13.2,7.2 17.3,1 l 0.8,-0.1 c 0.1,-3.6 1,-7.6 -1.2,-10.7 -3.2,-5 -11.2,-5.7 -15,-1 z"
   id="path38"
   style="fill:#f9f9f9;stroke:#f9f9f9;stroke-width:0.1158" />
		<path
   class="st11"
   d="m 991.1,1202.1 c 10.4,-0.4 20.8,-0.1 31.1,-0.2 58.6,0.1 117.1,-0.3 175.7,0.2 0.1,5.7 1.5,12.3 -2.2,17.3 -2.6,3.7 -7.4,4.4 -11.6,4.4 -59.8,-0.1 -119.5,-0.1 -179.3,0 -3.9,0 -8.3,-0.6 -11,-3.8 -4.3,-4.9 -2.8,-12 -2.7,-17.9 z"
   id="path40"
   style="fill:#999999;stroke:#999999;stroke-width:0.1158" />
		<path
   class="st12"
   d="m 134.3,1212.9 c 3.6,-4.8 11.6,-4.7 15.2,0.1 2.3,2.9 1.8,6.7 2,10.2 l -0.7,0.2 c -3.1,0.7 -6.2,1.7 -9.4,1.8 -3.2,-0.2 -6.1,-1.6 -9.1,-2.6 0.1,-3.4 -0.2,-7 2,-9.7 z"
   id="path42"
   style="fill:#b3b3b3;stroke:#b3b3b3;stroke-width:0.1158" />
		<path
   class="st12"
   d="m 193.3,1212.6 c 3.8,-4.7 11.8,-4 15.1,1 2.2,3.1 1.3,7.1 1.2,10.7 l -0.8,0.1 c -5.8,0.8 -11.7,0.8 -17.3,-1 l -0.7,-0.2 c 0.1,-3.7 -0.4,-7.9 2.5,-10.6 z"
   id="path44"
   style="fill:#b3b3b3;stroke:#b3b3b3;stroke-width:0.1158" />
		<path
   class="st13"
   d="m 132.3,1222.5 c 3,1 5.9,2.5 9.1,2.6 3.2,-0.1 6.3,-1.1 9.4,-1.8 -2.1,3 -5.3,5.8 -9.3,5.3 -4.2,0.3 -7,-3.1 -9.2,-6.1 z"
   id="path46"
   style="fill:#4e4e4e;stroke:#4e4e4e;stroke-width:0.1158" />
		<path
   class="st14"
   d="m 191.4,1223.3 c 5.6,1.8 11.5,1.7 17.3,1 -4,6.2 -13.8,5.6 -17.3,-1 z"
   id="path48"
   style="fill:#4f4f4f;stroke:#4f4f4f;stroke-width:0.1158" />
		<path
   class="st12"
   d="m 57,1237.1 c 6.5,-2.3 13.5,-1.4 20.2,-1.5 678.2,0 1356.3,0 2034.5,0 6.9,0 14,-0.8 20.7,1.5 -1.5,8.7 -7.6,16.1 -16,18.9 -122.2,0.4 -244.4,0 -366.6,0.2 -527.1,0 -1054.1,0 -1581.2,0 -32,-0.1 -64.1,0.3 -96.1,-0.2 -8.1,-2.9 -14.9,-10.1 -15.5,-18.9 z"
   id="path50"
   style="fill:#b3b3b3;stroke:#b3b3b3;stroke-width:0.1158" />
	</g>
<g
   id="g2234"
   transform="matrix(3.7795276,0,0,3.7795276,2087.1431,528.7117)"><ellipse
     style="opacity:1;fill:#ffffff;fill-opacity:1;fill-rule:evenodd;stroke:none;stroke-width:0.39687496;stroke-linecap:round;stroke-linejoin:round;stroke-miterlimit:4;stroke-dasharray:none;stroke-opacity:1"
     id="path999"
     cx="87.983719"
     cy="180.58176"
     rx="46.4576"
     ry="8.3170033" /><ellipse
     ry="8.3170033"
     rx="46.4576"
     cy="180.58176"
     cx="87.983719"
     id="ellipse2078"
     style="opacity:1;fill:url(#radialGradient2086);fill-opacity:1;fill-rule:evenodd;stroke:none;stroke-width:0.39687496;stroke-linecap:round;stroke-linejoin:round;stroke-miterlimit:4;stroke-dasharray:none;stroke-opacity:1" /><ellipse
     ry="3.6069112"
     rx="33.909679"
     cy="180.58176"
     cx="87.983719"
     id="ellipse1001"
     style="opacity:0.55;fill:#aaaaaa;fill-opacity:1;fill-rule:evenodd;stroke:none;stroke-width:0.39687496;stroke-linecap:round;stroke-linejoin:round;stroke-miterlimit:4;stroke-dasharray:none;stroke-opacity:1" /><path
     style="fill:#e3e3e3;stroke:#ffffff;stroke-width:0.03063875"
     d="m 124.76145,117.17099 v 6.94842 c 0.68514,-0.0366 1.37219,-0.0702 2.05945,-0.0661 0.59718,0.004 1.19293,0.0348 1.78515,0.11421 1.55105,0.26457 2.62293,1.71978 2.48192,3.175 -0.0282,5.23874 -0.0282,10.47708 0,15.71583 0,1.24354 -0.28179,2.80478 -1.60724,3.38688 -1.48566,0.62946 -3.133,0.58912 -4.71928,0.4656 v 6.982 c 3.10425,-0.35373 6.27781,0.10387 9.40055,-0.17156 2.48169,-0.23813 4.31486,-2.51345 4.20206,-4.78886 v -21.2726 c -0.0846,-2.27542 0.1691,-4.55063 -0.1129,-6.79959 -0.19741,-1.69334 -1.6078,-3.09572 -3.29987,-3.67781 -3.04571,0.10584 -6.09099,0.15886 -9.13671,0.10594 -0.32722,-0.0236 -0.70886,-0.0395 -1.05313,-0.11731 z"
     id="path186" /><g
     id="g2064"
     transform="translate(-1.8948853)"><g
       transform="translate(5.3818682,40.505639)"
       id="g1996"><g
         id="g1932"
         transform="translate(-34.204667,-141.22547)"><path
           style="opacity:1;fill:#ffffff;fill-opacity:1;fill-rule:evenodd;stroke:none;stroke-width:0.39687499;stroke-linecap:round;stroke-linejoin:round;stroke-miterlimit:4;stroke-dasharray:none;stroke-opacity:1"
           d="m 81.701406,208.01008 v 48.16398 c 0,14.65792 11.885803,26.45834 26.649784,26.45834 h 20.70042 c 14.76399,0 26.64979,-11.80041 26.64979,-26.45834 v -48.16398 c -11.78847,3.13746 -23.7118,4.84569 -36.15206,4.88269 -12.44026,0.037 -24.928876,-1.5099 -37.847934,-4.88269 z"
           id="path1825" /><path
           id="rect189"
           d="m 81.701403,208.01008 v 48.16398 c 0,14.65792 11.88581,26.45834 26.649787,26.45834 h 20.70042 c 14.76399,0 26.64979,-11.80042 26.64979,-26.45834 v -48.16398 c -11.78847,3.13746 -23.7118,4.84569 -36.15206,4.88269 -12.44026,0.037 -24.928877,-1.5099 -37.847937,-4.88269 z"
           style="opacity:0.5;fill:url(#linearGradient1857);fill-opacity:1;fill-rule:evenodd;stroke:none;stroke-width:0.39687499;stroke-linecap:round;stroke-linejoin:round;stroke-miterlimit:4;stroke-dasharray:none;stroke-opacity:1" /></g><path
         style="opacity:0.65;fill:#ffffff;fill-opacity:1;fill-rule:evenodd;stroke:none;stroke-width:0.39687499;stroke-linecap:round;stroke-linejoin:round;stroke-miterlimit:4;stroke-dasharray:none;stroke-opacity:1"
         d="m 84.496458,58.248663 a 37,8.3364963 0 0 0 -36.999806,8.336445 37,8.3364963 0 0 0 0.06098,0.39016 c 12.897326,3.36172 25.366199,4.90382 37.786838,4.86688 12.409216,-0.0369 24.30423,-1.73714 36.06395,-4.85965 a 37,8.3364963 0 0 0 0.0884,-0.39739 37,8.3364963 0 0 0 -37.000331,-8.336445 z"
         id="path1820" /><path
         id="path1934"
         d="m 84.496458,58.248663 a 37,8.3364963 0 0 0 -36.999806,8.336445 37,8.3364963 0 0 0 0.06098,0.39016 c 12.897326,3.36172 25.366199,4.90382 37.786838,4.86688 12.409216,-0.0369 24.30423,-1.73714 36.06395,-4.85965 a 37,8.3364963 0 0 0 0.0884,-0.39739 37,8.3364963 0 0 0 -37.000331,-8.336445 z"
         style="opacity:0.65;fill:url(#linearGradient1942);fill-opacity:1;fill-rule:evenodd;stroke:none;stroke-width:0.39687499;stroke-linecap:round;stroke-linejoin:round;stroke-miterlimit:4;stroke-dasharray:none;stroke-opacity:1" /></g><g
       transform="matrix(0.26458333,0,0,0.26458333,-551.81004,-135.94601)"
       id="g170"><path
         style="fill:#784421;stroke:#784421;stroke-width:0.1158"
         class="st1"
         d="m 2399.8,1019 c 6.3,-3.1 13.9,-2.5 20.3,0.2 11.6,5.1 20.2,16.1 22.8,28.4 -6.1,0.7 -12,2.2 -17.6,4.8 -8.6,-7.9 -19,-14.6 -24.5,-25.2 -1.1,-2.4 -2.9,-5.6 -1,-8.2 z"
         id="path6-7" /><path
         style="fill:#784421;stroke:#784421;stroke-width:0.1158"
         class="st1"
         d="m 2391.5,1026.7 c 0.5,-1.3 1.4,-1.9 2.8,-1.8 3.3,4.4 5.1,9.6 8.3,14 3.4,5 8.1,8.7 12.3,12.9 -8,-1.2 -16,-1 -24,0.3 -2.6,-8.1 -3.8,-17.7 0.6,-25.4 z"
         id="path8-9" /><path
         style="fill:#784421;stroke:#784421;stroke-width:0.1158"
         class="st1"
         d="m 2427.3,1057.5 c 8,-5.2 18.3,-5.3 27.4,-3.5 10.4,2.5 20.3,9 25.4,18.6 1.9,3.9 3.3,8.3 2.6,12.6 -2.2,3.4 -6.7,2.1 -10,1.9 -9.8,-1.2 -18.2,-6.6 -26.6,-11.2 -6.4,-3.3 -13.5,-6.5 -20.9,-5.4 0.5,3.1 4,3.7 6.4,5 8.2,3.5 15.4,8.6 23.5,12.3 7.8,3.6 16.5,3.2 24.7,5.3 -2.5,6 -8.5,9.5 -14.3,11.5 -15.1,4.4 -32.7,-0.6 -42.8,-12.8 -4.9,-5.8 -7.5,-13.7 -5.7,-21.2 1.2,-5.8 5.7,-10 10.3,-13.1 z"
         id="path10-6" /><path
         style="fill:#784421;stroke:#784421;stroke-width:0.1158"
         class="st1"
         d="m 2374.2,1068.6 c 10.5,-11.8 28.6,-16.7 43.3,-10.5 -2.2,4 -4.2,8.1 -5.7,12.4 -0.7,2.4 -3.5,3.1 -5.4,4.3 -10,4.9 -19,12.7 -30.5,13.7 -2.7,0 -6.2,1.1 -8,-1.4 -1.1,-6.7 2,-13.5 6.3,-18.5 z"
         id="path12-2" /><path
         style="fill:#784421;stroke:#784421;stroke-width:0.1158"
         class="st1"
         d="m 2390.5,1089.9 c 7.6,-2.5 13.5,-8 20.9,-11 1.1,6.7 5.2,12.2 8,18.2 -9.7,7.3 -22.6,10.4 -34.5,7.6 -5.5,-1.9 -11.9,-4.7 -14.1,-10.6 6.5,-1.8 13.4,-1.8 19.7,-4.2 z"
         id="path14-9" /></g></g></g></svg>