<?xml version="1.0" encoding="UTF-8" standalone="no"?>
<!-- Generator: Adobe Illustrator 25.2.1, SVG Export Plug-In . SVG Version: 6.00 Build 0)  -->

<svg
   version="1.1"
   id="Livello_1"
   x="0px"
   y="0px"
   viewBox="0 0 400 142"
   style="enable-background:new 0 0 400 142;"
   xml:space="preserve"
   sodipodi:docname="olivetti.svg"
   inkscape:export-filename="olivetti.png"
   inkscape:export-xdpi="144"
   inkscape:export-ydpi="144"
   inkscape:version="1.4.2 (ebf0e940d0, 2025-05-08)"
   xmlns:inkscape="http://www.inkscape.org/namespaces/inkscape"
   xmlns:sodipodi="http://sodipodi.sourceforge.net/DTD/sodipodi-0.dtd"
   xmlns="http://www.w3.org/2000/svg"
   xmlns:svg="http://www.w3.org/2000/svg"><defs
   id="defs11" /><sodipodi:namedview
   id="namedview11"
   pagecolor="#ffffff"
   bordercolor="#666666"
   borderopacity="1.0"
   inkscape:showpageshadow="2"
   inkscape:pageopacity="0.0"
   inkscape:pagecheckerboard="0"
   inkscape:deskcolor="#d1d1d1"
   inkscape:zoom="3.2725"
   inkscape:cx="200.15279"
   inkscape:cy="70.893812"
   inkscape:window-width="1415"
   inkscape:window-height="869"
   inkscape:window-x="0"
   inkscape:window-y="0"
   inkscape:window-maximized="1"
   inkscape:current-layer="Livello_1" />
<style
   type="text/css"
   id="style1">
	.st0{fill:#009845;}
	.st1{fill:#CE0E2D;}
</style>
<g
   id="g11">
	<path
   class="st0"
   d="M95.48,101.62V39.98c0-4.83-6.36-8.74-14.19-8.74c-7.83,0-14.18,3.91-14.18,8.74v61.64   c0,4.83,6.35,8.74,14.18,8.74C89.13,110.36,95.48,106.45,95.48,101.62 M31.3,141.7c-17.29,0-31.31-14.05-31.31-31.37V31.28   C-0.01,13.95,14-0.1,31.3-0.1h100c17.29,0,31.31,14.04,31.31,31.37v79.05c0,17.33-14.01,31.37-31.31,31.37H31.3z"
   id="path1" />
	<path
   class="st1"
   d="M294.88,85.94h7.92c0.39,0,0.7-0.31,0.7-0.7l0.01-2.73c0-1.38-2.09-2.49-4.65-2.49   c-2.57,0-4.66,1.12-4.66,2.49l0,2.73C294.19,85.63,294.5,85.94,294.88,85.94 M294.19,99.69c0,0.02,0,0.03,0,0.05   c0.05,1.33,2.03,2.4,4.47,2.4c2.47,0,4.47-1.1,4.47-2.45c0-0.04,0-0.07,0-0.1v-2.16c0-0.38,0.31-0.7,0.7-0.7h16.16   c0.57,0,1.04,0.47,1.04,1.05v4.02c0,4.73-3.83,8.56-8.55,8.56H285.2c-4.72,0-8.55-3.83-8.55-8.56V80.21c0-4.73,3.82-8.56,8.55-8.56   h27.29c4.72,0,8.55,3.84,8.55,8.56v12.74c0,0.03,0,0.06,0,0.09c0,0.58-0.47,1.05-1.05,1.05h-16.86h-6.77   c-1.2,0-2.18,0.98-2.18,2.19v0.45V99.69z"
   id="path2" />
	<path
   class="st1"
   d="M162.59,99.41V82.59c0-1.32-1.73-2.39-3.87-2.39c-2.14,0-3.87,1.07-3.87,2.39v16.82   c0,1.32,1.73,2.39,3.87,2.39C160.85,101.79,162.59,100.72,162.59,99.41 M145.07,110.35c-4.72,0-8.55-3.84-8.55-8.56V80.21   c0-4.73,3.83-8.56,8.55-8.56h27.29c4.73,0,8.55,3.84,8.55,8.56v21.58c0,4.73-3.82,8.56-8.55,8.56H145.07z"
   id="path3" />
	<path
   class="st1"
   d="M186.19,110.35c-0.96,0-1.75-0.78-1.75-1.75V59.35c0-0.97,0.78-1.75,1.75-1.75h14.11   c0.96,0,1.74,0.78,1.74,1.75v49.25c0,0.96-0.78,1.75-1.74,1.75H186.19z"
   id="path4" />
	<path
   class="st1"
   d="M207.16,69.71c-0.39,0-0.7-0.32-0.7-0.7v-9.66c0-0.97,0.78-1.75,1.74-1.75h14.11c0.96,0,1.74,0.78,1.74,1.75   v9.66c0,0.39-0.31,0.7-0.7,0.7H207.16z"
   id="path5" />
	<path
   class="st1"
   d="M206.46,73.03c0-0.39,0.31-0.7,0.7-0.7h16.2c0.38,0,0.7,0.31,0.7,0.7v35.57c0,0.97-0.78,1.75-1.74,1.75h-14.1   c-0.96,0-1.75-0.78-1.75-1.75V73.03z"
   id="path6" />
	<path
   class="st1"
   d="M246.25,73.71l4.74,22.53c0.03,0.13,0.14,0.22,0.27,0.22c0.14,0,0.24-0.09,0.28-0.22l4.74-22.53   c0.17-0.79,0.87-1.38,1.71-1.38h16.36c0.58,0,1.05,0.47,1.05,1.05c0,0.09-0.01,0.18-0.04,0.26l-8.32,35.34   c-0.18,0.78-0.87,1.37-1.7,1.37h-14.07h-14.07c-0.83,0-1.52-0.59-1.7-1.37l-8.32-35.35c-0.02-0.08-0.03-0.17-0.03-0.25   c0-0.57,0.47-1.05,1.05-1.05h16.36C245.38,72.33,246.08,72.92,246.25,73.71"
   id="path7" />
	<path
   class="st1"
   d="M341.76,57.6c0.96,0,1.74,0.78,1.74,1.75v12.1c0,0.48,0.39,0.87,0.87,0.87h4.13c0.82,0,1.48,0.66,1.48,1.48   v9.87c0,0.82-0.66,1.48-1.48,1.48h-4.13c-0.48,0-0.87,0.39-0.87,0.87v9.29c0,1.2,0.98,2.19,2.18,2.19h3.26   c0.57,0,1.05,0.47,1.05,1.05v10.04c0,0.97-0.78,1.75-1.74,1.75h-4.75h-9.16c-4.72,0-8.55-3.84-8.55-8.57V59.35   c0-0.97,0.78-1.75,1.74-1.75H341.76z"
   id="path8" />
	<path
   class="st1"
   d="M369.99,57.6c0.96,0,1.74,0.78,1.74,1.75v12.1c0,0.48,0.39,0.87,0.87,0.87h4.13c0.82,0,1.48,0.66,1.48,1.48   v9.87c0,0.82-0.66,1.48-1.48,1.48h-4.13c-0.48,0-0.87,0.39-0.87,0.87v9.29c0,1.2,0.98,2.19,2.19,2.19h3.26   c0.57,0,1.04,0.47,1.04,1.05v10.04c0,0.97-0.78,1.75-1.74,1.75h-4.75h-9.16c-4.72,0-8.54-3.84-8.54-8.57V59.35   c0-0.97,0.78-1.75,1.74-1.75H369.99z"
   id="path9" />
	<path
   class="st1"
   d="M383.09,69.71c-0.39,0-0.7-0.32-0.7-0.7v-9.66c0-0.97,0.78-1.75,1.74-1.75h14.11c0.96,0,1.74,0.78,1.74,1.75   v9.66c0,0.39-0.31,0.7-0.7,0.7H383.09z"
   id="path10" />
	<path
   class="st1"
   d="M382.39,73.03c0-0.39,0.31-0.7,0.7-0.7h16.2c0.39,0,0.7,0.31,0.7,0.7v35.57c0,0.97-0.78,1.75-1.74,1.75h-14.11   c-0.96,0-1.74-0.78-1.74-1.75V73.03z"
   id="path11" />
</g>
</svg>
