<svg xmlns="http://www.w3.org/2000/svg" xmlns:xlink="http://www.w3.org/1999/xlink" id="Camada_2" data-name="Camada 2" viewBox="0 0 305 82.25"><defs><style>      .cls-1 {        fill: url(#Gradiente_sem_nome_4);      }      .cls-2 {        fill: url(#Gradiente_sem_nome_9);      }      .cls-3 {        fill: #74716f;      }      .cls-4 {        fill: url(#Gradiente_sem_nome_4-2);      }    </style><linearGradient id="Gradiente_sem_nome_9" data-name="Gradiente sem nome 9" x1="19.58" y1="84.36" x2="68.24" y2=".08" gradientUnits="userSpaceOnUse"><stop offset="0" stop-color="#00943f"></stop><stop offset=".26" stop-color="#35a230"></stop><stop offset=".61" stop-color="#78b51d"></stop><stop offset=".87" stop-color="#a2c012"></stop><stop offset="1" stop-color="#b3c50e"></stop></linearGradient><linearGradient id="Gradiente_sem_nome_4" data-name="Gradiente sem nome 4" x1="37.59" y1="77.71" x2="49.78" y2="8.58" gradientUnits="userSpaceOnUse"><stop offset="0" stop-color="#000"></stop><stop offset=".4" stop-color="#1d1d1e"></stop><stop offset=".76" stop-color="#313131"></stop><stop offset="1" stop-color="#383839"></stop></linearGradient><linearGradient id="Gradiente_sem_nome_4-2" data-name="Gradiente sem nome 4" x1="139.03" y1="74.19" x2="149.85" y2="12.79" xlink:href="#Gradiente_sem_nome_4"></linearGradient></defs><g id="Camada_1-2" data-name="Camada 1"><g><g><path class="cls-2" d="m45.06,51.74l3.58-29.27c.51-3.34,2.16-6.42,4.63-8.66,2.59-2.35,5.92-3.64,9.37-3.64.02,0-.01.02,0,.02l.05-.02c7.22,0,14.23.88,20.91,2.55-.84-1.38-1.81-2.7-2.91-3.94C75.7,3.2,68.5,0,60.94,0c-6.4,0-12.58,2.3-17.39,6.47-2.34,2.03-4.27,4.42-5.74,7.09-1.42,2.58-2.38,5.38-2.85,8.3l-3.75,29.89-1.63,13.55c-.41,2.7-1.74,5.18-3.73,6.98-2.09,1.89-4.77,2.94-7.56,2.94h0c-.24,0-.48-.01-.72-.03-4.37-.04-8.65-.41-12.84-1.07.24.29.48.58.73.86,4.15,4.62,10.14,7.28,16.43,7.28h0c5.33,0,10.46-1.91,14.46-5.37,3.82-3.3,6.35-7.83,7.15-12.76l1.56-12.38Z"></path><path class="cls-1" d="m87.22,27.42c-.44,6.9-3.59,13.22-8.86,17.8-2.34,2.03-4.99,3.62-7.87,4.72-2.78,1.06-5.72,1.61-8.71,1.7h-14.5s1.53-12.24,1.53-12.24l.03-.21h14.26s0,0,0,0c3.29-.1,6.46-1.39,8.94-3.63,5.86-5.31,6.43-14.54,1.26-20.57-.82-.95-1.74-1.78-2.75-2.47,4.23.39,8.42,1.09,12.52,2.11l1.87.46c1.76,3.81,2.56,8.01,2.29,12.31ZM7.41,44.56C3.03,48.35.41,53.6.04,59.32c-.28,4.37.78,8.62,3.01,12.3l2.04.32c2.07.33,4.17.58,6.27.76-.59-.46-1.15-.99-1.65-1.57-4.17-4.86-3.71-12.3,1.02-16.59,2-1.81,4.57-2.77,7.23-2.86h11.07l.03-.28,1.53-12.2h-9.37c-5.08.15-9.98,2.05-13.8,5.35Z"></path></g><path class="cls-3" d="m204.42,26.74h5.32v10.68h8.98v4.98h-8.98v12.61c0,2.36.58,4.09,1.74,5.18,1.16,1.09,3.01,1.64,5.55,1.64h1.7v5.04h-1.76c-4.19,0-7.33-.91-9.42-2.73-2.09-1.82-3.13-4.56-3.13-8.22v-29.17Zm71.72,15.72h-2.3c-3.73,0-6.7.89-8.92,2.66-2.22,1.77-3.33,4.13-3.33,7.07s1.11,5.27,3.34,7.04c2.23,1.77,5.2,2.66,8.91,2.66h2.3v4.98h-2.66c-5.3,0-9.53-1.35-12.69-4.04-3.16-2.69-4.73-6.27-4.73-10.73,0-2.4.57-4.64,1.69-6.72,1.13-2.08,2.73-3.83,4.81-5.25,1.45-.96,3-1.65,4.63-2.07,1.63-.42,3.73-.63,6.29-.63h2.66v5.04Zm3.67,24.4V27.6h5.32v12.64c1.23-1.16,2.53-2.02,3.89-2.58,1.36-.56,2.81-.84,4.34-.84,3.69,0,6.55,1.21,8.59,3.63,2.04,2.42,3.06,5.83,3.06,10.24v16.18h-5.32v-17.02c0-2.52-.61-4.46-1.83-5.82-1.22-1.36-2.96-2.04-5.22-2.04s-4.02.82-5.41,2.46c-1.39,1.64-2.09,3.81-2.09,6.51v15.91h-5.32Zm-42.35-29.34c-8.33,0-15.09,6.57-15.09,14.67s6.76,14.67,15.09,14.67c6.21,0,11.55-3.65,13.86-8.87h-6.25c-1.74,2.38-4.5,3.92-7.61,3.92-4.76,0-8.71-3.61-9.41-8.32h24.43c.07-.6.07-.79.07-1.41,0-8.1-6.76-14.67-15.09-14.67Zm0,4.74c4.28,0,7.91,2.92,9.1,6.94h-18.2c1.2-4.02,4.82-6.94,9.1-6.94Z"></path><path class="cls-4" d="m177.52,31.29c1.11-1.13,2.74-1.68,4.96-1.68h11.61v-9.02h-10.62c-5.6,0-9.89,1.41-12.74,4.19-2.86,2.79-4.31,6.99-4.31,12.48v29.62h9.43v-15.94h15.62v-8.99h-15.62v-5.54c0-2.3.55-3.97,1.67-5.11Zm-75.61-6.51c-2.86,2.79-4.31,6.99-4.31,12.48v29.62h9.43v-15.94h15.62v-8.99h-15.62v-5.54c0-2.3.55-3.97,1.67-5.11,1.11-1.13,2.74-1.68,4.96-1.68h11.61v-9.02h-10.62c-5.6,0-9.89,1.41-12.73,4.19Zm55.23.42c-3.11-3.05-6.91-4.6-11.3-4.6-2.91,0-5.6.68-7.98,2.01-2.39,1.34-4.34,3.26-5.81,5.72-.84,1.42-1.45,3.04-1.81,4.81-.35,1.71-.52,3.97-.52,6.92v26.73h9.48v-14.93h6.33c4.64,0,8.55-1.49,11.63-4.43,3.1-2.96,4.67-6.71,4.67-11.14s-1.58-8.04-4.7-11.1Zm-6.86,15.71c-1.33,1.22-3.13,1.82-5.49,1.82h-5.58v-5.27c0-2.49.6-4.44,1.79-5.8,1.14-1.3,2.68-1.93,4.72-1.93,1.85,0,3.36.61,4.61,1.85,1.26,1.25,1.87,2.75,1.87,4.61,0,2-.63,3.55-1.92,4.73Z"></path></g></g></svg>