<svg width="159" height="42" viewBox="0 0 159 42" fill="none" xmlns="http://www.w3.org/2000/svg">
<g id="BENTELER Logo">
<g id="Group">
<g id="Group_2">
<path id="Vector" d="M61.2559 38.6384V32.885C61.2654 32.5005 61.2133 32.1169 61.1013 31.7478C61.0184 31.475 60.8701 31.2248 60.6685 31.0172C60.479 30.8343 60.2453 30.6997 59.9883 30.6256C59.7025 30.5429 59.4053 30.5022 59.1068 30.5051C58.8123 30.5027 58.5196 30.5486 58.2411 30.6406C57.988 30.7242 57.7444 30.8325 57.5143 30.9641C57.3158 31.0774 57.1269 31.2058 56.9496 31.3481C56.7896 31.4786 56.6685 31.5791 56.5863 31.6494C56.5364 31.4684 56.449 31.2991 56.3294 31.1515C56.2098 31.0039 56.0604 30.8812 55.8903 30.7908C55.5005 30.5909 55.0634 30.4923 54.6221 30.5046C54.3053 30.5024 53.9907 30.556 53.6939 30.6628C53.43 30.7567 53.1762 30.8752 52.9363 31.0167C52.6902 31.1689 52.4574 31.3402 52.2404 31.5289L51.9312 30.6554H50.5225V38.6384H52.2857V32.6137C52.465 32.4985 52.6507 32.3929 52.8422 32.2975C53.0241 32.2105 53.2128 32.1375 53.4066 32.079C53.614 32.0144 53.8305 31.9813 54.0485 31.981C54.2949 31.968 54.5397 32.0257 54.7521 32.1468C54.9223 32.2574 55.0074 32.5034 55.0074 32.8849V38.6384H56.7705V32.6137C56.9581 32.499 57.1517 32.3934 57.3505 32.2975C57.5355 32.2114 57.7268 32.1384 57.9228 32.079C58.1199 32.016 58.326 31.9829 58.5337 31.981C58.7801 31.968 59.025 32.0257 59.2374 32.1468C59.4075 32.2574 59.4925 32.5034 59.4924 32.8849V38.6384H61.2559ZM67.2086 36.846C67.0645 36.9629 66.9091 37.0663 66.7446 37.1548C66.583 37.2374 66.415 37.308 66.2421 37.3657C66.0458 37.4319 65.8391 37.4651 65.6311 37.4636C65.4829 37.4643 65.3351 37.4492 65.1904 37.4185C65.0534 37.3896 64.9275 37.3244 64.8269 37.2303C64.713 37.1178 64.6283 36.9811 64.5796 36.8311C64.5111 36.6166 64.4797 36.3926 64.4866 36.1683C64.4786 35.9219 64.5206 35.6763 64.6103 35.4454C64.6834 35.2661 64.8099 35.1115 64.9738 35.0012C65.1543 34.8877 65.3569 34.8108 65.5693 34.7754C65.8398 34.7267 66.1139 34.6991 66.3889 34.6925L67.2086 34.6774V36.846ZM68.9718 38.6384V33.0957C68.9891 32.6415 68.9129 32.1884 68.7476 31.7628C68.6196 31.4541 68.4087 31.1838 68.1366 30.9796C67.8685 30.7897 67.5592 30.661 67.2319 30.6031C66.8727 30.5365 66.5075 30.5038 66.1417 30.5052C65.8027 30.5045 65.4641 30.5273 65.1286 30.5733C64.8038 30.6187 64.5177 30.6689 64.2702 30.7239C64.0227 30.779 63.7495 30.8518 63.4505 30.9424V32.3431C63.4917 32.3327 63.5948 32.3041 63.7597 32.2575C63.9245 32.2108 64.123 32.1614 64.355 32.1091C64.587 32.0572 64.8345 32.0103 65.0976 31.9686C65.3454 31.9284 65.5962 31.9076 65.8476 31.9063C66.0388 31.905 66.2299 31.9151 66.4198 31.9366C66.5701 31.9523 66.7152 31.9989 66.8451 32.0733C66.9665 32.1478 67.0611 32.2566 67.1158 32.3848C67.1856 32.5668 67.2171 32.7603 67.2085 32.9542V33.6986H65.8321C65.4847 33.7001 65.138 33.7303 64.796 33.789C64.4391 33.8477 64.0976 33.9731 63.7907 34.158C63.4718 34.3535 63.2086 34.6228 63.0251 34.9412C62.8072 35.3476 62.7033 35.8019 62.7237 36.2589C62.7058 36.7065 62.7848 37.1528 62.9556 37.5694C63.0836 37.8658 63.2823 38.1289 63.5356 38.3374C63.758 38.5137 64.0201 38.6376 64.301 38.699C64.5597 38.757 64.8242 38.7873 65.0899 38.7893C65.4087 38.7943 65.7258 38.7432 66.0256 38.6384C66.2666 38.5543 66.4952 38.4404 66.7057 38.2995C66.9066 38.156 67.0907 37.9918 67.2546 37.8099L67.4559 38.6384H68.9718ZM73.0236 27.7942H71.2604V38.6384H73.0236V27.7942ZM77.8183 38.6384L75.0655 34.0145L77.5092 30.6558H75.421L73.2867 34.0748L75.8075 38.789L77.8183 38.6384ZM82.8274 34.0748H79.9042C79.8601 33.4431 79.9993 32.812 80.3064 32.2523C80.4351 32.0735 80.6095 31.9297 80.8127 31.8347C81.0158 31.7398 81.241 31.6969 81.4663 31.7102C81.6713 31.6984 81.8757 31.7422 82.0561 31.8367C82.2366 31.9312 82.3859 32.0726 82.4872 32.2448C82.7498 32.8202 82.8663 33.4473 82.8274 34.0748ZM84.544 34.647C84.5843 33.9338 84.5034 33.219 84.3043 32.5309C84.165 32.0637 83.9164 31.6335 83.5775 31.2734C83.3007 30.9884 82.9515 30.7781 82.5644 30.6632C82.2082 30.5599 81.8383 30.5067 81.4663 30.5051C81.0647 30.5065 80.6657 30.5675 80.2833 30.6859C79.875 30.813 79.5058 31.0355 79.2084 31.3336C78.8562 31.6975 78.5921 32.1321 78.4352 32.6063C78.2205 33.2661 78.1212 33.9558 78.1413 34.647C78.1129 35.3958 78.2256 36.1434 78.4738 36.8535C78.6476 37.3326 78.9426 37.7623 79.3321 38.1038C79.6681 38.3832 80.0728 38.575 80.5076 38.6611C80.9248 38.7447 81.3496 38.7874 81.7758 38.7888C82.0656 38.7893 82.3551 38.7691 82.6419 38.7285C82.9202 38.6882 83.165 38.643 83.3765 38.593C83.5879 38.543 83.8224 38.4778 84.0801 38.3972V36.9665C83.7822 37.0499 83.5177 37.1202 83.2867 37.1775C83.0557 37.2348 82.8065 37.2843 82.5392 37.326C82.2897 37.3662 82.0372 37.3871 81.7842 37.3884C81.5824 37.3867 81.3812 37.3664 81.1835 37.3277C80.9597 37.2837 80.7506 37.1872 80.5746 37.0468C80.3624 36.8705 80.1986 36.6466 80.0976 36.3948C79.9528 36.014 79.8873 35.6094 79.9049 35.2042H84.5294L84.544 34.647ZM90.981 35.4528C90.8975 35.2181 90.7719 34.9994 90.61 34.8065C90.4601 34.6302 90.2796 34.4803 90.0765 34.3633C89.8767 34.2487 89.6671 34.1505 89.4501 34.07L88.6613 33.7845C88.5273 33.7344 88.3958 33.6843 88.267 33.6342C88.1428 33.587 88.0257 33.5238 87.919 33.4464C87.818 33.3737 87.7338 33.2817 87.6717 33.176C87.6044 33.0482 87.5725 32.9058 87.5789 32.7626C87.5655 32.63 87.5919 32.4965 87.655 32.378C87.7181 32.2594 87.8151 32.1608 87.9346 32.0939C88.2331 31.9557 88.5626 31.8911 88.8934 31.9059C89.0982 31.9076 89.3025 31.9252 89.5044 31.9587C89.7258 31.994 89.9319 32.0317 90.1227 32.0716C90.3135 32.1114 90.5378 32.1667 90.7955 32.2374V30.8553C90.5894 30.7842 90.3934 30.7259 90.2077 30.6804C90.022 30.6348 89.808 30.5943 89.5659 30.5586C89.3073 30.5219 89.0463 30.5041 88.7849 30.5052C88.4097 30.5032 88.0356 30.5461 87.6713 30.6329C87.3401 30.7098 87.0276 30.8478 86.7511 31.0395C86.4839 31.2305 86.2689 31.4812 86.1248 31.7701C85.9617 32.1095 85.8823 32.4807 85.8928 32.8546C85.8845 33.1639 85.9424 33.4715 86.0629 33.7582C86.1639 33.9916 86.3109 34.2039 86.4958 34.3833C86.6616 34.5422 86.8488 34.6789 87.0523 34.7899C87.2324 34.8881 87.4182 34.9762 87.6088 35.0538L88.3358 35.34C88.4904 35.4002 88.6347 35.4579 88.7686 35.513C88.8928 35.5625 89.0077 35.6312 89.1088 35.7165C89.2129 35.804 89.2948 35.9133 89.3484 36.036C89.402 36.1587 89.4258 36.2915 89.418 36.4244C89.4267 36.5996 89.3867 36.7738 89.302 36.929C89.2291 37.0506 89.1219 37.1497 88.9929 37.215C88.8523 37.284 88.7007 37.3299 88.5444 37.3507C88.3678 37.3763 88.1894 37.3889 88.0108 37.3884C87.8134 37.3851 87.6167 37.3649 87.423 37.3281C87.1962 37.288 86.9797 37.2427 86.7736 37.1924C86.5674 37.142 86.3199 37.0768 86.031 36.9966V38.4426C86.2784 38.5128 86.5027 38.5705 86.704 38.6157C86.9053 38.6609 87.1269 38.701 87.3689 38.7362C87.607 38.7711 87.8474 38.7887 88.0882 38.789C88.4507 38.7888 88.8126 38.7612 89.1707 38.7063C89.5166 38.6567 89.8482 38.539 90.145 38.3608C90.4427 38.1759 90.6853 37.9195 90.8487 37.6167C91.0466 37.219 91.1396 36.7804 91.1196 36.3397C91.1259 36.0387 91.0795 35.7385 90.981 35.4528ZM98.219 30.6558H96.4558V38.6384H98.219V30.6558ZM98.1186 27.6736C98.0186 27.5712 97.8974 27.4901 97.7628 27.4356C97.6283 27.3811 97.4834 27.3544 97.3374 27.3572C97.1926 27.3539 97.0487 27.3805 96.9154 27.435C96.782 27.4896 96.6622 27.5709 96.5641 27.6736C96.3652 27.8835 96.2549 28.1575 96.2549 28.4417C96.2549 28.726 96.3652 28.9999 96.5641 29.2098C96.6622 29.3125 96.782 29.3938 96.9154 29.4484C97.0487 29.5029 97.1926 29.5294 97.3374 29.5261C97.4834 29.5289 97.6283 29.5023 97.7628 29.4478C97.8974 29.3933 98.0186 29.3122 98.1186 29.2098C98.3221 29.0022 98.4355 28.7274 98.4355 28.4417C98.4355 28.1561 98.3221 27.8813 98.1186 27.6736ZM104.925 38.4877V37.1171C104.709 37.1774 104.526 37.2226 104.376 37.2526C104.227 37.2826 104.069 37.3127 103.904 37.343C103.772 37.3696 103.637 37.3848 103.502 37.3883C103.332 37.3972 103.163 37.3579 103.015 37.2752C102.896 37.2 102.837 37.0168 102.837 36.7254V31.8757H104.507L104.693 30.6558H102.837V28.246L101.182 28.8635L101.074 30.6559H99.6815V31.8758H101.074V36.7106C101.062 37.068 101.114 37.4247 101.228 37.765C101.306 38.0003 101.447 38.2115 101.637 38.3769C101.827 38.5423 102.06 38.656 102.311 38.7063C102.575 38.7631 102.845 38.7909 103.115 38.7891C103.413 38.7891 103.711 38.7639 104.004 38.7137C104.229 38.6786 104.451 38.6309 104.669 38.5707C104.819 38.5254 104.904 38.4979 104.925 38.4877ZM117.437 38.6384V32.885C117.447 32.4994 117.39 32.1149 117.267 31.7478C117.173 31.4713 117.011 31.2206 116.795 31.0172C116.588 30.8334 116.339 30.6992 116.068 30.6256C115.764 30.5426 115.449 30.502 115.133 30.5051C114.79 30.5038 114.45 30.5598 114.127 30.6707C113.836 30.7689 113.555 30.8898 113.284 31.0323C113.005 31.1874 112.738 31.3637 112.488 31.5594V27.7941H110.725V38.6384H112.488V32.689C112.709 32.557 112.939 32.4388 113.176 32.3352C113.393 32.244 113.615 32.1635 113.841 32.0941C114.068 32.0212 114.305 31.9831 114.545 31.9811C114.833 31.9658 115.121 32.0229 115.38 32.1469C115.575 32.2574 115.673 32.5135 115.674 32.9151V38.6384H117.437ZM123.39 36.846C123.246 36.9628 123.09 37.0662 122.926 37.1548C122.764 37.2375 122.596 37.308 122.423 37.3657C122.227 37.432 122.02 37.4651 121.812 37.4636C121.664 37.4643 121.516 37.4492 121.372 37.4185C121.235 37.3896 121.109 37.3244 121.008 37.2303C120.894 37.1179 120.809 36.9811 120.761 36.8311C120.692 36.6165 120.661 36.3926 120.668 36.1683C120.66 35.9219 120.702 35.6763 120.792 35.4454C120.865 35.2661 120.991 35.1116 121.155 35.0012C121.335 34.8877 121.538 34.8108 121.75 34.7754C122.021 34.7268 122.295 34.6991 122.57 34.6925L123.39 34.6774L123.39 36.846ZM125.153 38.6384V33.0957C125.17 32.6414 125.094 32.1884 124.929 31.7628C124.801 31.4541 124.59 31.1838 124.318 30.9796C124.05 30.7897 123.74 30.6609 123.413 30.6031C123.054 30.5365 122.688 30.5037 122.323 30.5052C121.984 30.5045 121.645 30.5273 121.31 30.5733C120.985 30.6187 120.699 30.6689 120.451 30.7239C120.204 30.779 119.93 30.8518 119.632 30.9424V32.3431C119.673 32.3327 119.776 32.3041 119.941 32.2575C120.106 32.2108 120.304 32.1614 120.536 32.1091C120.768 32.0572 121.016 32.0103 121.278 31.9686C121.526 31.9284 121.777 31.9076 122.028 31.9063C122.22 31.905 122.411 31.9151 122.601 31.9366C122.751 31.9522 122.896 31.9988 123.026 32.0733C123.147 32.1478 123.242 32.2566 123.296 32.3848C123.366 32.5668 123.398 32.7603 123.389 32.9542V33.6986H122.013C121.665 33.7001 121.319 33.7303 120.977 33.789C120.62 33.8477 120.278 33.9731 119.971 34.158C119.652 34.3534 119.389 34.6227 119.206 34.9412C118.988 35.3476 118.884 35.8019 118.904 36.2589C118.886 36.7065 118.965 37.1528 119.136 37.5694C119.264 37.8658 119.463 38.1289 119.716 38.3374C119.939 38.5137 120.201 38.6376 120.482 38.699C120.74 38.757 121.005 38.7873 121.27 38.7893C121.589 38.7944 121.906 38.7434 122.206 38.6388C122.447 38.5547 122.676 38.4407 122.886 38.2999C123.087 38.1563 123.271 37.9922 123.435 37.8103L123.636 38.6388L125.153 38.6384ZM131.927 36.1381C131.856 36.4539 131.716 36.7516 131.517 37.0118C131.372 37.1956 131.173 37.3322 130.945 37.4034C130.742 37.4625 130.531 37.4929 130.319 37.4938C130.163 37.4938 130.008 37.4838 129.855 37.4636C129.7 37.4436 129.555 37.4186 129.422 37.3884C129.288 37.3582 129.175 37.328 129.081 37.298C128.989 37.2678 128.927 37.2479 128.896 37.2377V32.418C128.963 32.3588 129.035 32.3058 129.112 32.2597C129.231 32.1862 129.355 32.1208 129.483 32.0639C129.638 31.9951 129.798 31.9396 129.963 31.8982C130.14 31.8527 130.321 31.8298 130.504 31.8301C130.719 31.8285 130.932 31.8563 131.138 31.9128C131.344 31.9748 131.521 32.1023 131.641 32.2743C131.807 32.5262 131.918 32.8081 131.966 33.1028C132.054 33.5975 132.093 34.0993 132.082 34.6011C132.095 35.1173 132.043 35.6332 131.927 36.1373L131.927 36.1381ZM133.543 32.388C133.394 31.9288 133.138 31.5088 132.793 31.1603C132.52 30.8984 132.178 30.7135 131.803 30.6257C131.474 30.5491 131.137 30.5087 130.798 30.5052C130.541 30.5019 130.285 30.5401 130.04 30.6182C129.832 30.685 129.633 30.7734 129.445 30.8817C129.292 30.9696 129.149 31.0731 129.02 31.1905C128.933 31.269 128.85 31.3519 128.772 31.4389L128.494 30.6557H127.133V41.5H128.896V38.4426C128.955 38.477 129.017 38.5071 129.081 38.5329C129.194 38.5796 129.31 38.6173 129.429 38.6458C129.569 38.681 129.723 38.7136 129.893 38.7436C130.064 38.7739 130.238 38.789 130.411 38.7889C130.624 38.7871 130.835 38.7719 131.045 38.7436C131.3 38.7092 131.549 38.646 131.787 38.5554C132.058 38.4528 132.311 38.3106 132.538 38.1338C132.799 37.9264 133.022 37.6767 133.195 37.3959C133.412 37.0396 133.571 36.6536 133.667 36.2511C133.795 35.7103 133.854 35.1565 133.845 34.6019C133.872 33.8529 133.77 33.1048 133.543 32.388ZM139.665 36.1381C139.594 36.4539 139.454 36.7516 139.255 37.0118C139.11 37.1956 138.911 37.3322 138.683 37.4034C138.48 37.4625 138.269 37.4929 138.056 37.4938C137.901 37.4938 137.746 37.4838 137.592 37.4636C137.438 37.4436 137.293 37.4186 137.16 37.3884C137.026 37.3582 136.912 37.328 136.819 37.298C136.727 37.2678 136.665 37.2479 136.634 37.2377V32.418C136.701 32.3588 136.773 32.3058 136.85 32.2597C136.969 32.1862 137.093 32.1208 137.221 32.0639C137.376 31.9951 137.536 31.9396 137.701 31.8982C137.877 31.8527 138.059 31.8298 138.242 31.8301C138.456 31.8285 138.67 31.8563 138.876 31.9128C139.082 31.9748 139.259 32.1023 139.379 32.2743C139.545 32.5262 139.655 32.8081 139.704 33.1028C139.792 33.5975 139.831 34.0993 139.82 34.6011C139.833 35.1173 139.781 35.6332 139.665 36.1373L139.665 36.1381ZM141.281 32.388C141.132 31.9288 140.876 31.5088 140.531 31.1603C140.258 30.8983 139.916 30.7135 139.541 30.6257C139.212 30.5491 138.875 30.5087 138.536 30.5052C138.279 30.5019 138.023 30.5401 137.778 30.6182C137.571 30.685 137.371 30.7734 137.183 30.8817C137.03 30.9696 136.887 31.0731 136.758 31.1905C136.671 31.269 136.588 31.3519 136.51 31.4389L136.232 30.6557H134.871V41.5H136.634V38.4426C136.694 38.4769 136.756 38.5071 136.82 38.5329C136.932 38.5796 137.049 38.6173 137.167 38.6458C137.307 38.681 137.461 38.7136 137.631 38.7436C137.802 38.7739 137.976 38.789 138.15 38.7889C138.362 38.7871 138.574 38.7719 138.784 38.7436C139.038 38.7092 139.287 38.646 139.526 38.5554C139.797 38.4528 140.05 38.3106 140.276 38.1338C140.537 37.9264 140.76 37.6767 140.933 37.3959C141.15 37.0396 141.309 36.6536 141.405 36.2511C141.533 35.7103 141.593 35.1565 141.583 34.6019C141.61 33.8529 141.508 33.1048 141.281 32.388ZM147.867 34.0748H144.944C144.899 33.4431 145.039 32.812 145.346 32.2523C145.475 32.0735 145.649 31.9297 145.852 31.8347C146.055 31.7398 146.28 31.6969 146.506 31.7102C146.711 31.6984 146.915 31.7422 147.096 31.8367C147.276 31.9312 147.425 32.0726 147.527 32.2448C147.789 32.8202 147.906 33.4473 147.867 34.0748ZM149.584 34.647C149.624 33.9338 149.543 33.219 149.344 32.5309C149.204 32.0637 148.956 31.6335 148.617 31.2734C148.34 30.9884 147.991 30.7781 147.604 30.6632C147.248 30.56 146.878 30.5067 146.506 30.5051C146.104 30.5065 145.705 30.5675 145.323 30.6859C144.915 30.813 144.545 31.0355 144.248 31.3336C143.896 31.6974 143.631 32.1321 143.475 32.6063C143.26 33.2661 143.161 33.9558 143.181 34.647C143.152 35.3958 143.265 36.1434 143.513 36.8535C143.687 37.3325 143.982 37.7623 144.372 38.1038C144.708 38.3832 145.112 38.575 145.547 38.6611C145.964 38.7447 146.389 38.7874 146.815 38.7888C147.105 38.7892 147.394 38.7691 147.681 38.7285C147.959 38.6882 148.204 38.643 148.415 38.593C148.627 38.543 148.861 38.4778 149.119 38.3972V36.9665C148.821 37.0499 148.557 37.1202 148.325 37.1775C148.094 37.2348 147.845 37.2843 147.578 37.326C147.329 37.3662 147.076 37.3871 146.823 37.3884C146.621 37.3867 146.42 37.3664 146.222 37.3277C145.999 37.2836 145.79 37.1872 145.614 37.0468C145.401 36.8705 145.238 36.6466 145.137 36.3948C144.992 36.014 144.926 35.6094 144.944 35.2042H149.568L149.584 34.647ZM157.6 38.6384V32.885C157.611 32.4994 157.553 32.1149 157.43 31.7478C157.335 31.4697 157.173 31.2169 156.958 31.0097C156.754 30.8223 156.504 30.6876 156.231 30.6181C155.926 30.54 155.612 30.502 155.296 30.5051C154.941 30.5026 154.587 30.5586 154.252 30.6707C153.957 30.7682 153.672 30.8918 153.401 31.0398C153.123 31.1995 152.857 31.3782 152.605 31.5744L152.295 30.6557H150.888V38.6384H152.651V32.674C152.888 32.5336 153.102 32.4182 153.293 32.3277C153.504 32.2296 153.724 32.149 153.95 32.0866C154.196 32.0165 154.451 31.981 154.708 31.9811C154.858 31.9801 155.008 31.9902 155.156 32.0112C155.283 32.0288 155.404 32.0726 155.512 32.1394C155.618 32.2081 155.702 32.3048 155.752 32.418C155.816 32.5763 155.845 32.7455 155.837 32.9151V38.6384H157.6Z" fill="#004996"/>
<path id="Vector_2" d="M159 0.5H131.812L145.405 23.7214L159 0.5ZM146.496 16.5758L146.526 8.83519L153.295 5.10189L146.496 16.5758ZM137.527 5.1018L144.295 8.83511L144.324 16.5757L137.527 5.1018ZM152.303 3.37587L145.405 7.21678L138.708 3.37587H152.303Z" fill="#004996"/>
<path id="Vector_3" d="M12.0222 11.8572C13.1445 11.8065 14.2026 11.3381 14.9737 10.5506C15.7449 9.76317 16.169 8.71809 16.1568 7.63536V4.75958C16.1642 3.66207 15.725 2.60547 14.9334 1.81642C14.1418 1.02737 13.0609 0.568707 11.9225 0.538818H0V23.7602L12.5131 23.7503C13.6187 23.6786 14.6534 23.2006 15.404 22.415C16.1545 21.6295 16.5635 20.5962 16.5466 19.5285V16.0783C16.5423 15.5134 16.4212 14.955 16.1905 14.4356C15.9598 13.9162 15.624 13.4464 15.2028 13.0534C14.7816 12.6605 14.2835 12.3523 13.7374 12.147C13.1913 11.9416 12.6082 11.8431 12.0222 11.8572ZM10.8312 10.1316H5.31484V4.75983H10.8312V10.1316ZM11.2311 19.5384H5.31484V13.7769H11.2311L11.2311 19.5384Z" fill="#004996"/>
<path id="Vector_4" d="M123.187 11.8184C124.309 11.7678 125.367 11.2996 126.138 10.5122C126.91 9.72488 127.334 8.67989 127.322 7.59723V4.72127C127.329 3.62372 126.89 2.56708 126.098 1.77795C125.307 0.98882 124.226 0.530041 123.087 0.5L111.164 0.5V23.7212H116.48V13.7378H122.396V23.7212H127.711V16.0394C127.707 15.4745 127.586 14.9161 127.355 14.3968C127.124 13.8775 126.788 13.4077 126.367 13.0147C125.946 12.6218 125.448 12.3137 124.902 12.1083C124.356 11.9029 123.773 11.8043 123.187 11.8184ZM121.996 10.0925H116.48V4.72153H121.996V10.0925Z" fill="#004996"/>
<path id="Vector_5" d="M86.8741 23.7267C85.7198 23.7172 84.6162 23.2681 83.8041 22.4775C82.992 21.6868 82.5372 20.6188 82.5391 19.5062V0.506348H88.256V19.5062H93.9614V23.7267H86.8741Z" fill="#004996"/>
<path id="Vector_6" d="M55.9588 23.721V4.33086H51.0342V0.5H66.5994V4.33086H61.6748V23.721H55.9588Z" fill="#004996"/>
<path id="Vector_7" d="M33.5195 4.73862C33.5174 3.62601 33.972 2.55774 34.784 1.76688C35.596 0.976023 36.6996 0.526753 37.8541 0.51709H45.7422C46.8966 0.526775 48.0002 0.976055 48.8122 1.76691C49.6242 2.55777 50.0788 3.62602 50.0767 4.73862V23.7378H44.7513V4.34863H38.8452V23.7379H33.5195V4.73862Z" fill="#004996"/>
<path id="Vector_8" d="M22.689 23.7197C21.5348 23.7101 20.4313 23.2609 19.6193 22.4703C18.8073 21.6796 18.3526 20.6116 18.3545 19.4992V4.72973C18.3525 3.61718 18.8071 2.54901 19.6191 1.75822C20.4311 0.967431 21.5346 0.518208 22.689 0.508545H31.9486V4.72973H23.6693V10.1014H30.9576V13.7478H23.6693V19.509H31.9486V23.7295L22.689 23.7197Z" fill="#004996"/>
<path id="Vector_9" d="M71.9312 23.7197C70.7769 23.7101 69.6735 23.2609 68.8615 22.4703C68.0495 21.6796 67.5948 20.6116 67.5967 19.4992V4.72973C67.5947 3.61718 68.0492 2.54901 68.8613 1.75822C69.6733 0.967431 70.7768 0.518208 71.9312 0.508545H81.1907V4.72973H72.9121V10.1014H80.2004V13.7478H72.9122V19.509H81.1908V23.7295L71.9312 23.7197Z" fill="#004996"/>
<path id="Vector_10" d="M100.112 23.7197C98.9573 23.7103 97.8536 23.2612 97.0414 22.4705C96.2293 21.6799 95.7745 20.6117 95.7764 19.4992V4.72973C95.7743 3.61705 96.229 2.54876 97.0412 1.75795C97.8534 0.967141 98.9572 0.518007 100.112 0.508545H109.371V4.72973H101.092V10.1014H108.379V13.7478H101.092V19.509H109.371V23.7295L100.112 23.7197Z" fill="#004996"/>
</g>
</g>
</g>
</svg>
