<?xml version="1.0" encoding="UTF-8"?>
<svg xmlns:rdf="http://www.w3.org/1999/02/22-rdf-syntax-ns#" xmlns="http://www.w3.org/2000/svg" xmlns:cc="http://creativecommons.org/ns#" xmlns:dc="http://purl.org/dc/elements/1.1/" xmlns:svg="http://www.w3.org/2000/svg" xmlns:inkscape="http://www.inkscape.org/namespaces/inkscape" xmlns:sodipodi="http://sodipodi.sourceforge.net/DTD/sodipodi-0.dtd" xmlns:ns1="http://sozi.baierouge.fr" xmlns:xlink="http://www.w3.org/1999/xlink" id="svg3174" viewBox="0 0 1052.4 744.09" version="1.1"><script xmlns=""/>
  <g id="layer1" transform="translate(0 -308.27)">
    <g id="g5732" fill-opacity=".97029" transform="matrix(9.8719 0 0 9.8719 -503.34 -22.808)">
      <path id="rect3013" opacity=".99" d="m66.276 36.463c2.3225-0.007 3.5255 0.0113 5.8074 0.0113l-2.9526 3.062-2.8116 2.9453c-0.02471-2.4406-0.06938-3.9576-0.0433-6.0186z" fill="#22002b"/>
      <path id="path3016" opacity=".99" d="m69.474 39.655 3.125-3.1696h16.607v31.786h-22.857v-25.357z" fill="#b380ff"/>
    </g>
    <g id="g5724" transform="matrix(10.457 0 0 9.8719 -569.83 -22.808)">
      <path id="path4067" opacity=".99" d="m116.13 36.993c2.3225-0.007 3.5255 0.0113 5.8074 0.0113l-2.9526 3.062-2.8116 2.9453c-0.0247-2.4406-0.0694-3.9576-0.0433-6.0186z" fill="#22002b" fill-opacity=".96078"/>
      <path id="path4069" opacity=".99" d="m119.32 40.185 3.125-3.1696h16.607v31.786h-22.857v-25.357z" fill="#37c8ab" fill-opacity=".9451"/>
      <path id="path4073" opacity=".99" d="m90.125 132.74c0 3.2447-2.6303 5.875-5.875 5.875s-5.875-2.6303-5.875-5.875 2.6303-5.875 5.875-5.875 5.875 2.6303 5.875 5.875z" fill-opacity=".97029" transform="matrix(.85578 0 0 .85578 64.23 -49.376)" fill="#fff"/>
      <path id="path4075" opacity=".99" d="m90.125 132.74c0 3.2447-2.6303 5.875-5.875 5.875s-5.875-2.6303-5.875-5.875 2.6303-5.875 5.875-5.875 5.875 2.6303 5.875 5.875z" fill-opacity=".95294" transform="matrix(.85578 0 0 .85578 64.545 -49.324)" fill="#22002b"/>
      <text id="text4077" style="word-spacing:0px;letter-spacing:0px" font-weight="bold" xml:space="preserve" font-size="65.87px" line-height="125%" y="67.129601" font-style="italic" x="132.42961" font-family="URW Chancery L" fill="#ffffff">
        <tspan id="tspan4079" y="67.129601" x="132.42961" font-size="13.174px" fill="#ffffff">+</tspan>
      </text>
    </g>
    <g id="g3235" transform="matrix(1.7467 0 0 1.7467 -887.78 -169.7)">
      <g id="g5716" transform="matrix(6.0601 0 0 6.0601 -412.56 263.16)">
        <path id="path4083" opacity=".99" d="m166.13 37.993c2.3225-0.007 3.5255 0.0113 5.8074 0.0113l-2.9526 3.062-2.8116 2.9453c-0.0247-2.4406-0.0694-3.9576-0.0433-6.0186z" fill="#22002b" fill-opacity=".95294"/>
        <path id="path4085" opacity=".99" d="m169.32 41.185 3.125-3.1696h16.607v31.786h-22.857v-25.357z" fill="#2ad4ff" fill-opacity=".95294"/>
        <path id="path4089" opacity=".99" d="m90.125 132.74c0 3.2447-2.6303 5.875-5.875 5.875s-5.875-2.6303-5.875-5.875 2.6303-5.875 5.875-5.875 5.875 2.6303 5.875 5.875z" fill-opacity=".97029" transform="matrix(.85578 0 0 .85578 114.23 -48.376)" fill="#fff"/>
        <path id="path4091" opacity=".99" d="m90.125 132.74c0 3.2447-2.6303 5.875-5.875 5.875s-5.875-2.6303-5.875-5.875 2.6303-5.875 5.875-5.875 5.875 2.6303 5.875 5.875z" fill-opacity=".9451" transform="matrix(.85578 0 0 .85578 114.54 -48.324)" fill="#22002b"/>
        <text id="text4093" style="word-spacing:0px;letter-spacing:0px" font-weight="bold" xml:space="preserve" font-size="65.87px" line-height="125%" y="68.656998" font-style="italic" x="184.29045" font-family="URW Chancery L" fill="#ffffff">
          <tspan id="tspan4095" font-size="13.174px" font-weight="normal" font-style="normal" y="68.656998" x="184.29045" font-family="Arial" fill="#ffffff">-</tspan>
        </text>
      </g>
      <g id="g5708" transform="matrix(6.0601 0 0 6.0601 -412.56 263.16)">
        <path id="path4099" opacity=".99" d="m213.13 36.993c2.3225-0.007 3.5255 0.0113 5.8074 0.0113l-2.9526 3.062-2.8116 2.9453c-0.0247-2.4406-0.0694-3.9576-0.0433-6.0186z" fill="#0b2822" fill-opacity=".97029"/>
        <path id="path4101" opacity=".99" d="m216.32 40.185 3.125-3.1696h16.607v31.786h-22.857v-25.357z" fill="#de87cd" fill-opacity=".9451"/>
        <path id="path4105" opacity=".99" d="m90.125 132.74c0 3.2447-2.6303 5.875-5.875 5.875s-5.875-2.6303-5.875-5.875 2.6303-5.875 5.875-5.875 5.875 2.6303 5.875 5.875z" fill-opacity=".97029" transform="matrix(.85578 0 0 .85578 161.23 -49.376)" fill="#fff"/>
        <path id="path4107" opacity=".99" d="m90.125 132.74c0 3.2447-2.6303 5.875-5.875 5.875s-5.875-2.6303-5.875-5.875 2.6303-5.875 5.875-5.875 5.875 2.6303 5.875 5.875z" fill-opacity=".96078" transform="matrix(.85578 0 0 .85578 161.54 -49.324)" fill="#0b2822"/>
        <text id="text4109" style="word-spacing:0px;letter-spacing:0px" xml:space="preserve" font-size="28.251px" line-height="125%" y="66.311752" x="231.55643" font-family="Arial" fill="#ffffff">
          <tspan id="tspan4111" font-size="5.6501px" y="66.311752" x="231.55643" font-family="Arial" fill="#ffffff">X</tspan>
        </text>
      </g>
    </g>
  </g>
  <metadata>
    <rdf:RDF>
      <cc:Work>
        <dc:format>image/svg+xml</dc:format>
        <dc:type rdf:resource="http://purl.org/dc/dcmitype/StillImage"/>
        <cc:license rdf:resource="http://creativecommons.org/licenses/publicdomain/"/>
        <dc:publisher>
          <cc:Agent rdf:about="http://openclipart.org/">
            <dc:title>Openclipart</dc:title>
          </cc:Agent>
        </dc:publisher>
        <dc:title>Files, Add File, Delete File, Duplicate Files</dc:title>
        <dc:date>2013-10-14T16:50:55</dc:date>
        <dc:description>Files, Folders, Add File, Delete File, Duplicate Files</dc:description>
        <dc:source>https://openclipart.org/detail/184903/files-add-file-delete-file-duplicate-files-by-nekolus-184903</dc:source>
        <dc:creator>
          <cc:Agent>
            <dc:title>nekolus</dc:title>
          </cc:Agent>
        </dc:creator>
        <dc:subject>
          <rdf:Bag>
            <rdf:li>Add File</rdf:li>
            <rdf:li>Delete File</rdf:li>
            <rdf:li>Duplicate Files</rdf:li>
            <rdf:li>Files</rdf:li>
            <rdf:li>Folders</rdf:li>
          </rdf:Bag>
        </dc:subject>
      </cc:Work>
      <cc:License rdf:about="http://creativecommons.org/licenses/publicdomain/">
        <cc:permits rdf:resource="http://creativecommons.org/ns#Reproduction"/>
        <cc:permits rdf:resource="http://creativecommons.org/ns#Distribution"/>
        <cc:permits rdf:resource="http://creativecommons.org/ns#DerivativeWorks"/>
      </cc:License>
    </rdf:RDF>
  </metadata>
</svg>