<svg xmlns="http://www.w3.org/2000/svg" width="488.069" height="60" viewBox="0 0 488.069 60"><defs><style>.a{fill:#fff;}.b{fill:#36302c;}</style></defs><g transform="translate(0)"><path class="a" d="M952.293,3388.043c-17.671.258-31.134,19.689-13.872,37.329l4.6,12.108c.764,2.768-1.827,8.86-.68,10.56,1.321-2.611,1.654-6.345,3.4-6.776,3.072,2.169,7.617,2.905,10.185,5.7.96-2.711-2.933-4.1-6.194-5.649,3.047.508,5.155-1.143,7.411,1.514a3.1,3.1,0,0,0-.967-3.2l-1.378-1.883c2.548,1.353,8.89,1.344,10.346,3.714.564-4.484-4.769-2.953-7.286-4.294,1.633.2,3.255-.61,4.869-.387-.432-1.258-1.175-1.8-2.273-1.707-8.657,2.063-9.266-12.555-9.147-16.7,11.621-4.928,23.357,3.913,32.7-4.576,3.061-4.571,15.694,7.367,19.583,17.477,5.815-2.458-10.775-18.514-15.592-22.862,2.516-6.686-7.288-16.42-16.147-12.126-6.233-5.917-13.174-8.33-19.565-8.237Z" transform="translate(-930.417 -3388.041)"/><g transform="translate(44.709 12.538)"><ellipse class="b" cx="3.471" cy="3.683" rx="3.471" ry="3.683"/></g><g transform="translate(47.424 16.144)"><ellipse class="a" cx="2.28" cy="2.42" rx="2.28" ry="2.42"/></g><g transform="translate(94.13 9.174)"><g transform="translate(0 33.773)"><path class="a" d="M1401.275,3613.927a1.165,1.165,0,0,1-1.166-1.146l-.126-8.736a1.181,1.181,0,0,1,0-.165,1.165,1.165,0,0,1,1.157-1.07l8.58-.034h0a1.164,1.164,0,0,1,1.165,1.2l-.287,8.59a1.165,1.165,0,0,1-1.132,1.124l-8.165.235Zm1.056-8.8.093,6.435,5.887-.169.211-6.292Z" transform="translate(-1399.981 -3602.775)"/></g><g transform="translate(0.001 16.886)"><path class="a" d="M1411.163,3527.315a.867.867,0,0,1-.263.638l-1.28,1.277a.91.91,0,0,1-1.279,0l-2.766-2.76-2.766,2.76a.91.91,0,0,1-1.279,0l-1.28-1.277a.9.9,0,0,1,0-1.276l2.766-2.76-2.766-2.76a.905.905,0,0,1,0-1.277l1.28-1.277a.91.91,0,0,1,1.279,0l2.766,2.76,2.766-2.76a.91.91,0,0,1,1.279,0l1.28,1.277a.905.905,0,0,1,0,1.277l-2.766,2.76,2.766,2.76A.867.867,0,0,1,1411.163,3527.315Z" transform="translate(-1399.985 -3518.341)"/></g><g transform="translate(0)"><path class="a" d="M1414.565,3436.089a.868.868,0,0,1-.263.638l-6.812,6.8-1.279,1.277a.91.91,0,0,1-1.28,0l-1.28-1.277-3.406-3.4a.905.905,0,0,1,0-1.277l1.28-1.277a.91.91,0,0,1,1.279,0l2.767,2.769,6.172-6.167a.91.91,0,0,1,1.279,0l1.28,1.276a.868.868,0,0,1,.263.638Z" transform="translate(-1399.981 -3433.911)"/></g></g></g><g transform="translate(125.671 4.337)"><path class="a" d="M1604.337,3457.791h-11.558l-18.323-18.312h-5.732v-8.187h5.732l18.323-18.312h11.558l-23.084,22.406Zm-38.871,0h-8.144v-44.812h8.144Zm51.337-40.719h-8.144v-7.344h8.144Zm0,40.719h-8.144v-33.781h8.144Zm63.553-33.781q-1.942,4.344-4.2,8.547t-4.715,7.953a85.366,85.366,0,0,1-5.026,6.921,49.62,49.62,0,0,1-5.09,5.469,25.3,25.3,0,0,1-4.918,3.594,9.547,9.547,0,0,1-4.525,1.3,4.174,4.174,0,0,1-2.944-1.172,3.858,3.858,0,0,1-.877-1.3,4.178,4.178,0,0,1-.313-1.625v-15.156l-16.162,18.031a4.1,4.1,0,0,1-1.363.922,4.095,4.095,0,0,1-3.1-.015,4.216,4.216,0,0,1-1.3-.86,4.061,4.061,0,0,1-.893-1.3,4,4,0,0,1-.329-1.625v-29.687h8.144v19.25l16.225-18.094a4,4,0,0,1,4.448-.844,3.9,3.9,0,0,1,1.832,1.484,3.958,3.958,0,0,1,.673,2.234v19.313a45.693,45.693,0,0,0,4.761-5.344q2.13-2.812,3.962-5.8t3.444-6.062q1.613-3.078,3.147-6.14Zm11.088-6.937H1683.3v-7.344h8.144Zm0,40.719H1683.3v-33.781h8.144Zm69.473-36.687h-17.948v36.688h-8.144V3421.1h-17.979v-8.125h44.07Zm46.2,36.688h-29.38a12.184,12.184,0,0,1-2.427-.266,12.5,12.5,0,0,1-2.568-.828,11.88,11.88,0,0,1-2.427-1.453,9.871,9.871,0,0,1-2.052-2.156,10.686,10.686,0,0,1-1.425-2.937,12.388,12.388,0,0,1-.532-3.766v-22a12.092,12.092,0,0,1,.266-2.422,12.434,12.434,0,0,1,.83-2.562,11.477,11.477,0,0,1,1.472-2.422,10.185,10.185,0,0,1,2.177-2.047,10.767,10.767,0,0,1,2.929-1.422,12.324,12.324,0,0,1,3.759-.531h29.38v8.125h-29.38a3.312,3.312,0,0,0-2.443.844,3.389,3.389,0,0,0-.846,2.5v21.937a2.994,2.994,0,0,0,3.289,3.282h29.38Zm59.982,0h-8.206V3431.1l-14.44,25.344a3.543,3.543,0,0,1-1.488,1.469,4.361,4.361,0,0,1-2.052.5,4.118,4.118,0,0,1-1.989-.5,3.6,3.6,0,0,1-1.457-1.469l-14.5-25.344v26.688h-8.144v-41.344a4.078,4.078,0,0,1,3.007-3.969,4.32,4.32,0,0,1,1.316-.109,4.393,4.393,0,0,1,1.269.281,3.869,3.869,0,0,1,1.112.656,3.817,3.817,0,0,1,.846,1.016l18.543,32.156,18.543-32.156a3.984,3.984,0,0,1,1.989-1.687,4.248,4.248,0,0,1,2.646-.156,4.082,4.082,0,0,1,2.162,1.469,3.976,3.976,0,0,1,.846,2.5Zm52.621-13.187a14.266,14.266,0,0,1-.611,4.328,12.907,12.907,0,0,1-1.613,3.391,10.749,10.749,0,0,1-2.349,2.5,14.428,14.428,0,0,1-2.788,1.688,13.982,13.982,0,0,1-2.928.969,13.685,13.685,0,0,1-2.8.313h-31.416v-8.125h31.416a4.778,4.778,0,0,0,3.648-1.375,5.152,5.152,0,0,0,1.3-3.687,5.937,5.937,0,0,0-.345-2.062,4.755,4.755,0,0,0-.987-1.625,4.352,4.352,0,0,0-1.566-1.062,5.418,5.418,0,0,0-2.052-.375H1887.9a14.536,14.536,0,0,1-4.26-.7,12.778,12.778,0,0,1-4.244-2.266,12.367,12.367,0,0,1-3.258-4.094,15.34,15.34,0,0,1,0-12.359,12.479,12.479,0,0,1,7.5-6.375,14.536,14.536,0,0,1,4.26-.7h27.721v8.125H1887.9a4.683,4.683,0,0,0-3.618,1.406,5.261,5.261,0,0,0-1.3,3.719,5.136,5.136,0,0,0,1.3,3.7,4.77,4.77,0,0,0,3.618,1.36h18.793a14.409,14.409,0,0,1,2.788.36,14.167,14.167,0,0,1,5.7,2.75,11.718,11.718,0,0,1,2.333,2.516,12.326,12.326,0,0,1,1.613,3.374A14.453,14.453,0,0,1,1919.719,3444.6Z" transform="translate(-1557.322 -3409.728)"/></g></svg>