<?xml version="1.0"?>
<svg width="298" height="298" xmlns="http://www.w3.org/2000/svg" xmlns:svg="http://www.w3.org/2000/svg" version="1.2">
 <title>Logo_CleverIT_RGB-ai</title>
 <style>.s0 { fill: #ff3333 } 
		.s1 { fill: #ff3333 }</style>
 <g class="layer">
  <title>Layer 1</title>
  <path class="s1" d="m175.2,189.3c11.3,-3.3 22.8,-3.6 34.3,-1.2c6.6,1.3 19.3,3.2 19,12.5c-0.3,8.8 -50.8,52.7 -59.3,55.7c-16.5,6 -47.1,-2.3 -63.2,-8.6c-10.8,-4.2 -8.9,-11.5 -10.7,-22.4c-1.6,-9.9 10.6,-13.8 17.8,-16c13.7,-4.3 27.4,-8.7 41,-13c7,-2.2 14,-4.9 21.1,-7zm83,-56.9c0,-20.3 -16.2,-36.8 -36.1,-36.8c-20,0 -36.1,16.5 -36.1,36.8c0,20.3 16.1,36.8 36.1,36.8c19.9,0 36.1,-16.5 36.1,-36.8zm-201.2,-50.1c-0.5,2.8 -0.8,5.6 -1.1,8.3c-1.6,17.2 -1.5,33.2 -2.2,50.5c-0.4,9.8 -0.9,20 1.8,29.5c11.4,39.6 74.2,13.9 85.5,9.4c11.3,-4.5 18.5,-7 23.9,-16c5.6,-9.4 5.9,-23 5.9,-33.1c0,-10.1 1.4,-24.7 -2.6,-36.9c-4.7,-14.8 -23.4,-22 -35.6,-28.4c-15.4,-8 -37.2,-16.1 -50.5,-14.3c-16.6,2.2 -22.7,16.5 -25.1,31z" fill-rule="evenodd" id="svg_8"/>
 </g>
</svg>