<?xml version="1.0" encoding="UTF-8" standalone="no"?>
<svg
   viewBox="0 0 198 42"
   version="1.1"
   id="svg2"
   sodipodi:docname="ru.svg"
   inkscape:export-filename="ru.png"
   inkscape:export-xdpi="342.85999"
   inkscape:export-ydpi="342.85999"
   inkscape:version="1.4.2 (ebf0e940d0, 2025-05-08)"
   xmlns:inkscape="http://www.inkscape.org/namespaces/inkscape"
   xmlns:sodipodi="http://sodipodi.sourceforge.net/DTD/sodipodi-0.dtd"
   xmlns="http://www.w3.org/2000/svg"
   xmlns:svg="http://www.w3.org/2000/svg">
  <defs
     id="defs2" />
  <sodipodi:namedview
     id="namedview2"
     pagecolor="#ffffff"
     bordercolor="#666666"
     borderopacity="1.0"
     inkscape:showpageshadow="2"
     inkscape:pageopacity="0.0"
     inkscape:pagecheckerboard="0"
     inkscape:deskcolor="#d1d1d1"
     inkscape:zoom="6.6111111"
     inkscape:cx="165.93277"
     inkscape:cy="21.02521"
     inkscape:window-width="1415"
     inkscape:window-height="869"
     inkscape:window-x="0"
     inkscape:window-y="0"
     inkscape:window-maximized="1"
     inkscape:current-layer="svg2" />
  <g
     fill="none"
     fill-rule="evenodd"
     id="g2">
    <path
       fill="#222"
       d="m179.03 38.65.562.054 1.635 2.096-.173-1.741-.15-.102.013-.147.632-.004-.01.11-.09.155.221 2.732-.402.002-1.717-2.18-.11 1.707.141.153-.014.231-.818-.01v-.166l.208-.095.198-2.478-.108-.146-.018-.17Zm-1.526-.258.964.175-.016.212-.236.011-.494 2.477.231.173-.011.12-1.05-.232.068-.131.255-.073.49-2.39-.242-.177.041-.165Zm6.838-.09.167.651-.132.084c-.218-.265-.553-.345-.883-.276-.485.127-.789.704-.618 1.177l1.456-.331.12-.263.143-.038.161.68-.151.033-.15-.094-1.434.341c.026.546.581.958 1.142.844.363-.06.774-.457.74-.919l.108.006.214.654c-.28.363-.544.538-1 .636-.882.19-1.68-.01-1.944-1.117-.38-1.207.39-1.686 1.297-1.95.28-.077.468-.081.764-.119ZM174.32 37.05l.507.216-.08 1.853 1.045-1.217-.053-.094.089-.067.734.296-.01.19-.13.062-.33 2.518.181.206-.049.15-.861-.382.05-.182.156-.038.237-1.986-1.529 1.825-.308-.1.21-2.29-1.24 1.486.11.208-.047.112-.678-.403.077-.167.237.018 1.633-1.862-.08-.199.13-.153Zm14.365-.897s-.15.228-.203.387c-.033.092-.043.253-.043.253s-.231.047-.351.08c-.308.093-.757.393-.898.49l-.044.03.408.856s.587-.2.819-.422c.104-.098.243-.283.243-.283l.294.597s-.243-.002-.396.032c-.306.068-.79.412-.79.412l.58 1.175.212.032.082.098-.81.44-.102-.138.055-.198-1.147-2.275-.237.002-.05-.177Zm-2.394 3.075c.069.18 0 .39-.184.479-.177.08-.385-.006-.48-.183a.357.357 0 0 1 .193-.47.353.353 0 0 1 .471.174Zm-14.647-3.658c.428-.045.79.039 1.095.304l.04.03.015.013.018.012.02.021.038.046c.277.286.364.65.342 1.075l-.02.167c-.066.386-.27.747-.58 1.007-.597.498-1.4.522-2.016.008l-.018-.012c-.577-.573-.583-1.366-.094-1.98a1.61 1.61 0 0 1 1.16-.691Zm18.662-.75.463.49-.067.137c-.332-.122-.66-.032-.91.194-.385.334-.372.973.015 1.295l1.14-.975-.031-.283.098-.104.475.471-.108.1h-.18l-1.147 1.064c.287.485.995.593 1.425.179.279-.238.416-.8.246-1.237l.1-.047.443.522c-.05.465-.204.742-.551 1.056-.681.642-1.492.83-2.297-.022-.851-.91-.41-1.715.277-2.364.198-.197.365-.297.609-.475Zm-17.842 1.311c-.502-.455-1.138.216-1.315.394-.21.222-.49.66-.487.988a.45.45 0 0 0 .199.376l.037.048c.14.131.289.184.455.182.393-.01.772-.367.872-.469.141-.151.799-.975.314-1.45Zm9.56-36.13v1.58h1.604V3.93a6.988 6.988 0 0 1 2.695 1.97c.95.29 1.307 1.04 1.307 1.75v2.574h2.797l.133.378c.346 1.027.477 2.15.477 3.374 0 3.786-1.395 8.216-2.777 11.672-2.082 5.218-4.852 9.946-6.318 11.52-.333.342-.612.64-1.08.66-.009.004-.017 0-.03 0-.008 0-.022.004-.032 0-.451-.02-.726-.318-1.068-.66-1.43-1.574-4.178-6.302-6.256-11.52-1.37-3.456-2.772-7.886-2.772-11.672 0-1.224.15-2.347.487-3.374l.12-.378h2.787V7.65c0-.71.36-1.46 1.297-1.751.663-.834 1.62-1.529 2.68-1.97V1.58h1.571V0h2.379Zm-12.281 32.716.35.48-.554 2.522 1.242-1.262-.018-.172.118-.096.414.488-.09.06-.169.03-1.978 1.97-.269-.305.571-2.683-1.4 1.003-.019.216-.178.143-.523-.679.122-.108.196.102 2.03-1.41.03-.178.125-.121ZM182.2 21.146h-2.728v3.664h-5.14c.055.141.114.279.169.422.283.726.593 1.433.91 2.143h4.061v7.648c.407.587.77 1.062 1.068 1.386.088.088.212.224.29.288.089-.064.224-.2.309-.288.296-.324.655-.799 1.061-1.386v-7.648h4.112c.32-.71.626-1.417.92-2.143.057-.143.116-.28.167-.422H182.2v-3.664Zm9.132 12.43.174.119-.082.206 1.943 1.615s.573-.499.638-.915c.027-.21-.047-.553-.047-.553l.214-.216.322.826-1.5 1.716-.084-.12.04-.222-1.89-1.58-.219.096-.178-.125.669-.846Zm1.184-1.944.194.085-.043.182 2.306 1.262.226-.131.117.004-.536.95-.1-.103-.017-.231-2.145-1.205-.218.131-.147-.074.363-.87Zm-14.11-3.15h-2.521a58.738 58.738 0 0 0 2.522 4.806v-4.806Zm7.415 0h-2.518v4.806c.803-1.358 1.67-3.014 2.518-4.806Zm-17.262 3.914a.357.357 0 0 1-.179.467.351.351 0 0 1-.469-.183c-.082-.182-.01-.388.12-.469.159-.082.393.002.528.185Zm-.138-2.13.436.895-.204.096-.12-.147-2.34 1.036.058.263-.108.063-.499-.997.14-.022.205.153 2.295-1.003-.002-.276.14-.061Zm25.358-1.437.645.247-.049.175c-.34.018-.585.173-.734.477-.241.483.138.916.583 1.268.448.34 1.421.192 1.674-.31.157-.338.067-.84-.26-1.176l.107-.116.587.271c.12.479.1.82-.106 1.262-.422.82-1.036 1.368-2.198.89-1.133-.511-1.007-1.445-.628-2.319.118-.269.233-.416.379-.669Zm-25.625.18c.074.267.078.46.123.75l-.634.177-.086-.128a.879.879 0 0 0 .247-.881.878.878 0 0 0-1.154-.585l.334 1.45.259.106.045.14-.677.174-.043-.141.098-.151-.369-1.458c-.565.031-.981.614-.86 1.164.08.353.503.753.968.8v.11l-.67.138c-.378-.258-.557-.53-.67-.978-.216-.867 0-1.68 1.136-1.996 1.199-.375 1.696.403 1.953 1.31Zm25.751-1.548.212.017.024.187 2.494.44.183-.215.121.01-.2 1.06-.137-.057-.085-.226-2.433-.418-.157.19-.157-.017.135-.971Zm-.062-3.729.806.513a.488.488 0 0 0-.198.086c-.084.086-.084.438-.1.964l2.589-.034.05-.114.132.006.004.927h-.072l-.116-.218-2.565.043c.004.279-.04.695.039.758.031.025.08.058.147.08l-.675.45.141-.468.014-2.353-.196-.64Zm-29.103.256.17.214 2.554.07.089-.207.204-.002-.098 1.356c-.061.803-.505 1.668-1.421 1.72-.978.001-1.702-.866-1.665-1.583V23.99l.167-.002Zm.204.88s-.035.115-.006.57c.034.483.617 1.055 1.315 1.039.497-.051.917-.51.986-.852.064-.288.04-.422.047-.68Zm13.463-3.722h-5.329c.247.826.514 1.684.84 2.563h4.489v-2.563Zm10.268 0h-5.372v2.563h4.512c.322-.88.607-1.737.86-2.563Zm7.306-.594c.376.28.543.54.645.99.22.88-.017 1.689-1.13 1.989-1.17.363-1.702-.41-1.945-1.32-.079-.266-.083-.46-.128-.757l.642-.172.083.133c-.254.216-.338.556-.256.883.12.495.68.78 1.152.597l-.323-1.458-.271-.112-.036-.143.69-.187.029.124-.096.188.367 1.466c.565-.015.989-.604.869-1.164-.07-.357-.502-.745-.966-.798v-.114l.674-.145Zm-29.435 2.503c.095.18 0 .39-.166.518a.367.367 0 0 1-.475-.177c-.08-.176 0-.39.182-.47.177-.073.389-.024.46.129Zm-.634-4.011.167.05.016.219 2.275.905.162-.073.179.043-.222.557-2.418.92 1.69.364.134-.1.14.041-.172.614-.098-.047-.118-.127-2.698-.597.115-.388 2.583-.992-1.615-.63-.196.1-.208-.076.284-.783Zm28.459-2.207c.377.314.524.437.636.91.06.33-.092.981-.09 1.562l.759-.374.328.67-.126.038-.163-.106-2.265 1.168-.053.14-.217.091-.634-1.47c-.285-.598.078-1.262.716-1.43.514-.15.997.015 1.215.428.098-.403.11-.662.01-1.064-.073-.289-.116-.285-.228-.48Zm.214 2.657c-.092-.5-.48-1.123-1.13-.948-.784.198-.623 1.083-.334 1.686Zm-11.545-2.168 5.945 2.717.152-.588c.097-.385.185-.759.266-1.136-1.24-.192-4.273-.67-6.363-.993Zm-.567.942 1.178 1.775h2.584l-3.762-1.775Zm-1.08.38v1.395h.927l-.926-1.396Zm-1.112 0-.925 1.395h.925v-1.396Zm-1.058-.38-3.73 1.775h2.554l1.176-1.775Zm-.555-.942c-2.096.322-5.103.801-6.328.993.12.566.257 1.125.42 1.724Zm-12.037.268.11.1.024.236 2.162 1.158.206-.15.15.07-.41.875-.205-.08.047-.191-2.26-1.162-.213.18-.121-.039.51-.997Zm14.2-4.695h-.046c-.021 0-.037.006-.06.011-.564.044-.656.436-.656.436s.182.085.337.367c.044.089.09.187.116.297.012.074.026.157.026.263 0 .822-.713 1.299-1.05 1.473l-.198.114s-.964-.38-1.239-.484c-.954-.381-1.354-.548-1.354-1.001v-.034c0-.561.387-.748.636-.905.106-.078.086-.266.01-.337-.051-.055-.15-.175-1.302-.175h-4.188c-.023.338-.04.668-.04 1.025 0 .99.101 2.098.303 3.291l7.005-1.107a1.95 1.95 0 0 0-.138.705c0 1.007.778 1.819 1.779 1.819l.056-.002.065.002a1.817 1.817 0 0 0 1.682-2.524l7.04 1.107c.206-1.193.316-2.3.316-3.291 0-.357-.024-.687-.049-1.025h-4.286c-1 0-1.195.093-1.265.153l-.023.022c-.088.07-.11.259.016.337.245.157.622.344.622.905v.034c0 .453-.39.62-1.354 1l-1.252.485-.216-.114c-.33-.174-1.048-.651-1.042-1.473 0-.45.221-.52.221-.864 0-.275-.19-.51-.473-.51Zm8.784-1.568h-17.489c-.049.164-.08.341-.118.522h4.043c1.763 0 2.52.426 2.52 1.448 0 .314-.186.656-.475.895.205.08 1.047.38 1.168.436.251-.128.357-.53.234-.707-.05-.063-.104-.14-.253-.204a1.665 1.665 0 0 0-.314-.065v-.435c0-.409.286-.725.745-.852a.483.483 0 0 1 .044-.05c.257-.205.579-.354 1.089-.374 1.099.03 1.53.67 1.53 1.297 0 .404-.18.683-.262.819.025.276.216.457.314.57.121-.054.961-.355 1.162-.435-.283-.24-.46-.58-.46-.895 0-1.022.752-1.448 2.503-1.448h4.135a5.67 5.67 0 0 0-.116-.522Zm-13.318-4.46c-.978 0-1.088.44-1.088.78v2.573h2.495V7.537c0-.338-.092-.404-.155-.446-.137-.1-.457-.22-1.252-.22Zm4.533-.996c-1.517 0-2.029.89-2.029 1.662l.004 2.687h4.096V7.537c0-.771-.526-1.662-2.07-1.662Zm4.585.997c-.797 0-1.126.12-1.264.22-.057.04-.149.107-.149.445v2.687h2.52V7.65c0-.34-.118-.78-1.107-.78Zm-5.77-2.277a6.037 6.037 0 0 0-2.632 1.219c.385.037.762.121 1.062.304a2.86 2.86 0 0 1 1.57-1.154Zm2.379 0v.369c.692.198 1.242.595 1.603 1.154.308-.183.677-.267 1.064-.304-.746-.615-1.674-1.03-2.667-1.22ZM181.17.864h-.661V2.44h-1.574v.699h1.574v1.603h.66V3.14h1.606v-.7h-1.605V.865Z"
       id="path1" />
    <path
       fill="#BE311A"
       d="M25.511 16.673c.135 0 .216.094.216.282l-.11 4.764v3.262c.004 1.62.028 2.07.122 2.257.141.298.249.363.908.422.138 0 .216.062.216.174v.299c0 .153-.045.202-.322.249l-1.98.386c-.122.016-.216.032-.275.032-.123 0-.17-.079-.186-.279l-.045-.671c-.03-.377-.03-.393-.138-.393a.317.317 0 0 0-.137.093 9.138 9.138 0 0 1-.789.657c-.46.314-.86.438-1.364.438-1.692 0-2.897-1.562-2.897-3.745 0-2.541 1.439-4.274 3.527-4.274.412 0 1.207.172 1.4.298.047.047.092.063.107.063.061 0 .126-.124.126-.254l-.018-.282-.015-1.672c0-.819-.046-.88-.695-.99-.295-.03-.353-.078-.353-.296v-.275c0-.155.058-.204.304-.231l2.216-.297c.076-.017.149-.017.182-.017Zm36.149 0c.137 0 .215.094.215.282l-.111 4.764v2.79c0 2.008.017 2.524.123 2.729.138.298.244.363.909.422.135 0 .21.062.21.174v.299c0 .153-.045.202-.32.249l-1.98.386c-.124.016-.214.032-.277.032-.122 0-.167-.079-.183-.279l-.047-.671c-.031-.377-.031-.393-.137-.393-.018 0-.079.032-.14.093a9.15 9.15 0 0 1-.82.657c-.463.314-.861.438-1.368.438-1.686 0-2.875-1.562-2.875-3.745 0-2.541 1.419-4.274 3.505-4.274.414 0 1.235.172 1.433.298a.204.204 0 0 0 .11.063c.059 0 .122-.124.122-.254v-.01l-.014-.272L60 18.779c0-.819-.047-.88-.732-.99-.292-.03-.353-.078-.353-.296v-.275c0-.155.06-.204.306-.231l2.25-.297c.08-.017.156-.017.188-.017Zm-47.574 3.951c1.937 0 2.844.707 2.844 2.218l-.045 2.857v.376c.001 1.197.016 1.227.182 1.383.14.108.29.155.662.186.306.032.398.079.398.267v.252c0 .172-.047.206-.322.266l-1.825.309a2.108 2.108 0 0 1-.34.031c-.143 0-.23-.065-.259-.232-.045-.108-.088-.502-.07-.626 0-.28-.032-.41-.104-.41-.016 0-.061.035-.106.065a9.368 9.368 0 0 1-.94.673 3.028 3.028 0 0 1-1.514.406c-.969 0-1.736-.855-1.736-1.972 0-.532.172-1.207.386-1.51.12-.168.14-.186.95-.343l2.024-.406c.875-.19.979-.265.979-.736v-.269c0-1.068-.397-1.47-1.425-1.47-.66 0-1.53.251-2.116.595-.121.08-.184.096-.23.096-.074 0-.107-.067-.107-.188v-.1l.108-.81c.045-.421.153-.545.632-.67a9.953 9.953 0 0 1 1.974-.238Zm38.623.002c.153 0 .196.045.196.186l-.016.412c-.013.404-.013.404-.027 1.09a15.4 15.4 0 0 0-.016.79v1.325c.016 1.447.03 2.306.06 2.575.062.42.217.532.798.608.245.034.294.08.294.267v.22c0 .187-.049.236-.26.27l-2.089.276a2.842 2.842 0 0 1-.22.031c-.178 0-.178 0-.288-1.075-.016-.24-.06-.348-.155-.348-.044 0-.116.047-.318.25-1.044.975-1.349 1.142-2.179 1.142-.585 0-1.175-.155-1.572-.42-.49-.312-.702-.846-.702-1.708 0-.123 0-.39.015-.675v-2.165c0-1.829-.049-1.968-.661-2.03-.353-.032-.43-.081-.43-.252v-.267c0-.188.045-.218.261-.251l2.245-.22c.155-.014.26-.031.279-.031.104 0 .147.064.147.186 0 .08 0 .206-.012.343-.06.74-.09 1.74-.09 2.493v1.22c0 1.4.03 1.634.27 1.975.187.27.527.41.957.41.72 0 1.368-.345 1.642-.877.184-.337.237-.704.243-1.732v-.98c0-.6-.029-1.43-.066-1.578-.059-.287-.206-.41-.59-.458-.356-.031-.432-.078-.432-.233v-.283c0-.172.045-.22.263-.235l2.206-.234c.092-.017.182-.017.247-.017Zm99.132-2.856c.09 0 .155.114.155.237 0 .095-.02.27-.047.458-.049.39-.153 1.707-.153 2.004 0 .28.079.327.516.327h1.26c.37 0 .568-.015.795-.047h.094c.077 0 .126.047.126.128 0 .092-.049.249-.188.72-.09.328-.165.39-.414.39h-.036a13.156 13.156 0 0 1-.424-.03c-.108 0-.29-.017-.583-.032-.333-.012-.441-.012-.577-.012-.458 0-.488 0-.49.546v2.535c0 1.227.025 1.631.178 1.932.142.294.448.453.919.453.335 0 .704-.06 1.244-.206a1.64 1.64 0 0 1 .23-.045c.076 0 .106.045.106.125 0 .22-.12.972-.169 1.035-.133.16-1.193.359-1.914.359-1.742 0-2.38-.514-2.38-1.88l.012-.923c.015-.38.03-.648.03-.85v-2.113c-.015-.91-.015-.925-.382-.925-.065 0-.065 0-.278.016h-.399a1.79 1.79 0 0 1-.228.016c-.094 0-.155-.048-.155-.093 0-.033.016-.113.061-.202l.187-.518c.121-.343.149-.379.304-.379.049 0 .188.016.369.036a.775.775 0 0 0 .184.015c.28 0 .385-.098.385-.331 0-.079-.01-.581-.047-1.037-.016-.249-.016-.482-.016-.655 0-.344.09-.475.428-.597l.944-.343c.308-.114.308-.114.353-.114Zm-31.07 2.855c.58 0 1.206.108 1.577.265.245.094.308.175.308.363v.044l-.108.94c-.016.25-.045.28-.216.28h-.243c-.153 0-.153 0-.308-.402-.171-.406-.648-.644-1.317-.644-.736 0-1.229.408-1.229 1.017 0 .42.216.7.815 1.046.35.206.35.206 1.377.677 1 .453 1.576 1.191 1.576 2.059 0 1.42-1.268 2.377-3.199 2.377-.736 0-1.48-.155-1.982-.42-.22-.093-.265-.193-.25-.44l.093-1.07c.014-.186.094-.265.263-.265h.257c.17 0 .185 0 .28.407.138.54.786.946 1.508.946.785 0 1.329-.428 1.329-1.037 0-.47-.244-.722-1.084-1.114-1.968-.895-2.459-1.427-2.459-2.59 0-1.53 1.117-2.439 3.013-2.439Zm-90.575-3.972c.106 0 .183.116.183.271 0 .045 0 .126-.016.218-.014.367-.031.818-.047 2.09 0 .97-.014 1.708-.028 2.163l-.017.265v.112c0 .059.031.09.078.09.077 0 .26-.169.61-.548.474-.531.849-.688 1.602-.688 1.763 0 2.883 1.393 2.883 3.628 0 2.605-1.656 4.393-4.098 4.393-.812 0-1.92-.279-2.58-.671-.2-.128-.277-.252-.277-.519v-.172c.03-1.349.045-2.966.063-4.909l-.001-1.287c-.003-1.234-.02-2.515-.049-2.766-.027-.363-.196-.502-.624-.551-.386-.028-.478-.092-.478-.277v-.241c0-.145.058-.193.26-.22l2.24-.33.296-.05Zm75.793 3.972c1.812 0 2.803 1.032 2.803 2.893 0 .424-.169.55-.748.55h-3.578c-.567 0-.628.049-.628.58 0 1.49.966 2.605 2.289 2.605.767 0 1.872-.377 2.374-.8.034-.028.047-.044.061-.044.05 0 .092.06.092.141 0 .232-.143 1.268-.172 1.378-.042.092-.208.186-.636.36a5.6 5.6 0 0 1-1.933.358c-2.244 0-3.769-1.546-3.769-3.778 0-2.425 1.614-4.243 3.845-4.243Zm26.33-2.855c.092 0 .153.114.153.237 0 .095-.015.27-.045.458-.05.39-.155 1.707-.155 2.004 0 .28.075.327.522.327h1.256c.365 0 .57-.015.768-.047h.094c.076 0 .125.047.125.128 0 .092-.049.249-.186.72-.07.328-.141.39-.389.39h-.036a10.953 10.953 0 0 1-.42-.03c-.11 0-.287-.017-.582-.032-.293-.01-.41-.012-.525-.012h-.058c-.463 0-.492 0-.494.553v2.528c0 1.227.03 1.631.184 1.932.14.294.448.453.927.453.335 0 .698-.06 1.236-.206a.934.934 0 0 1 .2-.045c.08 0 .112.045.112.125 0 .22-.124.972-.165 1.035-.118.16-1.173.359-1.894.359-1.752 0-2.41-.514-2.41-1.88l.016-.923c.016-.38.03-.648.03-.85v-2.113c-.014-.91-.014-.925-.383-.925-.063 0-.063 0-.28.016h-.396c-.127.016-.211.016-.23.016-.095 0-.154-.048-.154-.093 0-.033.014-.113.059-.202l.186-.518c.126-.343.155-.379.308-.379.043 0 .185.016.367.036.063.015.126.015.185.015.278 0 .38-.098.38-.331 0-.079-.011-.581-.043-1.037-.013-.249-.013-.482-.013-.655 0-.344.086-.475.427-.597l.968-.343c.308-.114.308-.114.355-.114Zm7.454 2.855c1.806 0 2.805 1.032 2.805 2.893 0 .424-.17.55-.75.55h-3.581c-.57 0-.63.049-.63.58 0 1.49.965 2.605 2.294 2.605.763 0 1.868-.377 2.375-.8.033-.028.047-.044.062-.044.044 0 .093.06.093.141 0 .232-.138 1.268-.171 1.378-.043.092-.214.186-.644.36a5.601 5.601 0 0 1-1.93.358c-2.248 0-3.8-1.546-3.8-3.778 0-2.425 1.64-4.243 3.877-4.243Zm-61.447-3.21c.156 0 .2.063.2.248v.316c0 .235-.058.28-.413.36-.52.125-.63.235-.646.63a134.59 134.59 0 0 0-.031 2.517v1.72c0 1.85-.03 2.294-.152 2.824-.398 1.72-1.856 2.616-4.296 2.616-1.874 0-3.193-.61-3.762-1.737-.324-.658-.412-1.394-.412-3.635v-1.582c0-.971-.018-2.102-.032-2.724-.015-.394-.137-.504-.643-.63-.356-.078-.417-.124-.417-.36v-.315c0-.185.046-.247.2-.247.089 0 .37.013.63.03a22.564 22.564 0 0 0 2.45 0c.235-.017.497-.03.589-.03.153 0 .2.062.2.247v.316c0 .235-.065.28-.398.36-.495.125-.607.235-.619.63-.012.47-.03 1.699-.033 2.526v1.85c0 1.8.076 2.482.35 2.985.394.752 1.253 1.19 2.327 1.19 1.29 0 2.194-.533 2.532-1.49.183-.542.213-.762.217-2.284v-2.054c0-.926-.017-2.133-.033-2.724-.012-.394-.12-.504-.642-.63-.353-.078-.416-.124-.416-.36v-.315c0-.185.05-.247.2-.247.109 0 .368.013.63.03.291.015.595.032.87.032.34 0 .614-.017.922-.033.261-.016.52-.03.628-.03Zm-37.73 3.21c1.462 0 2.613.583 3.21 1.627.356.628.555 1.395.555 2.192 0 1.056-.352 2.122-.972 2.873-.702.876-1.747 1.33-3.067 1.33-2.193 0-3.623-1.489-3.623-3.797 0-1.22.398-2.317 1.12-3.079.719-.785 1.582-1.146 2.777-1.146Zm54.346.033c.148.014.426.014.79.014.72 0 1.163-.014 1.624-.047h.187c.153 0 .21.047.21.204v.282c0 .205-.012.205-.428.314-.442.108-.612.218-.612.438 0 .079.013.189.062.314.075.23.152.467.212.703l.387 1.236c.477 1.537.799 2.526.828 2.526.016 0 .032-.076.063-.173l.063-.217.135-.424c.077-.254.185-.55.275-.868l.448-1.22c.476-1.365.6-1.783.6-1.955 0-.187-.247-.36-.632-.438-.184-.051-.23-.094-.23-.236v-.282c0-.14.061-.204.185-.204.045 0 .09 0 .167.017.184.016.816.03 1.126.03.285 0 .64-.014.964-.047h.137c.124 0 .17.047.17.204v.282c0 .22 0 .22-.291.299-.202.092-.295.233-.554.903-.169.44-.169.44-1.487 3.67-.493 1.22-.603 1.507-.709 1.805-.133.375-.133.389-.196.48-.05.08-.108.115-.322.144-.143.016-.186.016-.726.106a.506.506 0 0 1-.12.017l-.051.001c-.15 0-.165-.018-.334-.514-.204-.55-.337-.897-1.048-2.826-.73-2.022-1.008-2.82-1.271-3.425-.108-.269-.138-.289-.495-.408-.09-.032-.133-.13-.133-.252v-.282c0-.157.062-.204.26-.204h.032c.048.001.165.007.714.033ZM5.37 17.414c1.07 0 1.792.234 2.289.786.476.48.765 1.205.765 1.905 0 1.21-.736 2.318-1.739 2.599-.337.094-.365.11-.365.19 0 .014.018.047.057.09.11.189.204.352.247.487.324.738 1.34 2.548 1.877 3.282.431.596.63.765 1.09.877.26.068.3.088.306.28v.344c0 .143-.091.226-.244.226h-.124c-.334-.018-.89-.034-1.256-.034-.232 0-.552.016-.905.034H7.13c-.293 0-.293 0-.66-.962-.133-.343-1.181-2.557-1.73-3.717-.264-.563-.325-.61-.694-.61H3.94c-.059.015-.108.015-.108.015l-.245-.016c-.092 0-.17.11-.17.281v.756c0 .812.017 2.18.033 2.698.017.375.137.5.643.624.338.08.403.126.403.365v.313c0 .184-.047.253-.204.253-.106 0-.352-.018-.61-.034a20.833 20.833 0 0 0-2.46 0c-.263.016-.522.034-.614.034-.167 0-.216-.069-.216-.253v-.313c0-.239.06-.284.414-.365.508-.123.632-.249.646-.624.015-.612.031-1.729.031-2.698v-2.534c0-.973-.016-2.102-.031-2.726-.014-.393-.138-.504-.646-.628-.353-.077-.414-.126-.414-.361v-.316c0-.187.049-.248.184-.248.154 0 .383.016.646.032.279.016.63.03 1.12.03h.244c.546-.001.694-.006 1.951-.046.312-.016.585-.016.832-.016Zm141.231 3.21c.137 0 .2.11.2.299v.024l-.014.586a78.48 78.48 0 0 0-.034 2.297v1.13c0 .915.017 1.745.034 2.122.032.33.122.42.568.563.42.13.469.155.474.322v.304c0 .141-.046.206-.166.206h-.11a26.44 26.44 0 0 0-1.67-.05c-.583 0-1.317.02-1.704.05h-.106c-.14 0-.169-.05-.169-.206v-.25c0-.217 0-.217.48-.376.472-.155.547-.234.578-.563.016-.372.027-1 .03-1.858v-1.548c0-1.848-.03-1.956-.658-2.029-.353-.033-.43-.078-.43-.237v-.283c0-.173.044-.216.26-.236l2.198-.235.121-.014c.047-.017.087-.017.118-.017Zm-54.51 0c.133 0 .198.11.198.299l-.018.61c-.012.267-.031 1.784-.031 2.648v.779c0 .915.02 1.745.031 2.122.03.33.122.42.571.563.46.143.475.159.475.377v.249c0 .141-.049.206-.166.206h-.112c-.4-.03-1.088-.05-1.676-.05-.581 0-1.315.02-1.702.05h-.106c-.141 0-.17-.05-.17-.206v-.25c0-.217 0-.217.478-.376.475-.155.554-.234.581-.563.014-.372.027-1 .03-1.858v-1.548c0-1.848-.03-1.956-.658-2.029-.355-.033-.432-.078-.432-.237v-.283c0-.173.047-.216.263-.236l2.196-.235.124-.014c.045-.017.088-.017.124-.017Zm34.966 0c.138 0 .199.11.199.299v.038l-.014.572c-.011.25-.026 1.6-.028 2.479v.948c0 .915.016 1.745.028 2.122.03.33.12.42.563.563.461.143.475.159.475.377v.249c0 .141-.047.206-.169.206h-.108c-.398-.03-1.085-.05-1.642-.05-.583 0-1.32.02-1.704.05h-.108c-.137 0-.169-.05-.169-.206v-.25c0-.199 0-.216.37-.34l.111-.036c.475-.155.548-.234.581-.563.01-.372.025-1 .027-1.858v-1.548c0-1.848-.027-1.956-.659-2.029-.351-.033-.43-.078-.43-.237v-.283c0-.173.045-.216.261-.236l2.185-.235.11-.014c.045-.017.09-.017.121-.017Zm-11.278 0c.4 0 .567.11.552.345v.032l-.061 1.1c-.016.275-.08.387-.216.387-.03 0-.077-.017-.141-.035-.183-.06-.536-.094-.89-.094-.563 0-1.006.157-1.299.437-.334.345-.412.646-.42 2.006v.897l.038 1.005c.013.516.045.646.259.754.123.06.14.06.798.217.467.114.487.114.487.33v.22c0 .159-.076.251-.202.251h-.07c-.444-.012-1.673-.049-2.291-.049-.489 0-1.205.022-1.568.05h-.106c-.122 0-.169-.066-.169-.209v-.247c0-.216 0-.216.453-.375.471-.157.55-.236.575-.565.017-.357.033-.986.035-1.854v-.782c0-.783-.107-1.676-.26-2.102-.14-.387-.361-.53-.832-.544-.34-.015-.385-.043-.385-.217v-.267c0-.232.045-.281.277-.314l2.227-.344.128-.016c.059-.017.106-.017.118-.017.111 0 .184.11.184.267l-.012.69c0 .672.012.778.136.778.049 0 .18-.106.292-.244.232-.269.232-.269.6-.689.429-.486.586-.596 1.023-.706.234-.063.461-.096.74-.096Zm-31.061 0c1.105 0 1.92.426 2.212 1.16.125.351.134.377.135 2.206v.967c0 .919.014 1.812.026 2.126.027.327.117.42.579.563.459.143.474.157.474.377v.247c0 .16-.045.206-.166.206h-.11a26.712 26.712 0 0 0-1.659-.047c-.586 0-1.307.018-1.705.047h-.112c-.122 0-.167-.063-.167-.206v-.247c0-.22.016-.234.475-.377.463-.143.554-.236.585-.563.013-.333.027-1.086.03-1.902v-.736c0-.985-.046-1.411-.17-1.739-.166-.424-.58-.655-1.146-.655-.632 0-1.212.29-1.566.792-.26.364-.326.707-.326 1.708v.406c0 .948.018 1.763.034 2.126.031.327.123.42.569.563.455.157.473.157.473.377v.247c0 .143-.047.206-.173.206h-.106a26.49 26.49 0 0 0-1.668-.047c-.58 0-1.336.018-1.705.047h-.108c-.122 0-.167-.063-.167-.206v-.247c0-.22.015-.234.475-.377.459-.143.553-.236.585-.563.013-.33.031-1.178.031-2.126v-.543c0-.766-.094-1.992-.183-2.267-.082-.267-.233-.363-.71-.39-.355-.038-.422-.066-.422-.207v-.314c0-.235.028-.284.208-.312l2.18-.267c.14-.014.246-.033.262-.033.123 0 .2.11.215.3.016.126.046.86.046.94.015.187.076.328.153.328.045 0 .108-.045.168-.106l.154-.175.292-.296c.734-.803 1.117-.991 2.008-.991Zm-52.79 1.3c-.58 0-1.15.468-1.425 1.204-.17.424-.247 1.052-.247 2.035 0 1.182.047 1.604.17 1.888.17.328.678.595 1.123.595 1.194 0 2.085-1.286 2.085-3 0-1.642-.677-2.721-1.706-2.721Zm8.53-.14c-1.138 0-1.95 1.157-1.95 2.754 0 1.665.869 2.905 2.09 2.905 1.093 0 1.936-1.162 1.936-2.64 0-1.77-.863-3.018-2.076-3.018Zm-25.325 3.272c-.031 0-.063 0-.11.015l-.169.032c-.843.16-1.122.224-1.442.412-.448.25-.648.577-.648 1.003 0 .532.354.877.876.877.447 0 .971-.237 1.307-.58.23-.248.304-.5.304-1.064v-.44c0-.208-.012-.255-.118-.255Zm7.233-3.337c-1.076 0-1.83 1.11-1.83 2.71 0 1.698.739 2.903 1.814 2.903 1.09 0 1.616-.925 1.616-2.781 0-.97-.108-1.61-.34-2.051-.263-.483-.724-.781-1.26-.781Zm36.105 0c-1.071 0-1.823 1.11-1.823 2.71 0 1.698.734 2.903 1.808 2.903 1.116 0 1.652-.925 1.652-2.781 0-.97-.106-1.61-.337-2.051-.277-.483-.762-.781-1.3-.781Zm47.392-.185c-.493 0-.98.237-1.256.595-.246.294-.434.75-.434 1.016 0 .126.065.175.218.175l.337-.018.707-.065c.276-.015 1.03-.076 1.301-.125.237-.014.326-.108.326-.314 0-.28-.108-.62-.293-.872-.184-.249-.49-.392-.906-.392Zm33.786 0c-.49 0-.987.237-1.264.595-.243.294-.428.75-.428 1.016 0 .126.059.175.212.175l.338-.018.714-.065c.275-.015 1.026-.076 1.297-.125.236-.014.326-.108.326-.314 0-.28-.108-.62-.294-.872-.18-.249-.485-.392-.901-.392ZM3.832 18.463c-.337 0-.398.033-.398.25v.33l-.018 1.867v.575l.018.426c-.018.312.047.369.322.369.997 0 1.58-.118 1.933-.4.434-.36.687-.943.687-1.551 0-.881-.47-1.552-1.225-1.755-.302-.078-.736-.111-1.319-.111Zm87.408-1.21c.679 0 1.152.426 1.152 1.085 0 .644-.534 1.16-1.209 1.16-.66 0-1.203-.502-1.203-1.148 0-.671.508-1.097 1.26-1.097Zm34.996 0c.65 0 1.124.426 1.124 1.085a1.17 1.17 0 0 1-1.185 1.16c-.657 0-1.197-.502-1.197-1.148 0-.671.504-1.097 1.258-1.097Zm19.526 0c.673 0 1.146.426 1.146 1.085 0 .644-.534 1.16-1.21 1.16-.658 0-1.198-.502-1.198-1.148 0-.671.504-1.097 1.262-1.097Z"
       id="path2" />
  </g>
</svg>
