<?xml version="1.0" encoding="UTF-8" standalone="no"?>
<svg
   id="Ebene_1"
   data-name="Ebene 1"
   viewBox="0 0 120.45 39.77"
   version="1.1"
   sodipodi:docname="elatec.svg"
   inkscape:export-filename="elatec.png"
   inkscape:export-xdpi="478.20673"
   inkscape:export-ydpi="478.20673"
   inkscape:version="1.4.2 (ebf0e940d0, 2025-05-08)"
   xmlns:inkscape="http://www.inkscape.org/namespaces/inkscape"
   xmlns:sodipodi="http://sodipodi.sourceforge.net/DTD/sodipodi-0.dtd"
   xmlns="http://www.w3.org/2000/svg"
   xmlns:svg="http://www.w3.org/2000/svg">
  <sodipodi:namedview
     id="namedview16"
     pagecolor="#ffffff"
     bordercolor="#666666"
     borderopacity="1.0"
     inkscape:showpageshadow="2"
     inkscape:pageopacity="0.0"
     inkscape:pagecheckerboard="0"
     inkscape:deskcolor="#d1d1d1"
     inkscape:zoom="5.82"
     inkscape:cx="60.137457"
     inkscape:cy="19.931271"
     inkscape:window-width="1415"
     inkscape:window-height="869"
     inkscape:window-x="0"
     inkscape:window-y="0"
     inkscape:window-maximized="1"
     inkscape:current-layer="Ebene_1" />
  <defs
     id="defs1">
    <style
       id="style1">.cls-1{fill:#a41d23;}.cls-2{fill:#4d4d4d;}.cls-3{fill:#fff;}</style>
  </defs>
  <title
     id="title1">ELA-Logo-RFID-Systems</title>
  <polygon
     class="cls-1"
     points="0 26.61 0 39.77 63.41 39.77 68.73 26.61 0 26.61"
     id="polygon1" />
  <path
     class="cls-2"
     d="M376.33,295.32v3.87H360.72V278h15.4v3.88H366v4.44h9.65v3.87H366v5.1Z"
     transform="translate(-360.72 -277.76)"
     id="path1" />
  <path
     class="cls-2"
     d="M411.11,278l9.4,21.16h-5.67L413.1,295h-9.48L402,299.19h-5.59L405,278Zm.45,13.29-3.44-8.23-3.1,8.23Z"
     transform="translate(-360.72 -277.76)"
     id="path2" />
  <path
     class="cls-2"
     d="M439,278v3.88h-7.66v17.28H426.1V281.91h-7.66V278Z"
     transform="translate(-360.72 -277.76)"
     id="path3" />
  <path
     class="cls-2"
     d="M457.52,295.32v3.87H441.91V278h15.4v3.88H447.19v4.44h9.65v3.87h-9.65v5.1Z"
     transform="translate(-360.72 -277.76)"
     id="path4" />
  <path
     class="cls-2"
     d="M481.17,292.74v4.62a17.46,17.46,0,0,1-8.32,2.11,12.63,12.63,0,0,1-9-3.12,10.37,10.37,0,0,1,.18-15.41,13.22,13.22,0,0,1,9.21-3.18,14.76,14.76,0,0,1,7.66,1.86v4.71a15,15,0,0,0-7.28-2.17,8.22,8.22,0,0,0-5.52,1.82,5.76,5.76,0,0,0-2.15,4.61,5.91,5.91,0,0,0,2.11,4.65,8,8,0,0,0,5.42,1.83,11.35,11.35,0,0,0,3.15-.43A30.76,30.76,0,0,0,481.17,292.74Z"
     transform="translate(-360.72 -277.76)"
     id="path5" />
  <path
     class="cls-3"
     d="M368.85,308.69H371a1.63,1.63,0,0,1,1.16.41,1.31,1.31,0,0,1,.44,1,1.27,1.27,0,0,1-.84,1.2,1.68,1.68,0,0,1,.7.9c.22.49.44,1,.64,1.39H371.8c-.08-.16-.21-.47-.41-.92a2.94,2.94,0,0,0-.51-.87.68.68,0,0,0-.46-.2h-.35v2h-1.22Zm1.22.89v1.12h.65a.75.75,0,0,0,.49-.15.48.48,0,0,0,.18-.41c0-.37-.24-.56-.7-.56Z"
     transform="translate(-360.72 -277.76)"
     id="path6" />
  <path
     class="cls-3"
     d="M377.32,308.69v.89h-2.16v1.1h2.16v.89h-2.16v2H374v-4.89Z"
     transform="translate(-360.72 -277.76)"
     id="path7" />
  <path
     class="cls-3"
     d="M379.75,308.69v4.89h-1.22v-4.89Z"
     transform="translate(-360.72 -277.76)"
     id="path8" />
  <path
     class="cls-3"
     d="M381.11,308.69h2.15a2.74,2.74,0,0,1,2,.68,2.32,2.32,0,0,1,.73,1.77,2.26,2.26,0,0,1-.74,1.79,3.09,3.09,0,0,1-2.1.65h-2Zm1.22.89v3.1h.79a1.6,1.6,0,0,0,1.19-.42,1.58,1.58,0,0,0,.41-1.12,1.52,1.52,0,0,0-.42-1.14,1.6,1.6,0,0,0-1.19-.42Z"
     transform="translate(-360.72 -277.76)"
     id="path9" />
  <path
     class="cls-3"
     d="M392.18,309v1a4.1,4.1,0,0,0-1.55-.44,1.09,1.09,0,0,0-.52.11.33.33,0,0,0-.2.29.36.36,0,0,0,.14.27,2.65,2.65,0,0,0,.69.32,6.88,6.88,0,0,1,.86.38,1.63,1.63,0,0,1,.57.48,1.25,1.25,0,0,1,.23.79,1.31,1.31,0,0,1-.51,1.08,2.16,2.16,0,0,1-1.36.4,3.56,3.56,0,0,1-1.77-.47v-1.05a4.92,4.92,0,0,0,.87.48,2.15,2.15,0,0,0,.8.15q.72,0,.72-.45a.44.44,0,0,0-.14-.3,2.38,2.38,0,0,0-.7-.33,8.34,8.34,0,0,1-.87-.36,1.66,1.66,0,0,1-.55-.48,1.35,1.35,0,0,1-.23-.8,1.22,1.22,0,0,1,.51-1,2.16,2.16,0,0,1,1.36-.39A4.18,4.18,0,0,1,392.18,309Z"
     transform="translate(-360.72 -277.76)"
     id="path10" />
  <path
     class="cls-3"
     d="M396.4,310.27l-2.22,4.9h-1.11l1-2.13-1.29-2.77h1.11l.7,1.71.74-1.71Z"
     transform="translate(-360.72 -277.76)"
     id="path11" />
  <path
     class="cls-3"
     d="M399.24,310.45v.74a2.15,2.15,0,0,0-1.1-.37c-.25,0-.38.09-.38.26a.19.19,0,0,0,.08.13,5.05,5.05,0,0,0,.61.27,1.76,1.76,0,0,1,.74.49.91.91,0,0,1,.22.6,1,1,0,0,1-.35.79,1.57,1.57,0,0,1-1,.28,2.84,2.84,0,0,1-1.19-.24v-.73a2.78,2.78,0,0,0,1.07.28q.51,0,.51-.24a.21.21,0,0,0-.1-.18,2.37,2.37,0,0,0-.62-.29,1.76,1.76,0,0,1-.73-.46.89.89,0,0,1-.2-.56.88.88,0,0,1,.38-.73,1.6,1.6,0,0,1,1-.29A2.31,2.31,0,0,1,399.24,310.45Z"
     transform="translate(-360.72 -277.76)"
     id="path12" />
  <path
     class="cls-3"
     d="M402.59,310.27V311h-1.21v1.37a.56.56,0,0,0,.14.39.5.5,0,0,0,.37.14,1.53,1.53,0,0,0,.7-.2v.76a2.43,2.43,0,0,1-1,.2,1.33,1.33,0,0,1-.95-.31,1.23,1.23,0,0,1-.34-.93V311h-.47v-.2l1.38-1.55h.13v1Z"
     transform="translate(-360.72 -277.76)"
     id="path13" />
  <path
     class="cls-3"
     d="M406.52,312.55v.66a2.43,2.43,0,0,1-1.47.43,2,2,0,0,1-1.4-.46,1.59,1.59,0,0,1-.52-1.24,1.68,1.68,0,0,1,.49-1.25,1.72,1.72,0,0,1,1.25-.49,1.62,1.62,0,0,1,1.25.52,1.79,1.79,0,0,1,.46,1.37H404.2a1,1,0,0,0,.32.7,1.16,1.16,0,0,0,.77.24A2.09,2.09,0,0,0,406.52,312.55Zm-2.29-1h1.43q-.07-.72-.72-.72C404.52,310.82,404.28,311.06,404.23,311.54Z"
     transform="translate(-360.72 -277.76)"
     id="path14" />
  <path
     class="cls-3"
     d="M408.5,310.27v.43a1.68,1.68,0,0,1,1.15-.5,1.23,1.23,0,0,1,1.2.71,1.71,1.71,0,0,1,1.3-.71,1.29,1.29,0,0,1,.93.35,1.2,1.2,0,0,1,.37.91v2.12H412.4v-1.94a.79.79,0,0,0-.16-.54.54.54,0,0,0-.45-.2,1,1,0,0,0-.82.56v2.12h-1v-2a.72.72,0,0,0-.17-.53.59.59,0,0,0-.46-.19,1.08,1.08,0,0,0-.8.46v2.22h-1v-3.31Z"
     transform="translate(-360.72 -277.76)"
     id="path15" />
  <path
     class="cls-3"
     d="M416.75,310.45v.74a2.15,2.15,0,0,0-1.1-.37c-.25,0-.37.09-.37.26a.17.17,0,0,0,.07.13,5.05,5.05,0,0,0,.61.27,1.76,1.76,0,0,1,.74.49.91.91,0,0,1,.22.6,1,1,0,0,1-.35.79,1.55,1.55,0,0,1-1,.28,2.76,2.76,0,0,1-1.18-.24v-.73a2.69,2.69,0,0,0,1.06.28q.51,0,.51-.24a.23.23,0,0,0-.09-.18,2.73,2.73,0,0,0-.63-.29,1.76,1.76,0,0,1-.73-.46.89.89,0,0,1-.2-.56.88.88,0,0,1,.38-.73,1.61,1.61,0,0,1,1-.29A2.3,2.3,0,0,1,416.75,310.45Z"
     transform="translate(-360.72 -277.76)"
     id="path16" />
  <polygon
     class="cls-2"
     points="25.3 17.56 25.3 0.27 20.03 0.27 20.03 21.44 33.35 21.44 34.92 17.56 25.3 17.56"
     id="polygon16" />
</svg>
