<?xml version="1.0" encoding="UTF-8" standalone="no"?>
<svg
   id="Ebene_1"
   data-name="Ebene 1"
   viewBox="0 0 114.51 61.93"
   version="1.1"
   sodipodi:docname="th-koeln.svg"
   inkscape:export-filename="th-koeln.png"
   inkscape:export-xdpi="251.50641"
   inkscape:export-ydpi="251.50641"
   inkscape:version="1.4.2 (ebf0e940d0, 2025-05-08)"
   xmlns:inkscape="http://www.inkscape.org/namespaces/inkscape"
   xmlns:sodipodi="http://sodipodi.sourceforge.net/DTD/sodipodi-0.dtd"
   xmlns="http://www.w3.org/2000/svg"
   xmlns:svg="http://www.w3.org/2000/svg">
  <sodipodi:namedview
     id="namedview28"
     pagecolor="#ffffff"
     bordercolor="#666666"
     borderopacity="1.0"
     inkscape:showpageshadow="2"
     inkscape:pageopacity="0.0"
     inkscape:pagecheckerboard="0"
     inkscape:deskcolor="#d1d1d1"
     inkscape:zoom="9.9790085"
     inkscape:cx="57.220114"
     inkscape:cy="30.965"
     inkscape:window-width="1415"
     inkscape:window-height="869"
     inkscape:window-x="0"
     inkscape:window-y="0"
     inkscape:window-maximized="1"
     inkscape:current-layer="Ebene_1" />
  <defs
     id="defs1">
    <style
       id="style1">.cls-1{fill:#c60c0f;}.cls-2{fill:#ea5b0c;}.cls-3{fill:#b62584;}</style>
  </defs>
  <title
     id="title1">Logo TH Köln RGB_22pt</title>
  <path
     class="cls-1"
     d="M13,41.9H9.2V39.66H19.34V41.9H15.56V54.49H13V41.9Z"
     transform="translate(-9.2 -38.98)"
     id="path1" />
  <path
     class="cls-1"
     d="M21.3,49.85a2.72,2.72,0,0,0,3,2.86A7.42,7.42,0,0,0,27,52.25l0.37,1.8a8.67,8.67,0,0,1-3.43.64c-3.26,0-5.13-2.11-5.13-5.39,0-3.12,1.76-5.74,4.86-5.74s4.25,2.62,4.25,5.13a6.77,6.77,0,0,1-.09,1.17H21.3ZM25.46,48c0-1.21-.46-2.64-2-2.64S21.39,46.88,21.3,48h4.16Z"
     transform="translate(-9.2 -38.98)"
     id="path2" />
  <path
     class="cls-1"
     d="M37.12,54.2a7,7,0,0,1-2.66.48c-3.1,0-5.13-2.07-5.13-5.46a5.31,5.31,0,0,1,5.57-5.65,6,6,0,0,1,2.29.44l-0.44,2A3.77,3.77,0,0,0,35,45.62c-1.91,0-3,1.54-3,3.52,0,2.2,1.28,3.48,3,3.48a4.45,4.45,0,0,0,1.83-.37Z"
     transform="translate(-9.2 -38.98)"
     id="path3" />
  <path
     class="cls-1"
     d="M38.92,39h2.6v6.16h0a3.43,3.43,0,0,1,2.95-1.58c1.78,0,3.41,1.25,3.41,4.49v6.45h-2.6V48.26c0-1.43-.46-2.57-1.83-2.57a2,2,0,0,0-1.87,1.45,2.5,2.5,0,0,0-.11.81v6.54h-2.6V39Z"
     transform="translate(-9.2 -38.98)"
     id="path4" />
  <path
     class="cls-1"
     d="M50.58,46.92c0-1.23,0-2.2-.09-3.15h2.27l0.13,1.5h0a3.63,3.63,0,0,1,3.17-1.72c1.83,0,3.48,1.25,3.48,4.38v6.56H57V48.22c0-1.41-.46-2.53-1.8-2.53a2,2,0,0,0-1.87,1.5,2.78,2.78,0,0,0-.13.9v6.4h-2.6V46.92Z"
     transform="translate(-9.2 -38.98)"
     id="path5" />
  <path
     class="cls-1"
     d="M66.55,54.71c-2.79,0-4.91-2-4.91-5.52s2.2-5.63,5-5.63,4.86,2.16,4.86,5.5c0,4-2.62,5.65-5,5.65h0Zm0.07-1.91c1.43,0,2.27-1.69,2.27-3.67,0-1.65-.59-3.65-2.27-3.65s-2.31,2-2.31,3.67c0,2,.81,3.65,2.29,3.65h0Z"
     transform="translate(-9.2 -38.98)"
     id="path6" />
  <path
     class="cls-1"
     d="M73.64,39h2.6V54.49h-2.6V39Z"
     transform="translate(-9.2 -38.98)"
     id="path7" />
  <path
     class="cls-1"
     d="M83.3,54.71c-2.79,0-4.91-2-4.91-5.52s2.2-5.63,5-5.63,4.86,2.16,4.86,5.5c0,4-2.62,5.65-5,5.65h0Zm0.07-1.91c1.43,0,2.27-1.69,2.27-3.67,0-1.65-.59-3.65-2.27-3.65s-2.31,2-2.31,3.67c0,2,.81,3.65,2.29,3.65h0Z"
     transform="translate(-9.2 -38.98)"
     id="path8" />
  <path
     class="cls-1"
     d="M99.34,53c0,2.33-.44,3.78-1.47,4.75A5.64,5.64,0,0,1,94,59a7.12,7.12,0,0,1-3.37-.75l0.55-2A5.58,5.58,0,0,0,94,57c1.65,0,2.77-.92,2.77-3.15V53h0a3.12,3.12,0,0,1-2.77,1.45c-2.51,0-4.16-2.27-4.16-5.24,0-3.59,2.11-5.63,4.44-5.63A3,3,0,0,1,97,45.12h0l0.11-1.34h2.27c0,0.77-.09,1.69-0.09,3.17V53Zm-2.6-5.08a2.71,2.71,0,0,0-.09-0.75,2,2,0,0,0-1.92-1.58c-1.39,0-2.33,1.36-2.33,3.5,0,2,.86,3.34,2.31,3.34A2,2,0,0,0,96.61,51,3.39,3.39,0,0,0,96.74,50V47.93Z"
     transform="translate(-9.2 -38.98)"
     id="path9" />
  <path
     class="cls-1"
     d="M103.69,43.78l1.72,5.76c0.2,0.68.4,1.45,0.53,2H106c0.15-.59.33-1.36,0.51-2l1.5-5.76h2.71l-2.49,7.42c-1.19,3.5-2.11,5.43-3.34,6.65a5.27,5.27,0,0,1-2.66,1.45l-0.66-2.2a4.27,4.27,0,0,0,1.54-.84,4.75,4.75,0,0,0,1.32-1.65,1,1,0,0,0,.15-0.48,1.3,1.3,0,0,0-.11-0.48l-3.61-9.86h2.84Z"
     transform="translate(-9.2 -38.98)"
     id="path10" />
  <path
     class="cls-2"
     d="M13.18,72.4l-1.12,4.09H9.42l4.33-14.83H17l4.29,14.83H18.55L17.38,72.4h-4.2Zm3.81-2-1-3.59c-0.24-.95-0.48-2-0.68-3h0c-0.2.92-.44,2.07-0.66,3l-1,3.59H17Z"
     transform="translate(-9.2 -38.98)"
     id="path11" />
  <path
     class="cls-2"
     d="M23,69.1c0-1.3,0-2.38-.09-3.32h2.24l0.11,1.91h0.09a3,3,0,0,1,2.68-2.13,4.12,4.12,0,0,1,.59,0v2.51a3.06,3.06,0,0,0-.7-0.07,2.3,2.3,0,0,0-2.27,2,5.13,5.13,0,0,0-.07.88v5.59H23V69.1Z"
     transform="translate(-9.2 -38.98)"
     id="path12" />
  <path
     class="cls-2"
     d="M33.8,63v2.73h2.42v1.91H33.8v5c0,1.3.4,1.87,1.3,1.87A3,3,0,0,0,36,74.44l0.07,2a6.25,6.25,0,0,1-1.85.24,2.89,2.89,0,0,1-2.18-.81,4.1,4.1,0,0,1-.84-3V67.69H29.79V65.78h1.45v-2Z"
     transform="translate(-9.2 -38.98)"
     id="path13" />
  <path
     class="cls-2"
     d="M37.93,74.09a5.34,5.34,0,0,0,2.46.7c1.08,0,1.61-.48,1.61-1.21s-0.4-1.1-1.63-1.61c-1.94-.79-2.71-1.89-2.71-3.12,0-1.87,1.5-3.3,3.83-3.3a5.5,5.5,0,0,1,2.6.62L43.56,68a4.09,4.09,0,0,0-2-.57,1.19,1.19,0,0,0-1.41,1.12c0,0.66.44,1,1.69,1.52,1.8,0.75,2.66,1.76,2.66,3.26,0,2-1.52,3.34-4.11,3.34a6,6,0,0,1-2.95-.7Z"
     transform="translate(-9.2 -38.98)"
     id="path14" />
  <path
     class="cls-3"
     d="M50.76,73.67a6.57,6.57,0,0,0,3.19.84c1.65,0,2.57-.81,2.57-2s-0.75-1.8-2.44-2.53c-2.2-.92-3.63-2.29-3.63-4.27,0-2.38,1.87-4.22,5-4.22a7.07,7.07,0,0,1,3.15.66L58,64.28a5.66,5.66,0,0,0-2.64-.64c-1.61,0-2.31.9-2.31,1.78,0,1.14.79,1.67,2.64,2.49,2.35,1.06,3.45,2.4,3.45,4.36,0,2.46-1.83,4.42-5.32,4.42a7.89,7.89,0,0,1-3.59-.84Z"
     transform="translate(-9.2 -38.98)"
     id="path15" />
  <path
     class="cls-3"
     d="M68.6,76.2a7,7,0,0,1-2.66.48c-3.1,0-5.13-2.07-5.13-5.46a5.31,5.31,0,0,1,5.57-5.65,6,6,0,0,1,2.29.44l-0.44,2a3.77,3.77,0,0,0-1.78-.37c-1.91,0-3,1.54-3,3.52,0,2.2,1.28,3.48,3,3.48a4.44,4.44,0,0,0,1.83-.37Z"
     transform="translate(-9.2 -38.98)"
     id="path16" />
  <path
     class="cls-3"
     d="M71.68,64.26a1.37,1.37,0,0,1-1.41-1.43,1.39,1.39,0,0,1,1.45-1.43,1.36,1.36,0,0,1,1.43,1.43,1.38,1.38,0,0,1-1.45,1.43h0ZM70.4,76.49V65.78H73V76.49H70.4Z"
     transform="translate(-9.2 -38.98)"
     id="path17" />
  <path
     class="cls-3"
     d="M77.62,71.85a2.72,2.72,0,0,0,3,2.86,7.43,7.43,0,0,0,2.66-.46l0.37,1.8a8.65,8.65,0,0,1-3.43.64c-3.26,0-5.13-2.11-5.13-5.39,0-3.12,1.76-5.74,4.86-5.74s4.25,2.62,4.25,5.13a6.77,6.77,0,0,1-.09,1.17H77.62ZM81.78,70c0-1.21-.46-2.64-2-2.64s-2.09,1.5-2.18,2.64h4.16Z"
     transform="translate(-9.2 -38.98)"
     id="path18" />
  <path
     class="cls-3"
     d="M86.24,68.92c0-1.23,0-2.2-.09-3.15h2.27l0.13,1.5h0a3.63,3.63,0,0,1,3.17-1.72c1.83,0,3.48,1.25,3.48,4.38v6.56h-2.6V70.22c0-1.41-.46-2.53-1.8-2.53A2,2,0,0,0,89,69.19a2.76,2.76,0,0,0-.13.9v6.4h-2.6V68.92Z"
     transform="translate(-9.2 -38.98)"
     id="path19" />
  <path
     class="cls-3"
     d="M105.1,76.2a6.94,6.94,0,0,1-2.66.48c-3.1,0-5.13-2.07-5.13-5.46a5.31,5.31,0,0,1,5.57-5.65,6,6,0,0,1,2.29.44l-0.44,2a3.78,3.78,0,0,0-1.78-.37c-1.91,0-3,1.54-3,3.52,0,2.2,1.28,3.48,3,3.48a4.43,4.43,0,0,0,1.83-.37Z"
     transform="translate(-9.2 -38.98)"
     id="path20" />
  <path
     class="cls-3"
     d="M108.66,71.85a2.72,2.72,0,0,0,3,2.86,7.42,7.42,0,0,0,2.66-.46l0.37,1.8a8.66,8.66,0,0,1-3.43.64c-3.26,0-5.13-2.11-5.13-5.39,0-3.12,1.76-5.74,4.86-5.74s4.25,2.62,4.25,5.13a6.87,6.87,0,0,1-.09,1.17h-6.51ZM112.82,70c0-1.21-.46-2.64-2-2.64s-2.09,1.5-2.18,2.64h4.16Z"
     transform="translate(-9.2 -38.98)"
     id="path21" />
  <path
     class="cls-3"
     d="M117.15,74.09a5.34,5.34,0,0,0,2.46.7c1.08,0,1.61-.48,1.61-1.21s-0.4-1.1-1.63-1.61c-1.94-.79-2.71-1.89-2.71-3.12,0-1.87,1.5-3.3,3.83-3.3a5.49,5.49,0,0,1,2.6.62L122.78,68a4.1,4.1,0,0,0-2-.57,1.2,1.2,0,0,0-1.41,1.12c0,0.66.44,1,1.69,1.52,1.8,0.75,2.66,1.76,2.66,3.26,0,2-1.52,3.34-4.12,3.34a6,6,0,0,1-2.95-.7Z"
     transform="translate(-9.2 -38.98)"
     id="path22" />
  <path
     d="M12.9,88.63H9.31V85.86H19.74v2.77H16.11v12.06H12.9V88.63Z"
     transform="translate(-9.2 -38.98)"
     id="path23" />
  <path
     d="M25.3,85.86v5.79h4.77V85.86h3.21v14.83H30.08V94.49H25.3v6.21H22.09V85.86H25.3Z"
     transform="translate(-9.2 -38.98)"
     id="path24" />
  <path
     d="M41.58,85.86h3.19v6.6h0.07q0.43-.89.92-1.72l2.93-4.88h3.85L48.1,92.22l4.64,8.47H49.06l-3.21-6.32-1.08,1.45v4.86H41.58V85.86Z"
     transform="translate(-9.2 -38.98)"
     id="path25" />
  <path
     d="M58.88,100.91c-3,0-5.13-2.07-5.13-5.54S56,89.71,59,89.71s5,2.22,5,5.52c0,4.09-2.68,5.68-5.17,5.68h0Zm-2.16-12.5a1.51,1.51,0,0,1,0-3,1.51,1.51,0,0,1,0,3h0ZM59,98.58c1.19,0,1.85-1.45,1.85-3.28,0-1.56-.51-3.26-1.85-3.26S57,93.74,57,95.3c0,1.85.64,3.28,1.91,3.28h0ZM61.1,88.41a1.51,1.51,0,0,1,0-3,1.43,1.43,0,0,1,1.43,1.5,1.45,1.45,0,0,1-1.43,1.52h0Z"
     transform="translate(-9.2 -38.98)"
     id="path26" />
  <path
     d="M66.66,85.18h3.21v15.51H66.66V85.18Z"
     transform="translate(-9.2 -38.98)"
     id="path27" />
  <path
     d="M73,93.32c0-1.3,0-2.4-.09-3.39h2.77l0.15,1.41h0.07a3.68,3.68,0,0,1,3.13-1.63c2.16,0,3.56,1.52,3.56,4.45v6.54H79.42V94.49c0-1.23-.42-2.16-1.52-2.16a1.61,1.61,0,0,0-1.52,1.17,2.56,2.56,0,0,0-.13.88v6.32H73V93.32Z"
     transform="translate(-9.2 -38.98)"
     id="path28" />
</svg>
