<?xml version="1.0" encoding="UTF-8" standalone="no"?>
<!-- Generator: Adobe Illustrator 16.0.3, SVG Export Plug-In . SVG Version: 6.00 Build 0)  -->

<svg
   version="1.1"
   id="Capa_1"
   x="0px"
   y="0px"
   width="1200px"
   height="1200px"
   viewBox="0 0 1200 1200"
   enable-background="new 0 0 1200 1200"
   xml:space="preserve"
   sodipodi:docname="siu-argentina.svg"
   inkscape:version="1.4 (e7c3feb100, 2024-10-09)"
   xmlns:inkscape="http://www.inkscape.org/namespaces/inkscape"
   xmlns:sodipodi="http://sodipodi.sourceforge.net/DTD/sodipodi-0.dtd"
   xmlns="http://www.w3.org/2000/svg"
   xmlns:svg="http://www.w3.org/2000/svg"><defs
   id="defs21">
	
	
	
	
	
	
	
	
	
	
	
	
	
	
	
	
	
	
	
	
	
	
	
	
	
	
	
	
	
	
	
	
	
	
	
	
	
</defs><sodipodi:namedview
   id="namedview21"
   pagecolor="#ffffff"
   bordercolor="#666666"
   borderopacity="1.0"
   inkscape:showpageshadow="2"
   inkscape:pageopacity="0.0"
   inkscape:pagecheckerboard="0"
   inkscape:deskcolor="#d1d1d1"
   inkscape:zoom="0.515"
   inkscape:cx="599.02913"
   inkscape:cy="737.86408"
   inkscape:window-width="1415"
   inkscape:window-height="869"
   inkscape:window-x="0"
   inkscape:window-y="0"
   inkscape:window-maximized="1"
   inkscape:current-layer="Capa_1" />
<g
   id="g23"><g
     id="g21"><rect
       x="574.91199"
       y="417.95401"
       fill="#005183"
       width="64.470001"
       height="242.631"
       id="rect1" /><path
       fill="#0099d1"
       d="m 717.336,344.036 c -4.403,-3.993 -9.592,-5.973 -15.549,-5.973 h -134 c 0.383,0.312 0.775,0.622 1.144,0.952 3.997,4.427 5.981,9.605 5.981,15.538 v 47.972 h 148.404 v -42.95 c 0,-5.939 -1.982,-11.116 -5.98,-15.539"
       id="path1" /><path
       fill="#005183"
       d="m 888.066,338.063 h -21.439 -21.516 v 21.512 42.95 33.162 104.969 c 0,1.157 -0.039,2.29 -0.106,3.434 -0.028,0.492 -0.08,0.988 -0.124,1.477 -0.047,0.569 -0.105,1.128 -0.167,1.688 -0.091,0.702 -0.172,1.405 -0.292,2.103 -0.01,0.072 -0.019,0.153 -0.039,0.226 -0.229,1.443 -0.544,2.849 -0.893,4.25 -0.196,0.789 -0.398,1.568 -0.627,2.354 -0.115,0.396 -0.258,0.792 -0.387,1.194 -0.646,2.017 -1.411,4.007 -2.305,5.968 -2.362,5.172 -5.322,9.796 -8.86,13.941 -0.329,0.388 -0.669,0.771 -1.004,1.143 -1.114,1.229 -2.257,2.424 -3.481,3.567 -0.009,0.015 -0.033,0.028 -0.052,0.043 -1.247,1.161 -2.558,2.247 -3.897,3.304 -0.296,0.229 -0.592,0.454 -0.889,0.679 -1.358,1.028 -2.749,2.013 -4.218,2.936 -0.008,0.005 -0.019,0.015 -0.019,0.015 -1.539,0.971 -3.137,1.865 -4.771,2.705 -0.201,0.105 -0.411,0.201 -0.611,0.311 -1.396,0.703 -2.85,1.344 -4.332,1.961 -0.828,0.35 -1.664,0.695 -2.506,1 -0.516,0.191 -1.037,0.383 -1.559,0.559 -0.436,0.145 -0.86,0.287 -1.296,0.422 -0.942,0.299 -1.888,0.568 -2.845,0.813 -0.114,0.033 -0.22,0.07 -0.344,0.105 -4.944,1.248 -10.036,1.873 -15.272,1.885 -5.239,-0.012 -10.322,-0.637 -15.271,-1.885 -0.115,-0.035 -0.229,-0.072 -0.35,-0.105 -0.951,-0.244 -1.897,-0.514 -2.835,-0.813 -0.43,-0.135 -0.864,-0.277 -1.301,-0.422 -0.521,-0.176 -1.042,-0.367 -1.563,-0.559 -0.837,-0.305 -1.668,-0.656 -2.51,-1 -1.473,-0.617 -2.917,-1.258 -4.322,-1.961 -0.211,-0.109 -0.411,-0.205 -0.612,-0.311 -1.645,-0.84 -3.231,-1.734 -4.767,-2.7 -0.01,-0.005 -0.02,-0.015 -0.029,-0.02 -1.458,-0.928 -2.854,-1.912 -4.212,-2.936 -0.302,-0.225 -0.593,-0.45 -0.89,-0.679 -1.338,-1.057 -2.654,-2.143 -3.896,-3.304 -0.02,-0.015 -0.043,-0.028 -0.062,-0.043 -1.215,-1.144 -2.353,-2.338 -3.462,-3.567 -0.335,-0.372 -0.669,-0.755 -1.005,-1.143 -3.537,-4.146 -6.507,-8.77 -8.873,-13.941 -0.894,-1.966 -1.649,-3.96 -2.305,-5.987 -0.124,-0.392 -0.259,-0.779 -0.373,-1.171 -0.235,-0.775 -0.436,-1.563 -0.636,-2.348 -0.34,-1.405 -0.665,-2.816 -0.904,-4.25 -0.009,-0.077 -0.02,-0.163 -0.038,-0.235 -0.101,-0.697 -0.2,-1.4 -0.277,-2.103 -0.067,-0.556 -0.124,-1.119 -0.172,-1.688 -0.039,-0.488 -0.087,-0.984 -0.115,-1.477 -0.081,-1.144 -0.114,-2.276 -0.114,-3.434 V 417.954 h -64.476 v 122.635 c 0,22.176 5.67,42.678 17.026,61.473 11.342,18.781 26.622,33.686 45.871,44.662 19.25,10.998 40,16.486 62.271,16.486 0.067,0 0.129,-0.006 0.2,-0.006 0.068,0 0.145,0.006 0.211,0.006 22.261,0 43.013,-5.488 62.252,-16.486 19.255,-10.977 34.545,-25.881 45.882,-44.662 11.34,-18.795 17.016,-39.297 17.016,-61.473 v -104.901 -33.162 -42.95 -21.512 h -21.508 z"
       id="path2" /><path
       fill="#005183"
       d="m 541.146,495.239 c -9.974,-16.955 -23.418,-30.377 -40.319,-40.316 -13.918,-8.19 -28.779,-12.952 -44.566,-14.405 C 452.876,440.211 449.448,440 445.977,440 h -68.755 c -5.102,0 -9.563,-1.84 -13.332,-5.555 -3.781,-3.711 -5.672,-8.009 -5.672,-12.92 0,-5.11 1.863,-9.558 5.559,-13.334 3.72,-3.787 8.186,-5.666 13.445,-5.666 h 178.111 v -42.95 c 0,-5.939 -1.988,-11.126 -5.981,-15.539 -4.417,-3.988 -9.601,-5.973 -15.539,-5.973 H 377.221 c -15.052,0 -28.984,3.749 -41.789,11.285 -12.809,7.51 -22.948,17.686 -30.454,30.499 -7.489,12.819 -11.226,26.708 -11.226,41.678 0,14.894 3.751,28.717 11.286,41.415 7.535,12.709 17.678,22.793 30.474,30.29 12.777,7.492 26.686,11.231 41.737,11.231 h 68.793 c 12.617,0 23.366,4.504 32.26,13.492 8.902,8.993 13.329,19.823 13.329,32.498 0,12.532 -4.427,23.266 -13.329,32.227 -8.894,8.973 -19.643,13.441 -32.26,13.441 H 301.935 v 64.465 h 144.041 c 19.665,0 37.948,-4.939 54.851,-14.846 16.901,-9.902 30.346,-23.324 40.319,-40.264 9.984,-16.944 14.946,-35.291 14.946,-55.023 0,-19.874 -4.962,-38.286 -14.946,-55.212"
       id="path3" /></g><g
     id="g22"><path
       fill="#4c4c4b"
       d="m 102.9,763.019 c 2.721,1.846 8.96,5.012 15.901,5.012 5.889,0 12.304,-1.846 12.304,-10.807 0,-7.033 -6.15,-9.318 -13.186,-11.246 -8.432,-2.289 -16.691,-5.449 -16.691,-16.262 0,-9.752 7.554,-16.164 18.542,-16.164 7.908,0 14.851,3.691 18.977,7.818 l -3.863,4.654 c -4.573,-3.953 -9.67,-6.5 -15.202,-6.5 -4.92,0 -11.249,2.107 -11.249,9.484 0,6.947 5.978,8.965 13.537,11.25 8.083,2.553 16.338,5.623 16.338,16.695 0,10.984 -7.38,17.139 -19.682,17.139 -8.438,0 -16.255,-3.43 -18.626,-5.367 z"
       id="path4" /><rect
       x="150.155"
       y="714.60797"
       fill="#4c4c4b"
       width="6.9429998"
       height="58.425999"
       id="rect4" /><path
       fill="#4c4c4b"
       d="m 171.152,763.019 c 2.721,1.846 8.958,5.012 15.902,5.012 5.889,0 12.303,-1.846 12.303,-10.807 0,-7.033 -6.154,-9.318 -13.18,-11.246 -8.438,-2.289 -16.696,-5.449 -16.696,-16.262 0,-9.752 7.555,-16.164 18.541,-16.164 7.909,0 14.852,3.691 18.978,7.818 l -3.863,4.654 c -4.573,-3.953 -9.665,-6.5 -15.202,-6.5 -4.92,0 -11.25,2.107 -11.25,9.484 0,6.947 5.977,8.965 13.538,11.25 8.082,2.553 16.337,5.623 16.337,16.695 0,10.984 -7.38,17.139 -19.682,17.139 -8.432,0 -16.257,-3.43 -18.626,-5.367 z"
       id="path5" /><polygon
       fill="#4c4c4b"
       points="236.25,720.579 236.25,773.034 229.307,773.034 229.307,720.579 211.908,720.579 211.908,714.604 253.997,714.604 253.997,720.579 "
       id="polygon5" /><polygon
       fill="#4c4c4b"
       points="295.544,720.579 269.797,720.579 269.797,740.259 291.941,740.259 291.941,746.231 269.797,746.231 269.797,767.063 296.161,767.063 296.161,773.034 262.859,773.034 262.859,714.604 295.544,714.604 "
       id="polygon6" /><polygon
       fill="#4c4c4b"
       points="364.069,773.034 357.393,773.034 354.758,724.448 354.67,724.448 337.622,765.917 331.736,765.917 315.212,724.614 315.124,724.614 312.492,773.034 305.812,773.034 309.24,714.604 317.852,714.604 334.807,757.487 334.894,757.487 352.384,714.604 360.818,714.604 "
       id="polygon7" /><path
       fill="#4c4c4b"
       d="m 372.656,773.034 20.563,-58.43 h 8.257 l 21,58.43 h -7.292 l -6.412,-18.01 h -23.023 l -6.242,18.01 z m 14.762,-23.637 h 19.68 l -9.927,-28.559 z"
       id="path7" /><path
       fill="#4c4c4b"
       d="m 450.746,714.604 h 17.84 c 16.256,0 26.627,9.049 26.627,27.064 0,23.199 -12.394,31.371 -26.097,31.371 h -18.37 z m 6.943,52.809 h 11.6 c 11.595,0 18.891,-8.35 18.891,-24.08 0,-17.924 -8.788,-23.102 -20.119,-23.102 H 457.69 v 47.182 z"
       id="path8" /><polygon
       fill="#4c4c4b"
       points="539.826,720.579 514.085,720.579 514.085,740.259 536.226,740.259 536.226,746.231 514.085,746.231 514.085,767.063 540.448,767.063 540.448,773.034 507.142,773.034 507.142,714.604 539.826,714.604 "
       id="polygon8" /><rect
       x="569.86298"
       y="714.60797"
       fill="#4c4c4b"
       width="6.941"
       height="58.425999"
       id="rect8" /><polygon
       fill="#4c4c4b"
       points="628.022,773.034 598.234,724.181 598.148,724.181 598.148,773.034 591.293,773.034 591.293,714.604 599.383,714.604 628.639,762.751 628.726,762.751 628.726,714.604 635.581,714.604 635.581,773.034 "
       id="polygon9" /><polygon
       fill="#4c4c4b"
       points="656.92,720.579 656.92,740.259 680.205,740.259 680.205,746.231 656.92,746.231 656.92,773.034 649.978,773.034 649.978,714.604 685.034,714.604 685.034,720.579 "
       id="polygon10" /><path
       fill="#4c4c4b"
       d="m 712.703,774.093 c -15.028,0 -24.074,-10.109 -24.074,-30.137 0,-22.586 13,-30.404 24.949,-30.404 12.651,0 23.639,7.994 23.639,30.404 0,20.119 -9.487,30.137 -24.514,30.137 m 0.703,-5.893 c 12.742,0 16.695,-12.037 16.695,-23.986 0,-10.369 -3.423,-24.689 -16.786,-24.689 -12.829,0 -17.566,12.215 -17.566,24.164 0,11.597 3.159,24.511 17.657,24.511"
       id="path10" /><path
       fill="#4c4c4b"
       d="m 756.093,773.034 h -6.942 v -58.43 h 18.543 c 12.297,0 19.861,4.303 19.861,15.725 0,10.021 -6.068,14.416 -11.074,16.084 3.08,0.879 3.953,2.281 5.623,5.977 l 9.494,20.645 h -7.391 l -8.606,-18.363 c -1.491,-3.166 -3.165,-5.623 -6.765,-5.623 h -12.743 z m 11.427,-29.609 c 7.904,0 12.914,-4.479 12.914,-12.564 0,-9.756 -5.971,-10.629 -16.695,-10.629 h -7.646 v 23.193 z"
       id="path11" /><polygon
       fill="#4c4c4b"
       points="858.451,773.034 851.767,773.034 849.127,724.448 849.046,724.448 832.001,765.917 826.114,765.917 809.591,724.614 809.499,724.614 806.87,773.034 800.186,773.034 803.619,714.604 812.229,714.604 829.185,757.487 829.275,757.487 846.76,714.604 855.199,714.604 "
       id="polygon11" /><path
       fill="#4c4c4b"
       d="m 867.033,773.034 20.564,-58.43 h 8.257 l 20.994,58.43 h -7.286 l -6.416,-18.01 h -23.022 l -6.239,18.01 z m 14.759,-23.637 h 19.686 l -9.931,-28.559 z"
       id="path12" /><path
       fill="#4c4c4b"
       d="m 962.529,761.79 3.772,4.566 c -5.36,5.096 -11.857,7.736 -19.063,7.736 -15.382,0 -25.221,-9.76 -25.221,-30.234 0,-22.666 13.88,-30.313 25.747,-30.313 6.148,0 13.53,2.023 18.977,9.668 l -4.921,3.779 c -3.776,-4.486 -8.261,-7.465 -14.323,-7.465 -11.246,0 -18.36,9.045 -18.36,23.896 0,15.375 5.881,24.775 18.445,24.775 5.452,0.002 10.108,-2.099 14.947,-6.408"
       id="path13" /><rect
       x="976.21301"
       y="714.60797"
       fill="#4c4c4b"
       width="6.9429998"
       height="58.425999"
       id="rect13" /><path
       fill="#4c4c4b"
       d="m 1019.264,774.093 c -15.023,0 -24.074,-10.109 -24.074,-30.143 0,-22.58 13.001,-30.404 24.954,-30.404 12.651,0 23.634,7.994 23.634,30.404 -10e-4,20.125 -9.492,30.143 -24.514,30.143 m 0.708,-5.893 c 12.736,0 16.686,-12.037 16.686,-23.982 0,-10.373 -3.423,-24.689 -16.782,-24.689 -12.827,0 -17.565,12.207 -17.565,24.16 0,11.597 3.154,24.511 17.661,24.511 m 5.795,-73.978 c 2.103,1.143 4.308,2.725 4.308,4.564 0,1.584 -1.496,2.727 -2.902,3.688 -2.634,1.85 -7.114,4.398 -12.651,7.645 l -2.112,-2.896 z"
       id="path14" /><polygon
       fill="#4c4c4b"
       points="1092.437,773.034 1062.648,724.181 1062.567,724.181 1062.567,773.034 1055.712,773.034 1055.712,714.604 1063.797,714.604 1093.053,762.751 1093.144,762.751 1093.144,714.604 1100,714.604 1100,773.034 "
       id="polygon14" /><path
       fill="#4c4c4b"
       d="m 331.424,802.45 v 40.242 c 0,10.281 5.976,13.355 14.236,13.355 8.084,0 13.617,-4.127 13.617,-12.914 V 802.45 h 6.941 v 41.998 c 0,11.244 -8.521,17.488 -21.004,17.488 -13.612,0 -20.729,-5.449 -20.729,-19.066 v -40.42 z"
       id="path15" /><polygon
       fill="#4c4c4b"
       points="416.9,860.882 387.113,812.022 387.029,812.022 387.029,860.882 380.173,860.882 380.173,802.45 388.258,802.45 417.518,850.601 417.604,850.601 417.604,802.45 424.459,802.45 424.459,860.882 "
       id="polygon15" /><rect
       x="438.94101"
       y="802.45001"
       fill="#4c4c4b"
       width="6.9380002"
       height="58.431999"
       id="rect15" /><polygon
       fill="#4c4c4b"
       points="461.873,802.454 478.302,852.71 494.557,802.454 501.586,802.454 481.811,860.882 474.348,860.882 454.576,802.454 "
       id="polygon16" /><polygon
       fill="#4c4c4b"
       points="542.867,808.421 517.12,808.421 517.12,828.106 539.263,828.106 539.263,834.081 517.12,834.081 517.12,854.911 543.483,854.911 543.483,860.882 510.183,860.882 510.183,802.45 542.867,802.45 "
       id="polygon17" /><path
       fill="#4c4c4b"
       d="m 560.424,860.882 h -6.933 V 802.45 h 18.532 c 12.307,0 19.861,4.303 19.861,15.725 0,10.018 -6.063,14.416 -11.072,16.084 3.078,0.881 3.958,2.281 5.627,5.973 l 9.49,20.65 h -7.382 l -8.611,-18.367 c -1.491,-3.162 -3.16,-5.621 -6.765,-5.621 h -12.748 v 23.988 z m 11.428,-29.611 c 7.908,0 12.919,-4.48 12.919,-12.564 0,-9.754 -5.978,-10.629 -16.696,-10.629 h -7.65 v 23.193 z"
       id="path17" /><path
       fill="#4c4c4b"
       d="m 604.44,850.864 c 2.726,1.846 8.96,5.012 15.903,5.012 5.885,0 12.297,-1.846 12.297,-10.805 0,-7.035 -6.148,-9.318 -13.178,-11.252 -8.434,-2.285 -16.695,-5.445 -16.695,-16.256 0,-9.754 7.555,-16.166 18.541,-16.166 7.909,0 14.852,3.691 18.978,7.816 l -3.868,4.662 c -4.566,-3.959 -9.664,-6.502 -15.194,-6.502 -4.926,0 -11.246,2.104 -11.246,9.482 0,6.947 5.972,8.963 13.526,11.246 8.085,2.553 16.348,5.627 16.348,16.699 0,10.982 -7.383,17.135 -19.689,17.135 -8.431,0 -16.247,-3.432 -18.624,-5.363 z"
       id="path18" /><rect
       x="651.69397"
       y="802.45001"
       fill="#4c4c4b"
       width="6.9419999"
       height="58.431999"
       id="rect18" /><polygon
       fill="#4c4c4b"
       points="691.934,808.421 691.934,860.882 684.986,860.882 684.986,808.421 667.592,808.421 667.592,802.45 709.682,802.45 709.682,808.421 "
       id="polygon18" /><path
       fill="#4c4c4b"
       d="m 707.82,860.882 20.561,-58.428 h 8.262 l 21,58.428 h -7.297 l -6.411,-18.016 h -23.022 l -6.244,18.016 z m 14.76,-23.639 h 19.686 l -9.931,-28.559 z"
       id="path19" /><path
       fill="#4c4c4b"
       d="m 773.525,860.882 h -6.938 V 802.45 h 18.537 c 12.303,0 19.861,4.303 19.861,15.725 0,10.018 -6.063,14.416 -11.073,16.084 3.079,0.881 3.959,2.281 5.623,5.973 l 9.495,20.65 h -7.387 l -8.611,-18.367 c -1.491,-3.162 -3.161,-5.621 -6.761,-5.621 h -12.747 v 23.988 z m 11.427,-29.611 c 7.909,0 12.92,-4.48 12.92,-12.564 0,-9.754 -5.977,-10.629 -16.696,-10.629 h -7.65 v 23.193 z"
       id="path20" /><rect
       x="818.06799"
       y="802.45001"
       fill="#4c4c4b"
       width="6.941"
       height="58.431999"
       id="rect20" /><path
       fill="#4c4c4b"
       d="m 834.047,860.882 20.564,-58.428 h 8.257 l 20.999,58.428 h -7.291 l -6.411,-18.016 h -23.026 l -6.24,18.016 z m 14.765,-23.639 h 19.68 l -9.926,-28.559 z"
       id="path21" /></g></g>
</svg>
