<?xml version="1.0" encoding="UTF-8" standalone="no"?>
<svg
   width="400"
   height="240"
   version="1.1"
   id="svg2"
   sodipodi:docname="hmrc_uk.svg"
   inkscape:export-filename="hmrc_uk.png"
   inkscape:export-xdpi="960"
   inkscape:export-ydpi="960"
   inkscape:version="1.4.2 (ebf0e940d0, 2025-05-08)"
   xmlns:inkscape="http://www.inkscape.org/namespaces/inkscape"
   xmlns:sodipodi="http://sodipodi.sourceforge.net/DTD/sodipodi-0.dtd"
   xmlns="http://www.w3.org/2000/svg"
   xmlns:svg="http://www.w3.org/2000/svg">
  <defs
     id="defs2" />
  <sodipodi:namedview
     id="namedview2"
     pagecolor="#ffffff"
     bordercolor="#666666"
     borderopacity="1.0"
     inkscape:showpageshadow="2"
     inkscape:pageopacity="0.0"
     inkscape:pagecheckerboard="0"
     inkscape:deskcolor="#d1d1d1"
     inkscape:zoom="1.82"
     inkscape:cx="200"
     inkscape:cy="119.78022"
     inkscape:window-width="1415"
     inkscape:window-height="869"
     inkscape:window-x="0"
     inkscape:window-y="0"
     inkscape:window-maximized="1"
     inkscape:current-layer="svg2" />
  <path
     d="M320.817 231.024a6.155 6.155 0 0 0 2.095 2.06 9.463 9.463 0 0 0 2.921 1.089c1.09.227 2.215.335 3.364.335.886 0 1.82-.06 2.789-.192.97-.143 1.867-.383 2.693-.742a5.009 5.009 0 0 0 2.024-1.556c.538-.694.802-1.568.802-2.622 0-1.46-.551-2.573-1.664-3.328-1.102-.754-2.49-1.364-4.154-1.831a66.066 66.066 0 0 0-5.411-1.257c-1.951-.383-3.759-.91-5.423-1.604-1.664-.682-3.04-1.64-4.154-2.885-1.101-1.245-1.664-2.969-1.664-5.183 0-1.736.395-3.209 1.174-4.454a9.479 9.479 0 0 1 2.98-3.028c1.221-.778 2.598-1.353 4.13-1.724 1.52-.371 3.04-.563 4.549-.563 1.951 0 3.747.168 5.387.491 1.628.335 3.088.91 4.345 1.736 1.27.814 2.275 1.927 3.029 3.316.754 1.4 1.197 3.136 1.329 5.22h-5.65c-.084-1.102-.384-2.024-.862-2.754a5.705 5.705 0 0 0-1.868-1.76 8.564 8.564 0 0 0-2.49-.97c-.91-.203-1.831-.299-2.753-.299-.85 0-1.7.072-2.562.203-.862.132-1.652.36-2.358.695-.706.335-1.293.778-1.724 1.328-.455.551-.67 1.281-.67 2.167 0 .97.347 1.784 1.03 2.418.682.647 1.567 1.173 2.62 1.592 1.066.431 2.263.778 3.592 1.066 1.329.287 2.658.586 3.986.897a41.48 41.48 0 0 1 4.154 1.138c1.353.443 2.55 1.03 3.591 1.76a8.688 8.688 0 0 1 2.526 2.753c.647 1.113.97 2.478.97 4.118 0 2.095-.431 3.818-1.305 5.195a10.086 10.086 0 0 1-3.388 3.316c-1.388.838-2.968 1.424-4.716 1.76a27.623 27.623 0 0 1-5.22.502c-1.903 0-3.722-.203-5.446-.598-1.724-.395-3.256-1.054-4.585-1.963-1.329-.91-2.394-2.107-3.196-3.592-.79-1.484-1.233-3.28-1.329-5.41h5.65c.048 1.245.336 2.286.862 3.16m-55.03-26.695v5.052h.132c2.574-3.89 6.273-5.842 11.097-5.842 2.131 0 4.058.443 5.794 1.329 1.724.886 2.945 2.394 3.651 4.513 1.15-1.856 2.67-3.292 4.55-4.31 1.89-1.03 3.961-1.532 6.212-1.532 1.736 0 3.292.18 4.692.563 1.389.37 2.586.97 3.592 1.76.993.801 1.771 1.83 2.322 3.088.55 1.269.826 2.79.826 4.56v25.187h-5.65v-22.529c0-1.065-.084-2.059-.263-2.992-.168-.934-.503-1.736-.994-2.43-.49-.683-1.161-1.222-2.023-1.629-.874-.395-1.987-.598-3.364-.598-2.79 0-4.98.802-6.584 2.394-1.592 1.592-2.382 3.723-2.382 6.38v21.404h-5.65v-22.529c0-1.113-.096-2.13-.3-3.064-.203-.934-.55-1.736-1.03-2.418-.49-.695-1.148-1.221-1.962-1.604-.826-.372-1.868-.563-3.16-.563-1.64 0-3.041.335-4.214 1.005-1.173.659-2.131 1.46-2.861 2.383-.73.933-1.257 1.903-1.592 2.897-.336.993-.503 1.82-.503 2.49v21.403h-5.65V204.33zm-44.255 10.14c.706-2.191 1.771-4.095 3.184-5.71 1.424-1.629 3.172-2.898 5.255-3.831 2.083-.922 4.477-1.389 7.17-1.389 2.754 0 5.16.467 7.219 1.389 2.059.933 3.795 2.202 5.22 3.83 1.412 1.616 2.477 3.52 3.183 5.71.707 2.191 1.066 4.55 1.066 7.075 0 2.526-.36 4.872-1.066 7.051-.706 2.167-1.771 4.058-3.184 5.686-1.424 1.616-3.16 2.873-5.22 3.783-2.058.91-4.464 1.365-7.218 1.365-2.693 0-5.087-.455-7.17-1.365-2.083-.91-3.83-2.167-5.255-3.783-1.413-1.628-2.478-3.52-3.184-5.686-.719-2.179-1.066-4.525-1.066-7.05 0-2.527.347-4.885 1.066-7.076m5.745 12.63c.551 1.616 1.317 2.968 2.287 4.058.981 1.077 2.119 1.915 3.424 2.49 1.304.574 2.693.862 4.153.862 1.473 0 2.85-.288 4.154-.862a10.006 10.006 0 0 0 3.424-2.49c.982-1.09 1.736-2.442 2.298-4.058.551-1.616.826-3.46.826-5.555 0-2.083-.275-3.926-.826-5.542-.562-1.616-1.316-2.981-2.298-4.094a9.953 9.953 0 0 0-3.424-2.526 10.165 10.165 0 0 0-4.154-.862c-1.46 0-2.849.287-4.153.862a10.067 10.067 0 0 0-3.424 2.526c-.97 1.113-1.736 2.478-2.287 4.094-.55 1.616-.837 3.46-.837 5.542 0 2.095.287 3.939.837 5.555m-11.204-22.769v4.992h-6.847v21.332c0 .658.06 1.197.167 1.592.12.407.323.706.635.934.31.227.742.37 1.292.43.563.072 1.281.096 2.167.096h2.586v4.992h-4.322c-1.46 0-2.705-.108-3.747-.3-1.041-.202-1.89-.562-2.525-1.1-.647-.527-1.126-1.281-1.437-2.251-.311-.982-.455-2.263-.455-3.867v-21.858h-5.853v-4.992h5.853v-10.295h5.639v10.295zm-43.598 26.695a6.155 6.155 0 0 0 2.095 2.059 9.463 9.463 0 0 0 2.92 1.09c1.09.227 2.216.335 3.365.335.886 0 1.807-.06 2.789-.192.97-.143 1.867-.383 2.693-.742a5.008 5.008 0 0 0 2.023-1.556c.54-.694.802-1.568.802-2.622 0-1.46-.55-2.573-1.663-3.328-1.114-.754-2.49-1.364-4.154-1.831a65.254 65.254 0 0 0-5.423-1.257c-1.94-.383-3.747-.91-5.41-1.604-1.665-.682-3.041-1.64-4.155-2.885-1.113-1.245-1.664-2.969-1.664-5.183 0-1.736.395-3.209 1.161-4.454a9.516 9.516 0 0 1 2.993-3.028c1.221-.778 2.598-1.353 4.118-1.724a19.333 19.333 0 0 1 4.561-.563c1.951 0 3.747.168 5.387.491 1.628.335 3.088.91 4.345 1.736 1.27.814 2.275 1.927 3.029 3.316.754 1.4 1.197 3.136 1.329 5.22h-5.65c-.096-1.102-.384-2.024-.863-2.754a5.705 5.705 0 0 0-1.867-1.76 8.564 8.564 0 0 0-2.49-.97c-.91-.203-1.831-.299-2.753-.299-.85 0-1.7.072-2.562.203-.862.132-1.652.36-2.358.695-.718.335-1.293.778-1.736 1.328-.443.551-.658 1.281-.658 2.167 0 .97.347 1.784 1.03 2.418.682.647 1.555 1.173 2.62 1.592 1.066.431 2.263.778 3.592 1.066 1.329.287 2.658.586 3.986.897a42.38 42.38 0 0 1 4.154 1.138c1.353.443 2.55 1.03 3.591 1.76a8.688 8.688 0 0 1 2.526 2.753c.647 1.113.97 2.478.97 4.118 0 2.095-.443 3.818-1.305 5.195a10.086 10.086 0 0 1-3.388 3.316c-1.4.838-2.968 1.424-4.716 1.76-1.76.335-3.496.502-5.22.502-1.903 0-3.722-.203-5.446-.598-1.736-.395-3.256-1.054-4.585-1.963-1.329-.91-2.394-2.107-3.196-3.592-.802-1.484-1.245-3.28-1.329-5.41h5.65c.048 1.245.335 2.286.862 3.16m-18.148 7.673v-5.446h-.131c-1.197 2.118-2.718 3.687-4.585 4.68-1.856.994-4.046 1.497-6.572 1.497-2.263 0-4.154-.3-5.65-.898-1.509-.599-2.73-1.449-3.663-2.562-.922-1.101-1.58-2.418-1.952-3.95-.383-1.533-.574-3.233-.574-5.088v-22.6h5.65v23.27c0 2.12.623 3.807 1.867 5.04 1.233 1.245 2.945 1.868 5.112 1.868 1.736 0 3.22-.264 4.489-.803a8.516 8.516 0 0 0 3.16-2.25 9.846 9.846 0 0 0 1.892-3.424c.419-1.305.634-2.741.634-4.285v-19.417h5.65v34.368zm-41.43-40.748c-2.419-1.676-5.292-2.526-8.607-2.526-2.838 0-5.268.539-7.279 1.604a14.187 14.187 0 0 0-4.992 4.286c-1.304 1.796-2.262 3.843-2.884 6.141a27.488 27.488 0 0 0-.934 7.182c0 2.706.311 5.268.934 7.674.622 2.418 1.58 4.525 2.884 6.32 1.305 1.796 2.981 3.22 5.028 4.286 2.035 1.065 4.477 1.592 7.302 1.592 2.083 0 3.939-.335 5.555-1.03a12.48 12.48 0 0 0 4.19-2.86c1.173-1.222 2.095-2.67 2.753-4.346.67-1.688 1.065-3.507 1.197-5.459h6.309c-.61 5.986-2.682 10.642-6.177 13.958-3.496 3.328-8.284 4.992-14.353 4.992-3.675 0-6.895-.634-9.637-1.891-2.753-1.27-5.028-3.005-6.847-5.22-1.82-2.226-3.184-4.836-4.082-7.852-.91-3.005-1.365-6.25-1.365-9.697 0-3.46.491-6.703 1.46-9.744.97-3.029 2.407-5.674 4.286-7.937 1.88-2.262 4.226-4.046 7.051-5.35 2.813-1.305 6.033-1.964 9.66-1.964 2.49 0 4.837.335 7.051.994 2.215.67 4.19 1.64 5.914 2.933a16.384 16.384 0 0 1 4.321 4.812c1.15 1.927 1.904 4.154 2.263 6.68h-6.32c-.707-3.364-2.263-5.89-4.681-7.578m-62.871 39.815c-2.466 1.113-5.004 1.664-7.613 1.664-3.197 0-5.758-.49-7.71-1.46-1.95-.982-3.46-2.155-4.525-3.52-1.065-1.377-1.76-2.801-2.095-4.261-.335-1.46-.49-2.682-.49-3.652 0-1.867.3-3.495.897-4.92a13.534 13.534 0 0 1 2.395-3.818c.993-1.137 2.166-2.155 3.52-3.065a48.171 48.171 0 0 1 4.285-2.55c-.67-.933-1.305-1.82-1.928-2.657-.622-.85-1.185-1.7-1.7-2.562a13.212 13.212 0 0 1-1.197-2.73c-.287-.945-.43-2.022-.43-3.22 0-1.292.239-2.513.706-3.686a8.992 8.992 0 0 1 2.059-3.125c.91-.91 2.023-1.628 3.351-2.166 1.33-.527 2.862-.79 4.585-.79 1.46 0 2.897.19 4.286.598 1.4.395 2.633 1.006 3.687 1.82a9.359 9.359 0 0 1 2.562 3.064c.646 1.21.97 2.622.97 4.214 0 1.424-.252 2.741-.731 3.962a12.886 12.886 0 0 1-2 3.352 17.325 17.325 0 0 1-2.86 2.753 27.66 27.66 0 0 1-3.316 2.227l8.571 10.438c.886-2.478 1.4-4.944 1.532-7.374h5.375a59.788 59.788 0 0 1-.43 3.616 21.099 21.099 0 0 1-.6 2.765c-.239.838-.538 1.676-.897 2.49-.347.826-.766 1.76-1.257 2.825l9.241 10.702h-7.386l-5.051-5.914c-1.413 2.215-3.352 3.879-5.806 4.98m-11.372-20.075a14.16 14.16 0 0 0-2.622 2.262 10.115 10.115 0 0 0-1.796 2.826c-.442 1.041-.67 2.274-.67 3.687 0 1.197.263 2.298.766 3.292.515.993 1.185 1.843 2.035 2.525a9.852 9.852 0 0 0 2.885 1.628 9.766 9.766 0 0 0 3.364.599c2.167 0 4.106-.515 5.806-1.532 1.712-1.018 3.136-2.382 4.285-4.118l-10.893-13.096a52.647 52.647 0 0 0-3.16 1.927m7.146-9.637a12.81 12.81 0 0 0 2.06-1.795 8.677 8.677 0 0 0 1.532-2.227c.395-.814.598-1.735.598-2.753 0-1.377-.49-2.562-1.46-3.555-.982-.994-2.31-1.497-3.987-1.497-1.34 0-2.573.407-3.723 1.233-1.16.814-1.735 2.095-1.735 3.819 0 .706.143 1.413.43 2.13.288.707.659 1.401 1.102 2.084.443.694.934 1.364 1.46 2.035.539.658 1.066 1.329 1.592 1.999.67-.455 1.377-.934 2.131-1.473m348.662-38.019c-2.574 1.951-5.806 2.933-9.709 2.933-2.741 0-5.123-.443-7.134-1.329-2.023-.886-3.711-2.13-5.088-3.723-1.377-1.604-2.406-3.507-3.088-5.722-.695-2.214-1.078-4.62-1.162-7.242 0-2.61.395-5.004 1.186-7.183.802-2.166 1.915-4.046 3.363-5.638a15.132 15.132 0 0 1 5.112-3.723c1.975-.886 4.13-1.328 6.488-1.328 3.053 0 5.59.622 7.601 1.89a15.057 15.057 0 0 1 4.86 4.813 19.09 19.09 0 0 1 2.526 6.38c.467 2.311.647 4.502.563 6.585h-25.725a13.3 13.3 0 0 0 .539 4.285 9.661 9.661 0 0 0 1.927 3.591c.886 1.042 2.01 1.868 3.388 2.49 1.364.623 2.992.934 4.848.934 2.394 0 4.357-.55 5.89-1.664 1.52-1.101 2.537-2.79 3.016-5.052h5.59c-.766 3.855-2.418 6.764-4.991 8.703m-1.365-22.062a9.563 9.563 0 0 0-2.06-3.089 9.667 9.667 0 0 0-3.052-2.058c-1.173-.515-2.478-.767-3.89-.767-1.46 0-2.777.252-3.95.767a9.032 9.032 0 0 0-3.03 2.094 9.912 9.912 0 0 0-1.986 3.089 11.896 11.896 0 0 0-.874 3.759h19.74a11.353 11.353 0 0 0-.898-3.795m-36.786 24.265v-5.447h-.132c-1.197 2.119-2.73 3.687-4.585 4.68-1.855.994-4.058 1.497-6.584 1.497-2.25 0-4.142-.3-5.65-.898-1.496-.598-2.717-1.448-3.651-2.562-.934-1.1-1.58-2.43-1.963-3.95-.372-1.532-.563-3.232-.563-5.088v-22.6h5.65v23.259c0 2.13.623 3.819 1.856 5.052 1.245 1.245 2.956 1.867 5.123 1.867 1.724 0 3.22-.263 4.49-.802 1.256-.527 2.31-1.28 3.147-2.25.85-.982 1.473-2.12 1.904-3.424.419-1.305.634-2.742.634-4.298v-19.404h5.639v34.368zm-54.767-34.368v5.446h.132c2.358-4.154 6.07-6.236 11.169-6.236 2.262 0 4.142.31 5.65.921 1.508.623 2.73 1.485 3.651 2.598.934 1.113 1.592 2.43 1.963 3.95.383 1.533.563 3.232.563 5.088v22.6h-5.65v-23.27c0-2.12-.61-3.807-1.856-5.04-1.245-1.245-2.945-1.868-5.111-1.868-1.736 0-3.232.264-4.49.802-1.268.527-2.322 1.281-3.16 2.25a9.846 9.846 0 0 0-1.891 3.425c-.419 1.316-.634 2.74-.634 4.297v19.405h-5.65v-34.368zm-16.675 32.165c-2.574 1.951-5.806 2.933-9.708 2.933-2.742 0-5.124-.443-7.147-1.329-2.011-.886-3.71-2.13-5.076-3.723-1.376-1.604-2.406-3.507-3.1-5.722-.682-2.214-1.065-4.62-1.161-7.242 0-2.61.407-5.004 1.197-7.183.802-2.166 1.915-4.046 3.364-5.638a15.016 15.016 0 0 1 5.111-3.723c1.975-.886 4.13-1.328 6.476-1.328 3.065 0 5.603.622 7.614 1.89 2.011 1.258 3.639 2.874 4.86 4.813a19.068 19.068 0 0 1 2.514 6.38c.467 2.311.658 4.502.574 6.585h-25.725a13.638 13.638 0 0 0 .527 4.285c.407 1.353 1.041 2.55 1.927 3.591.886 1.042 2.023 1.868 3.388 2.49 1.377.623 2.993.934 4.86.934 2.394 0 4.346-.55 5.878-1.664 1.532-1.101 2.538-2.79 3.028-5.052h5.579c-.754 3.855-2.418 6.764-4.98 8.703m-1.365-22.062c-.514-1.197-1.197-2.227-2.059-3.088a9.72 9.72 0 0 0-3.064-2.06c-1.173-.514-2.466-.766-3.879-.766-1.46 0-2.789.252-3.962.767a8.983 8.983 0 0 0-3.017 2.094 9.944 9.944 0 0 0-1.999 3.089 11.568 11.568 0 0 0-.862 3.759h19.74a11.963 11.963 0 0 0-.898-3.795m-46.758 24.265-12.76-34.368h6.308l9.637 28.646h.131l9.373-28.646h5.926l-12.57 34.368zm-20.805-2.203c-2.562 1.951-5.806 2.933-9.696 2.933-2.753 0-5.136-.443-7.147-1.329-2.023-.886-3.71-2.13-5.087-3.723-1.377-1.604-2.406-3.507-3.089-5.722-.694-2.214-1.077-4.62-1.161-7.242 0-2.61.395-5.004 1.197-7.183.79-2.166 1.915-4.046 3.352-5.638a15.133 15.133 0 0 1 5.111-3.723c1.976-.886 4.142-1.328 6.489-1.328 3.052 0 5.59.622 7.613 1.89a15.138 15.138 0 0 1 4.848 4.813 19.09 19.09 0 0 1 2.526 6.38c.467 2.311.658 4.502.563 6.585h-25.726c-.035 1.508.132 2.932.54 4.285a9.66 9.66 0 0 0 1.926 3.591c.886 1.042 2.012 1.868 3.388 2.49 1.377.623 2.993.934 4.848.934 2.395 0 4.358-.55 5.89-1.664 1.52-1.101 2.538-2.79 3.017-5.052h5.59c-.754 3.855-2.418 6.764-4.992 8.703m-1.365-22.062c-.502-1.197-1.185-2.227-2.059-3.088a9.666 9.666 0 0 0-3.052-2.06c-1.173-.514-2.466-.766-3.89-.766-1.461 0-2.778.252-3.95.767a9.032 9.032 0 0 0-3.03 2.094 9.912 9.912 0 0 0-1.987 3.089 11.897 11.897 0 0 0-.874 3.759h19.74a11.353 11.353 0 0 0-.898-3.795m-45.225-23.187c4.525 0 8.056 1.1 10.606 3.315 2.538 2.215 3.819 5.256 3.819 9.11 0 2.873-.659 5.4-1.964 7.578-1.304 2.166-3.4 3.65-6.272 4.453v.132c1.364.263 2.49.706 3.352 1.328a7.421 7.421 0 0 1 2.059 2.227c.514.862.885 1.82 1.125 2.885.251 1.065.443 2.179.574 3.328.084 1.149.156 2.322.192 3.52a31.21 31.21 0 0 0 .335 3.53c.18 1.15.431 2.24.766 3.28.335 1.042.826 1.964 1.497 2.766h-7.051c-.443-.491-.742-1.161-.898-2a20.922 20.922 0 0 1-.3-2.824c-.035-1.042-.083-2.155-.131-3.352a24.301 24.301 0 0 0-.395-3.52 35.466 35.466 0 0 0-.659-3.292c-.275-1.041-.694-1.95-1.269-2.729-.574-.778-1.328-1.389-2.262-1.855-.922-.467-2.167-.707-3.723-.707h-15.418v20.279h-6.309v-47.452zm1.329 21.523c1.328-.215 2.49-.646 3.495-1.293.994-.634 1.796-1.508 2.394-2.586.599-1.089.898-2.501.898-4.225 0-2.394-.67-4.346-2-5.854-1.328-1.496-3.483-2.25-6.44-2.25h-15.693v16.543h13.156a24.76 24.76 0 0 0 4.19-.335m-84.538-21.523 14.951 39.874 15.024-39.874h8.643v47.452h-5.986v-39.48h-.132l-14.82 39.48h-5.386l-14.82-39.48h-.132v39.48h-5.985v-47.452zm-49.775 0v20.398H61.35v-20.398h6.32v47.452h-6.32v-21.74H36.367v21.74h-6.32v-47.452zm91.194-74.782c0 27.617-22.386 50.002-49.99 50.002-27.617 0-50.002-22.385-50.002-50.002S49.954 0 77.57 0c27.604 0 49.99 22.385 49.99 50.002M77.57 5.722c-24.457 0-44.292 19.824-44.292 44.28s19.835 44.28 44.292 44.28c24.456 0 44.28-19.824 44.28-44.28s-19.824-44.28-44.28-44.28m-.013 68.066c8.835 0 17.202.599 24.66 1.664 2.107-8.894 4.68-13.994 7.35-17.621l-5.015-1.784c.502 2.538.586 3.723.024 5.363-.826-.814-1.604-2.298-2.215-4.56l-2.43 8.08c1.473-1.018 2.61-1.676 3.915-1.712-2.31 4.98-5.195 6.26-7.063 5.913-2.274-.419-3.328-2.454-2.969-4.177.515-2.443 3.029-3.089 4.202-.24 2.239-4.573-1.556-5.997-4.01-4.645 3.759-3.746 4.19-7.086 1.149-11.12-4.226 3.232-4.274 6.44-2.37 10.94-2.466-2.824-6.309-1.316-4.92 3.257 1.783-2.753 4.142-1.018 3.77 1.592-.323 2.286-3.327 4.13-7.086 3.795-5.375-.479-5.686-4.19-5.818-7.266 1.317-.24 3.7.981 5.722 3.83l.742-8.57c-2.202 2.31-4.201 2.74-6.428 2.812.73-2.31 4.142-6.105 4.142-6.105H72.22s3.4 3.795 4.142 6.105c-2.227-.072-4.226-.503-6.44-2.813l.754 8.571c2.035-2.849 4.405-4.07 5.734-3.83-.144 3.076-.455 6.787-5.83 7.266-3.759.335-6.763-1.509-7.087-3.795-.359-2.61 1.987-4.345 3.771-1.592 1.389-4.573-2.454-6.081-4.92-3.256 1.903-4.501 1.856-7.71-2.382-10.941-3.029 4.034-2.598 7.374 1.161 11.12-2.454-1.352-6.249.072-4.01 4.645 1.173-2.849 3.687-2.203 4.202.24.359 1.723-.695 3.758-2.97 4.177-1.879.347-4.752-.933-7.062-5.913 1.293.036 2.442.694 3.915 1.712l-2.43-8.08c-.611 2.262-1.39 3.746-2.215 4.56-.563-1.64-.479-2.825.012-5.363l-5.004 1.784c2.658 3.627 5.244 8.727 7.35 17.62 7.458-1.064 15.814-1.663 24.648-1.663M47.92 51.881c1.903.779 4.058-.12 4.836-1.987a3.708 3.708 0 0 0-2.011-4.836c-1.868-.766-4.034.156-4.8 2.035a3.668 3.668 0 0 0 1.975 4.788m6.548-9.732a3.695 3.695 0 0 0 4.824-1.987 3.698 3.698 0 0 0-2.011-4.836c-1.856-.766-4.022.143-4.8 2.035a3.664 3.664 0 0 0 1.987 4.788m9.876-5.901a3.689 3.689 0 0 0 4.836-1.988 3.69 3.69 0 0 0-2.023-4.824c-1.856-.766-4.022.144-4.8 2.023-.767 1.868.12 4.034 1.987 4.789m15.179-11.744.012-.012 4.669 2.454v-6.883l-4.67 1.472-.011-.011a2.337 2.337 0 0 0-.455-.455l-.012-.012 1.879-5.902h-6.74l1.88 5.902-.012.012c-.18.131-.323.287-.455.455l-.012.011-4.669-1.472v6.883l4.669-2.454.012.012c.144.18.3.347.479.48l-2.67 8.091c-.012 0-.012.012-.012.024v.012a4.079 4.079 0 0 0-.203 1.27 4.359 4.359 0 0 0 3.723 4.309c.035.011.06.011.095.011a4.126 4.126 0 0 0 1.09 0c.035 0 .06 0 .095-.011a4.359 4.359 0 0 0 3.723-4.31c0-.443-.072-.862-.203-1.269V33.1c0-.012 0-.024-.013-.024l-2.681-8.092c.191-.132.347-.3.49-.479m27.619 27.377c-1.903.779-4.058-.12-4.824-1.987a3.698 3.698 0 0 1 2.01-4.836c1.856-.766 4.023.156 4.801 2.035a3.664 3.664 0 0 1-1.987 4.788m-6.536-9.732c-1.904.778-4.058-.12-4.836-1.987a3.708 3.708 0 0 1 2.01-4.836c1.868-.766 4.035.143 4.813 2.035.766 1.867-.132 4.022-1.987 4.788m-21.62 7.17a3.689 3.689 0 1 1-2.813-6.823c1.868-.766 4.035.144 4.8 2.023a3.673 3.673 0 0 1-1.986 4.8m11.743-13.071a3.689 3.689 0 0 1-4.836-1.988 3.695 3.695 0 0 1 2.01-4.824c1.868-.766 4.035.144 4.801 2.023.778 1.868-.12 4.034-1.975 4.789"
     id="path1" />
  <path
     fill="#009390"
     d="M0 238.698h6.32V.084H0Zm0 0"
     id="path2" />
</svg>
