<?xml version="1.0" encoding="UTF-8" standalone="no"?>
<svg
   version="1.2"
   width="288.8"
   height="98.846"
   xml:space="preserve"
   id="svg3"
   sodipodi:docname="mef-italy.svg"
   inkscape:version="1.4.2 (ebf0e940d0, 2025-05-08)"
   inkscape:export-filename="mef-italy.png"
   inkscape:export-xdpi="582.71997"
   inkscape:export-ydpi="582.71997"
   xmlns:inkscape="http://www.inkscape.org/namespaces/inkscape"
   xmlns:sodipodi="http://sodipodi.sourceforge.net/DTD/sodipodi-0.dtd"
   xmlns="http://www.w3.org/2000/svg"
   xmlns:svg="http://www.w3.org/2000/svg"><defs
     id="defs3" /><sodipodi:namedview
     id="namedview3"
     pagecolor="#ffffff"
     bordercolor="#666666"
     borderopacity="1.0"
     inkscape:showpageshadow="2"
     inkscape:pageopacity="0.0"
     inkscape:pagecheckerboard="0"
     inkscape:deskcolor="#d1d1d1"
     inkscape:zoom="4.5325487"
     inkscape:cx="124.65393"
     inkscape:cy="49.420319"
     inkscape:window-width="1415"
     inkscape:window-height="869"
     inkscape:window-x="0"
     inkscape:window-y="0"
     inkscape:window-maximized="1"
     inkscape:current-layer="svg3" /><g
     id="g3"><path
       fill="#003796"
       d="M53.972 68.283h6.694c3.61 0 7.334-.873 10.072-3.316L69.69 70.32c-1.573.118-3.493.29-5.59.29H47.279c1.281-1.977 1.455-5.005 1.455-7.625V41.101c0-2.621 0-5.649-1.28-7.628h20.315L68 37.956c-2.037-1.746-5.18-2.154-8.614-2.154h-5.414v13.912c4.482 0 9.198 0 13.68-.407-2.038 3.318-8.616 3.318-12.224 3.318h-1.456zM81.786 62.985c0 2.62 0 5.648 1.28 7.625h-7.8c1.28-1.977 1.28-5.005 1.28-7.625V41.101c0-2.621.117-5.649-1.164-7.628h18.047c1.452 0 2.676 0 2.676.524v4.542h-.29c-1.629-2.68-5.296-2.737-8.033-2.737h-5.996v14.96c4.481 0 9.196 0 13.677-.408-2.034 3.318-8.613 3.318-12.222 3.318h-1.455z"
       id="path1" /><path
       fill="#c4930a"
       d="M20.59 30.13a.883.883 0 0 0 .412 1.125.822.822 0 0 0 1.099-.389c.116-.234 11.98-23.428 40.897-23.428 30.169 0 42.426 24.784 43.412 41.443.531 8.974-2.52 20.097-8.225 29.027-4.878 7.636-13.724 17.161-28.18 19.168-.455.065-.776.518-.718.99.057.472.47.83.926.774 24.02-2.94 42.297-24.11 42.297-49.24C112.51 22.298 90.984.08 64.7 0h-.335C45.266.08 28.098 11.886 20.589 30.13z"
       id="path2" /></g><path
     fill="#003796"
     d="M18.886 71.23c6.434 14.79 20.372 25.616 37.272 27.61.446.053.85-.282.905-.727a.834.834 0 0 0-.7-.93c-14.098-1.888-23.544-10.346-28.301-17.522-2.963-4.47-5.226-9.523-6.626-14.545l10.465-24.714c.173-.467.349-.874.756-.874.407 0 .407.698.407 1.28v19.327c0 3.26 0 7.567-1.047 10.475h8.556c-1.28-2.327-1.513-5.005-1.803-7.625-.758-6.983-.466-14.26-.466-21.246 0-2.91-.176-6.053 1.165-8.266H33.53c-1.456 0-1.861 1.223-2.386 2.445L21.072 60.193c-.348.814-.523 1.397-1.047 1.397-.465 0-.64-.99-.931-1.863l-8.268-25.38c-.234-.757-1.107-.874-1.805-.874H1.456c1.397.874 1.455 1.688 1.455 3.26v14.552c0 6.288-.234 15.486-2.386 18.57L0 70.611h6.927c-1.28-1.92-1.28-5.703-1.28-10.243l.058-18.92c0-.873 0-1.92.523-1.92.525 0 .932 1.396 1.573 3.084zM152.521 7.545c-.64 1.055-.563 2.559-.563 3.947 0 3.326-.136 6.793.223 10.122.143 1.252.254 2.526.867 3.636h-4.09c.504-1.384.504-3.436.504-4.993v-9.211c0-.276 0-.607-.19-.607-.189 0-.274.185-.362.413l-6.223 14.685-5.263-13.631c-.31-.808-.503-1.467-.75-1.467-.255 0-.255.5-.255.913l-.023 9.015c0 2.169 0 3.976.608 4.883h-3.3l.25-.354c1.03-1.475 1.137-5.852 1.137-8.855v-6.94c0-.753-.032-1.143-.7-1.556h3.444c.34 0 .751.063.866.413l4.101 12.103c.143.417.227.897.442.897.256 0 .343-.285.507-.672l4.803-11.573c.242-.578.444-1.168 1.131-1.168h2.836zM157.511 7.826l1.28 1.86-2.002 1.299-1.276-1.804zm.697 4.597v9.837c0 1.028 0 2.215.504 2.99h-3.054c.488-.775.488-1.962.488-2.99v-7.495c-.016-.947-.016-1.505-.6-1.894zM164.369 12.703v.978c0 .228-.032.447.168.447.25 0 1.468-1.705 3.632-1.705 2.086 0 3.393 1.036 3.393 3.618v6.219c0 1.028 0 2.215.44 2.99H169.5v-7.605c0-1.761-.239-3.707-2.465-3.707-2.194 0-2.614 1.962-2.614 3.85v4.472c0 1.028 0 2.215.498 2.99h-3.048c.498-.775.498-1.962.498-2.99v-6.61c0-1.136 0-2.223-.584-2.779zM177.056 7.826l1.27 1.86-1.998 1.299-1.282-1.804zm.692 4.597v9.837c0 1.028 0 2.215.492 2.99h-3.043c.496-.775.496-1.962.496-2.99v-7.495c-.037-.947-.037-1.505-.615-1.894zM189.29 21.734c0 2.634-2.556 3.96-4.91 3.96-1.111 0-2.064-.216-3.082-.607-.308-.108-.468-.217-.468-.612 0-.662.105-1.334.13-2.028.866 1.387 1.557 2.253 3.387 2.253 1.635 0 2.604-.787 2.604-2.357 0-3.391-5.483-2.834-5.483-6.938 0-2.086 1.604-2.982 4.213-2.982.828 0 1.686.139 2.524.339.084.03.367.082.367.245 0 .508-.035 1.314-.063 1.895-1.08-1.361-1.634-1.642-2.912-1.642-1.078 0-2.086.509-2.086 1.694 0 3.306 5.78 2.914 5.78 6.78zM194.392 8.935v3.936h2.275c.112 0 .247 0 .247.198 0 .59-1.163.803-2.053.803h-.469v8.52c0 .921.135 1.698 1.246 1.698.5 0 1.393-.362 1.697-.669l-.109 1.198c-.027.251-1.336 1.075-2.389 1.075-1.83 0-2.494-1.19-2.494-2.881v-8.94h-1.168v-.882l1.168-.12.108-3.412zM201.58 17.26c-.055.529-.106.974-.106 1.555 0 2.576 1.16 5.05 4.05 5.05 1.358 0 2.692-.552 3.358-1.305v.306c0 1.477-2.338 2.828-4.384 2.828-3.637 0-5.36-3.279-5.36-6.624 0-3.615 2-6.647 5.795-6.647 2.672 0 4.248 1.758 4.248 3.564 0 1.273-.914 1.273-2.637 1.273zm3.029-.832c1.357 0 2.076 0 2.076-1.059 0-1.021-.75-2.11-2.111-2.11-1.739 0-2.492 1.696-2.828 3.169zM211.953 17.313c0-1.973 0-3.885-.713-4.47 1.031-.024 1.992-.14 2.334-.14.498 0 .19 1.393.498 1.393.13 0 1.054-1.673 2.691-1.673.965 0 1.52.396 1.52 1.058 0 .523-.272.912-.969.912-.518 0-1.078-.071-1.746-.071-1.387 0-1.55.968-1.55 2.186v5.718c0 1.035 0 2.22.491 3.024h-3.049c.493-.803.493-1.99.493-3.024v-4.913zM224.703 25.695c-3.832 0-5.364-3.135-5.364-6.158 0-4.302 2.387-7.114 6.553-7.114 3.83 0 5.358 3.142 5.358 6.171 0 4.303-2.385 7.1-6.547 7.1zm.914-.996c2.607 0 3.299-2.579 3.299-4.887 0-3.25-1.002-6.385-3.936-6.385-2.617 0-3.305 2.586-3.305 4.886 0 3.246 1 6.386 3.942 6.386zM142.505 58.96l-.123-1.057c0-.088-.017-.255-.135-.255-.192 0-1.188 1.418-3.742 1.418-3.297 0-4.77-3.268-4.77-6.188 0-4.44 2.856-7.072 7.239-7.072.499 0 .97.054 1.445.1v-3.494c0-1.137 0-2.222-.61-2.773l2.66-.441v16.426c0 1.055 0 2.242.5 3.001zm-.086-10.164c0-1.304-.31-1.995-1.719-1.995-3.08 0-4.743 2.33-4.743 5.5 0 2.516 1.215 5.322 4.07 5.322 1.61 0 2.392-1.225 2.392-2.768zM149.66 50.632c-.053.522-.11.974-.11 1.558 0 2.574 1.168 5.043 4.051 5.043 1.356 0 2.693-.554 3.356-1.301v.305c0 1.471-2.334 2.83-4.383 2.83-3.639 0-5.35-3.27-5.35-6.63 0-3.607 1.992-6.632 5.795-6.632 2.66 0 4.248 1.74 4.248 3.55 0 1.277-.916 1.277-2.644 1.277zm3.023-.836c1.363 0 2.08 0 2.08-1.054 0-1.027-.746-2.11-2.101-2.11-1.752 0-2.5 1.686-2.834 3.164zM159.751 58.626c.508-.777.508-1.974.508-3.002V42.412c0-1.138 0-2.222-.722-2.772l2.787-.442v16.426c0 1.028 0 2.225.49 3.002zM166.45 58.626c.505-.777.505-1.974.505-3.002V42.412c0-1.138 0-2.222-.73-2.772l2.78-.442v16.426c0 1.028 0 2.225.495 3.002zM173.914 46.739c-.133-.984-.528-4.636-.528-5.21 0-.496.283-1.047 1.028-1.047.748 0 1.023.55 1.023 1.046 0 .575-.36 4.227-.518 5.21-.027.137-.054.673-.505.673-.448 0-.467-.536-.5-.672zM182.097 57.507h3.194c1.712 0 3.5-.414 4.798-1.575l-.492 2.543c-.754.061-1.672.15-2.672.15h-8.015c.609-.951.695-2.388.695-3.639V44.558c0-1.258 0-2.698-.615-3.638h9.685l.116 2.133c-.977-.831-2.473-1.02-4.106-1.02h-2.588v6.633c2.135 0 4.393 0 6.528-.204-.973 1.583-4.106 1.583-5.83 1.583h-.698zM201.105 48.945h-.135c-.666-1.28-1.16-2.145-2.773-2.145-2.475 0-3.83 2.555-3.83 5.6 0 2.776 1.025 5.107 4.08 5.107 1.025 0 2.244-.413 3.027-1.248v.445c0 1.442-1.943 2.362-4.058 2.362-3.493 0-5.55-2.856-5.55-6.218 0-3.996 2.583-7.042 6.69-7.042 1.363 0 2.549.273 2.549.38zM208.214 59.066c-3.828 0-5.357-3.134-5.357-6.163 0-4.304 2.38-7.097 6.553-7.097 3.822 0 5.355 3.138 5.355 6.152 0 4.302-2.389 7.108-6.55 7.108zm.916-1c2.604 0 3.3-2.58 3.3-4.885 0-3.251-.999-6.38-3.936-6.38-2.614 0-3.307 2.587-3.307 4.88 0 3.243 1 6.384 3.943 6.384zM219.304 46.079v.968c0 .225-.02.446.174.446.248 0 1.47-1.687 3.633-1.687 2.084 0 3.387 1.015 3.387 3.607v6.211c0 1.028 0 2.225.439 3.001h-2.484v-7.613c0-1.77-.252-3.721-2.479-3.721-2.197 0-2.607 1.977-2.607 3.863v4.47c0 1.028 0 2.225.504 3.001h-3.06c.5-.776.5-1.973.5-3.001v-6.599c0-1.145 0-2.225-.575-2.781zM234.416 59.066c-3.834 0-5.36-3.134-5.36-6.163 0-4.304 2.389-7.097 6.545-7.097 3.836 0 5.36 3.13 5.36 6.152 0 4.302-2.391 7.108-6.545 7.108zm.902-1c2.619 0 3.307-2.58 3.307-4.885 0-3.251-.993-6.38-3.936-6.38-2.613 0-3.303 2.587-3.303 4.88 0 3.243.998 6.384 3.932 6.384zM243.455 49.024c0-1.145 0-2.223-.577-2.78l2.795-.165v.968c0 .225 0 .445.172.445.158 0 1.66-1.687 3.44-1.687 2.418 0 2.586 2.185 2.965 2.185.33 0 1.476-2.185 3.468-2.185 1.865 0 3.168 1.016 3.168 3.608v6.211c0 1.028 0 2.225.446 3.002h-2.499v-7.614c0-1.77-.25-3.72-2.107-3.72-2.223 0-2.527 1.897-2.527 4.008v4.324c0 1.028 0 2.225.502 3.002h-3.057c.498-.777.498-1.974.498-3.002v-4.612c0-1.77-.242-3.72-2.105-3.72-2.225 0-2.522 1.897-2.522 4.008v4.324c0 1.028 0 2.225.488 3.002h-3.043c.495-.777.495-1.974.495-3.002zM264.355 41.2l1.273 1.852-1.994 1.306-1.271-1.806zm.691 4.605v9.819c0 1.028 0 2.225.506 3.001h-3.054c.498-.776.498-1.973.498-3.001v-7.497c-.036-.938-.036-1.494-.612-1.883zM275.515 58.788c-.25-1.028-.22-1.72-.447-1.72-.115 0-.145.051-.176.084-.71 1.05-1.29 1.914-3.238 1.914-1.92 0-3.44-1.055-3.44-3.08 0-2.412 3.127-3.417 4.994-4.304 1.579-.753 1.97-.801 1.97-2.605 0-1.391-.528-2.444-2.165-2.444-2.637 0-1.553 2.655-3.361 2.655-.606 0-1.024-.298-1.024-.97 0-1.88 2.797-2.512 4.94-2.512 1.967 0 3.666.438 3.666 2.243v6.101c0 1.648-.086 3.332.777 4.475l-2.496.163zm-2.84-1.281c1.67 0 2.502-1.487 2.502-3.074v-2.81l-1.5.76c-2.052 1.02-3.133 1.574-3.133 3.162 0 1.33.881 1.962 2.131 1.962zM136.312 83.998c-.059.53-.116.969-.116 1.546 0 2.585 1.174 5.064 4.058 5.064 1.354 0 2.69-.56 3.355-1.31v.307c0 1.467-2.329 2.83-4.381 2.83-3.633 0-5.362-3.272-5.362-6.631 0-3.612 2.005-6.638 5.803-6.638 2.658 0 4.248 1.751 4.248 3.555 0 1.277-.914 1.277-2.637 1.277zm3.025-.832c1.364 0 2.084 0 2.084-1.057 0-1.023-.747-2.102-2.112-2.102-1.747 0-2.493 1.687-2.83 3.159zM161.513 92.323l-.113-1.057c0-.078-.031-.245-.14-.245-.192 0-1.198 1.415-3.749 1.415-3.303 0-4.773-3.274-4.773-6.19 0-4.44 2.857-7.08 7.25-7.08.496 0 .967.057 1.443.112v-3.494c0-1.141 0-2.221-.613-2.783l2.66-.44v16.441c0 1.046 0 2.24.502 2.991zm-.082-10.154c0-1.307-.305-1.997-1.722-1.997-3.084 0-4.752 2.34-4.752 5.492 0 2.528 1.222 5.324 4.084 5.324 1.607 0 2.39-1.224 2.39-2.771zM168.673 83.998c-.056.53-.117.969-.117 1.546 0 2.585 1.164 5.064 4.057 5.064 1.353 0 2.687-.56 3.361-1.31v.307c0 1.467-2.342 2.83-4.383 2.83-3.644 0-5.367-3.272-5.367-6.631 0-3.612 2.004-6.638 5.803-6.638 2.668 0 4.25 1.751 4.25 3.555 0 1.277-.918 1.277-2.645 1.277zm3.02-.832c1.361 0 2.088 0 2.088-1.057 0-1.023-.754-2.102-2.117-2.102-1.745 0-2.497 1.687-2.827 3.159zM178.769 91.993c.506-.784.506-1.969.506-2.99V75.785c0-1.142 0-2.222-.729-2.784l2.78-.44v16.442c0 1.021 0 2.206.498 2.99zM185.458 91.993c.49-.784.49-1.969.49-2.99V75.785c0-1.142 0-2.222-.708-2.784l2.767-.44v16.434c0 1.03 0 2.214.502 2.998zM193.869 83.998c-.059.53-.12.969-.12 1.546 0 2.585 1.17 5.064 4.063 5.064 1.354 0 2.688-.56 3.354-1.31v.307c0 1.467-2.325 2.83-4.387 2.83-3.633 0-5.354-3.272-5.354-6.631 0-3.612 2-6.638 5.801-6.638 2.666 0 4.248 1.751 4.248 3.555 0 1.277-.92 1.277-2.633 1.277zm3.025-.832c1.357 0 2.076 0 2.076-1.057 0-1.023-.75-2.102-2.107-2.102-1.75 0-2.498 1.687-2.83 3.159zM213.824 88.356c0 1.25 0 2.692.61 3.637h-3.727c.617-.945.617-2.388.617-3.637V77.924c0-1.25.056-2.697-.56-3.64h8.603c.699 0 1.28 0 1.28.255v2.155h-.14c-.78-1.267-2.525-1.3-3.834-1.3h-2.85v7.13c2.13 0 4.38 0 6.52-.187-.976 1.579-4.107 1.579-5.836 1.579h-.683zM225.332 74.56l1.273 1.86-1.988 1.31-1.282-1.802zm.695 4.607v9.827c0 1.03 0 2.215.502 3h-3.049c.492-.785.492-1.97.492-3v-7.492c-.023-.942-.023-1.494-.605-1.888zM232.187 79.445v.967c0 .235-.023.45.18.45.238 0 1.455-1.695 3.625-1.695 2.088 0 3.383 1.03 3.383 3.608v6.22c0 1.03 0 2.214.449 2.998h-2.498v-7.605c0-1.78-.254-3.724-2.465-3.724-2.194 0-2.615 1.979-2.615 3.863v4.467c0 1.03 0 2.215.5 3h-3.047c.494-.785.494-1.97.494-3v-6.602c0-1.136 0-2.22-.58-2.778zM249.341 92.155c-.254-1.016-.224-1.712-.441-1.712-.11 0-.143.05-.166.081-.725 1.056-1.307 1.905-3.252 1.905-1.912 0-3.443-1.047-3.443-3.078 0-2.409 3.136-3.409 5.002-4.29 1.578-.756 1.966-.81 1.966-2.614 0-1.392-.525-2.44-2.164-2.44-2.635 0-1.552 2.656-3.36 2.656-.605 0-1.026-.3-1.026-.97 0-1.885 2.812-2.526 4.947-2.526 1.967 0 3.654.447 3.654 2.248v6.108c0 1.64-.084 3.33.783 4.47l-2.5.162zm-2.828-1.273c1.656 0 2.494-1.505 2.494-3.08v-2.809l-1.502.752c-2.045 1.03-3.132 1.583-3.132 3.168 0 1.328.896 1.969 2.14 1.969zM256.333 79.445v.967c0 .235-.033.45.168.45.252 0 1.47-1.695 3.627-1.695 2.088 0 3.397 1.03 3.397 3.608v6.22c0 1.03 0 2.214.441 2.998h-2.5v-7.605c0-1.78-.248-3.724-2.474-3.724-2.184 0-2.608 1.979-2.608 3.863v4.467c0 1.03 0 2.215.51 3h-3.059c.502-.785.502-1.97.502-3v-6.602c0-1.136 0-2.22-.593-2.778zM276.673 79.614l-8.043 11.048c-.06.078-.14.162-.14.302 0 .14.111.14.332.14h3.63c1.864 0 3.64-.477 4.696-1.53l-.416 2.42H265.32l8.027-10.94c.11-.164.22-.333.22-.439 0-.113-.19-.113-.44-.113h-3.143c-1.44 0-2.385.443-3.416 1.247l.344-2.135zM281.2 83.998c-.062.53-.115.969-.115 1.546 0 2.585 1.16 5.064 4.053 5.064 1.36 0 2.694-.56 3.362-1.31v.307c0 1.467-2.33 2.824-4.39 2.824-3.632 0-5.349-3.266-5.349-6.625 0-3.612 1.998-6.638 5.79-6.638 2.667 0 4.25 1.751 4.25 3.555 0 1.277-.915 1.277-2.632 1.277zm3.022-.832c1.361 0 2.08 0 2.08-1.057 0-1.023-.744-2.102-2.105-2.102-1.752 0-2.492 1.687-2.832 3.159z"
     id="path3" /></svg>
