<?xml version="1.0" encoding="UTF-8" standalone="no"?>
<!-- Generator: Adobe Illustrator 24.3.0, SVG Export Plug-In . SVG Version: 6.00 Build 0)  -->

<svg
   version="1.1"
   id="new"
   x="0px"
   y="0px"
   viewBox="0 0 1000 973.99999"
   xml:space="preserve"
   sodipodi:docname="ami-logo-square.svg"
   inkscape:version="1.4 (e7c3feb100, 2024-10-09)"
   width="1000"
   height="974"
   xmlns:inkscape="http://www.inkscape.org/namespaces/inkscape"
   xmlns:sodipodi="http://sodipodi.sourceforge.net/DTD/sodipodi-0.dtd"
   xmlns="http://www.w3.org/2000/svg"
   xmlns:svg="http://www.w3.org/2000/svg"><defs
   id="defs17" /><sodipodi:namedview
   id="namedview17"
   pagecolor="#ffffff"
   bordercolor="#666666"
   borderopacity="1.0"
   inkscape:showpageshadow="2"
   inkscape:pageopacity="0.0"
   inkscape:pagecheckerboard="0"
   inkscape:deskcolor="#d1d1d1"
   showguides="true"
   inkscape:zoom="0.58"
   inkscape:cx="534.48276"
   inkscape:cy="455.17241"
   inkscape:window-width="1415"
   inkscape:window-height="869"
   inkscape:window-x="0"
   inkscape:window-y="0"
   inkscape:window-maximized="1"
   inkscape:current-layer="new"><sodipodi:guide
     position="0.82527465,148.93414"
     orientation="1,0"
     id="guide19"
     inkscape:locked="false" /><sodipodi:guide
     position="245.51996,108.43885"
     orientation="1,0"
     id="guide20"
     inkscape:locked="false" /><sodipodi:guide
     position="222.55367,122.09304"
     orientation="0,-1"
     id="guide21"
     inkscape:locked="false" /><sodipodi:guide
     position="917.84458,673.65951"
     orientation="1,0"
     id="guide22"
     inkscape:locked="false" /><sodipodi:guide
     position="976.59533,789.82488"
     orientation="1,0"
     id="guide23"
     inkscape:locked="false" /><sodipodi:guide
     position="514.38272,434.457"
     orientation="0,-1"
     id="guide24"
     inkscape:locked="false" /><sodipodi:guide
     position="-5.1724138,239.51724"
     orientation="0,-1"
     id="guide25"
     inkscape:locked="false" /></sodipodi:namedview>
<style
   type="text/css"
   id="style1">
	.st0{fill:#CC0000;}
</style>















<g
   id="g1"><g
     id="g21"
     transform="matrix(3.7193938,0,0,3.7193938,2.815929,10)"><path
       d="m 60.020347,194.78869 h 12.342317 v 61.84308 H 60.020347 v -8.64313 C 55.909163,252.60824 48.195215,258.42 35.686346,258.42 c -17.99629,0 -34.6163424,-11.02744 -34.6163424,-32.78428 0,-21.30978 16.4535014,-32.33722 34.6163424,-32.33722 13.70979,0 21.08187,6.55685 24.334001,10.28234 z m -46.274924,30.83826 c 0,13.26274 8.564236,23.24704 23.308396,23.24704 15.077263,0 23.650264,-10.87842 23.650264,-23.09802 0,-15.93631 -12.684185,-22.94899 -23.650264,-22.94899 -12.167,0 -23.308396,7.74901 -23.308396,22.79997 z"
       id="path1"
       style="stroke-width:0.876585" /><path
       d="m 104.2353,194.78869 h 12.34231 v 6.55686 c 3.94464,-5.06666 10.10703,-8.04705 17.65443,-8.04705 12.85073,0 17.99629,7.89803 19.36376,9.9843 6.85489,-9.38822 16.62005,-9.9843 21.42374,-9.9843 21.08187,0 23.13308,15.349 23.13308,24.14115 v 39.19212 H 185.8103 v -37.55291 c 0,-7.00391 -1.02561,-16.24312 -12.68419,-16.24312 -14.22697,0 -15.76976,11.92156 -15.76976,19.37253 v 34.4235 h -12.34232 v -36.65879 c 0,-4.32156 0.17532,-17.13724 -12.85074,-17.13724 -14.05165,0 -15.59444,12.66666 -15.59444,20.11763 v 33.6784 h -12.34232 v -61.84308 z"
       id="path2"
       style="stroke-width:0.876585" /><path
       d="m 242.52535,194.78869 v 61.84308 h -12.34232 v -61.84308 z"
       id="path3"
       style="stroke-width:0.876585" /><path
       class="st0"
       d="m 236.59087,179.13288 c 2.49827,0 4.62837,-0.88535 6.40784,-2.66481 1.7707,-1.77071 2.66481,-3.88328 2.66481,-6.32018 0,-2.49827 -0.88535,-4.60207 -2.66481,-6.32018 -1.77947,-1.71811 -3.90957,-2.57716 -6.40784,-2.57716 -2.33172,0 -4.38293,0.90288 -6.15363,2.69988 -1.77947,1.80577 -2.66482,3.86574 -2.66482,6.19746 0,2.38431 0.88535,4.47935 2.66482,6.27635 1.7707,1.80576 3.82191,2.70864 6.15363,2.70864 z"
       id="path4"
       style="stroke-width:0.876585" /></g><g
     id="g19"
     transform="matrix(3.7193938,0,0,3.7193938,2.815929,0)"><path
       class="st0"
       d="M 239.33,129.89 39.52,133.7 0,144.84 h 245.59 c 0,0 -4.14,-10.15 -6.26,-14.95 z"
       id="path5" /><path
       class="st0"
       d="m 221.78,119.49 2.71,5.84 h 12.43 c -1.32,-2.89 -2.71,-5.86 -4.05,-8.63 L 68.28,98.1 l -50.51,26.15 41.48,-15.04 110.95,7.01 3.39,9.11 h 24.73 l -3.1,-7.52 z"
       id="path6" /><polygon
       class="st0"
       points="216.38,108.53 229.7,110.33 225.34,102.02 185.5,92.96 182.86,93.66 181.98,92.16 89.88,71.2 35.45,106.98 82.74,80.27 159.85,94.18 163.5,101.39 188.91,104.82 185.96,99.03 213.79,103.67 "
       id="polygon6" /><polygon
       class="st0"
       points="70.59,74.55 112.75,42.25 130.2,48.36 134.14,54.09 164.93,65.55 156.72,53.15 117.07,36.55 "
       id="polygon7" /><polygon
       class="st0"
       points="173.65,78.91 169.15,71.92 106.27,50.66 55.91,87.91 101.42,56.86 144.47,69.42 150.07,78.08 177.52,85.36 178.37,86.5 187.32,83.01 205.24,88.38 208.24,93.5 222.7,97.33 217.39,88.23 188.12,78.33 177.36,84.67 174.34,79.99 189.24,71.17 195.63,73.3 198.88,78.18 214.86,84.15 209.35,75.71 189.94,67.39 "
       id="polygon8" /><polygon
       class="st0"
       points="197.08,58.83 126.78,23.22 90.05,56.45 120.37,32.12 151.93,46.41 147.36,40.06 183.76,56.92 188.29,62.91 206.04,70.92 "
       id="polygon9" /><polygon
       class="st0"
       points="104.04,41.63 129.7,19.09 169.76,39.99 174.86,45.91 194.62,55.72 187.45,47.07 132.4,14.8 "
       id="polygon10" /><polygon
       class="st0"
       points="118.36,26.13 134.39,12.07 155.06,24.31 159.65,28.9 184.4,43.51 174.49,32.57 135.94,9.63 "
       id="polygon11" /><polygon
       class="st0"
       points="129.13,14.8 137.05,7.83 140.92,10.05 145.07,14.08 170.42,28.33 162.07,19.85 137.9,6.42 "
       id="polygon12" /><polygon
       class="st0"
       points="138.66,5.11 158.26,16.09 152.04,10.12 139.95,2.8 135.24,8.09 "
       id="polygon13" /><polygon
       class="st0"
       points="138.7,2.95 140.55,1.65 147.67,5.91 141.38,0 "
       id="polygon14" /></g><g
     id="g17"
     transform="matrix(2.4628811,0,0,2.4628811,-400.83717,318.36698)"
     style="fill:#cc0000;fill-opacity:1">
	<g
   id="g16"
   style="fill:#cc0000;fill-opacity:1">
		<g
   id="g15"
   style="fill:#cc0000;fill-opacity:1">
			<path
   d="m 558.08,79.45 c -0.36,-0.85 -0.86,-1.59 -1.5,-2.21 -0.64,-0.63 -1.38,-1.11 -2.22,-1.45 -0.84,-0.34 -1.75,-0.51 -2.71,-0.51 -1.01,0 -1.95,0.17 -2.79,0.51 -0.85,0.34 -1.59,0.83 -2.21,1.45 -0.62,0.62 -1.11,1.37 -1.45,2.21 -0.34,0.85 -0.51,1.78 -0.51,2.79 0,1.01 0.17,1.94 0.51,2.79 0.34,0.85 0.83,1.59 1.45,2.21 0.62,0.62 1.37,1.11 2.21,1.45 0.85,0.34 1.78,0.51 2.79,0.51 1.01,0 1.94,-0.17 2.79,-0.51 0.85,-0.34 1.59,-0.83 2.21,-1.45 0.62,-0.62 1.11,-1.36 1.45,-2.21 0.34,-0.85 0.51,-1.78 0.51,-2.79 0.01,-1.01 -0.17,-1.95 -0.53,-2.79 z m -1,5.18 c -0.3,0.72 -0.73,1.35 -1.27,1.89 -0.54,0.54 -1.17,0.95 -1.88,1.24 -0.71,0.29 -1.47,0.44 -2.28,0.44 -0.86,0 -1.65,-0.16 -2.38,-0.47 -0.72,-0.31 -1.35,-0.74 -1.87,-1.28 -0.53,-0.54 -0.93,-1.18 -1.23,-1.9 -0.29,-0.72 -0.44,-1.49 -0.44,-2.32 0,-1.15 0.25,-2.18 0.76,-3.08 0.51,-0.9 1.21,-1.61 2.1,-2.12 0.89,-0.51 1.91,-0.77 3.05,-0.77 0.86,0 1.65,0.16 2.37,0.47 0.72,0.31 1.34,0.74 1.86,1.28 0.53,0.54 0.93,1.18 1.23,1.9 0.29,0.72 0.44,1.49 0.44,2.32 0,0.88 -0.15,1.68 -0.46,2.4 z"
   id="path14"
   style="fill:#cc0000;fill-opacity:1" />
			<path
   d="m 554.03,81.96 c 0.3,-0.35 0.46,-0.82 0.46,-1.42 0,-0.81 -0.24,-1.42 -0.72,-1.83 -0.48,-0.41 -1.24,-0.62 -2.28,-0.62 h -2.43 v 8.3 h 1.44 V 83.1 h 1.18 l 1.9,3.29 h 1.63 l -2.2,-3.69 c 0.37,-0.14 0.71,-0.39 1.02,-0.74 z m -2.59,-0.03 h -0.95 v -2.62 h 0.93 c 0.56,0 0.96,0.1 1.22,0.3 0.25,0.2 0.38,0.53 0.38,0.97 0,0.41 -0.14,0.73 -0.42,0.98 -0.28,0.25 -0.66,0.37 -1.16,0.37 z"
   id="path15"
   style="fill:#cc0000;fill-opacity:1" />
		</g>
	</g>
</g></g>
</svg>
