<?xml version="1.0" encoding="UTF-8" standalone="no"?>
<svg
   id="Layer_1"
   data-name="Layer 1"
   viewBox="0 0 518.80997 408.84486"
   version="1.1"
   sodipodi:docname="us_airforce.svg"
   width="518.81"
   height="408.84488"
   inkscape:version="1.4.2 (ebf0e940d0, 2025-05-08)"
   inkscape:export-filename="us_airforce.png"
   inkscape:export-xdpi="185.03883"
   inkscape:export-ydpi="185.03883"
   xmlns:inkscape="http://www.inkscape.org/namespaces/inkscape"
   xmlns:sodipodi="http://sodipodi.sourceforge.net/DTD/sodipodi-0.dtd"
   xmlns="http://www.w3.org/2000/svg"
   xmlns:svg="http://www.w3.org/2000/svg">
  <sodipodi:namedview
     id="namedview18"
     pagecolor="#ffffff"
     bordercolor="#000000"
     borderopacity="0.25"
     inkscape:showpageshadow="2"
     inkscape:pageopacity="0.0"
     inkscape:pagecheckerboard="0"
     inkscape:deskcolor="#d1d1d1"
     inkscape:zoom="0.43607053"
     inkscape:cx="256.83919"
     inkscape:cy="204.09542"
     inkscape:window-width="1415"
     inkscape:window-height="869"
     inkscape:window-x="0"
     inkscape:window-y="0"
     inkscape:window-maximized="1"
     inkscape:current-layer="Layer_1" />
  <defs
     id="defs1">
    <style
       id="style1">.cls-1{fill:#1d1d1b;}</style>
  </defs>
  <title
     id="title1">US Air Force Logo 02 20190324</title>
  <path
     class="cls-1"
     d="m 240.89,233.92 a 19.8,19.8 0 1 0 19.8,-19.79 19.8,19.8 0 0 0 -19.8,19.79 z"
     id="path1" />
  <polygon
     class="cls-1"
     points="188.1,165.43 319.87,261.13 330.02,229.96 159.72,106.25 "
     id="polygon1"
     transform="translate(-73.11,-57.6)" />
  <polygon
     class="cls-1"
     points="223.83,239.66 264.23,269.01 317.23,268.98 195.36,180.43 "
     id="polygon2"
     transform="translate(-73.11,-57.6)" />
  <polygon
     class="cls-1"
     points="294.47,339.32 307.13,300.28 287.24,285.74 253.97,309.86 "
     id="polygon3"
     transform="translate(-73.11,-57.6)" />
  <polygon
     class="cls-1"
     points="300.49,343.63 333.76,319.5 366.9,343.65 366.96,343.65 333.72,367.81 "
     id="polygon4"
     transform="translate(-73.11,-57.6)" />
  <polygon
     class="cls-1"
     points="479.27,165.49 507.71,106.25 337.41,229.92 347.53,261.14 "
     id="polygon5"
     transform="translate(-73.11,-57.6)" />
  <polygon
     class="cls-1"
     points="403.19,269 403.19,269 443.62,239.71 472.1,180.43 350.17,269.01 403.19,269 "
     id="polygon6"
     transform="translate(-73.11,-57.6)" />
  <polygon
     class="cls-1"
     points="413.44,309.87 380.3,285.77 360.13,300.37 373.01,339.3 "
     id="polygon7"
     transform="translate(-73.11,-57.6)" />
  <polygon
     class="cls-1"
     points="503.68,99.39 483.6,57.62 441.96,144.22 "
     id="polygon8"
     transform="translate(-73.11,-57.6)" />
  <polygon
     class="cls-1"
     points="183.85,57.6 163.79,99.4 225.47,144.23 "
     id="polygon9"
     transform="translate(-73.11,-57.6)" />
  <path
     class="cls-1"
     d="m 250.89,395.94 a 15.87,15.87 0 0 0 -2,-2.45 12.77,12.77 0 0 0 -2.33,-2.07 l -0.13,-0.06 a 11.86,11.86 0 0 0 1.24,-0.5 12.33,12.33 0 0 0 4.56,-3.92 10.87,10.87 0 0 0 -0.53,-12.46 11.2,11.2 0 0 0 -5.79,-3.69 37.82,37.82 0 0 0 -9.57,-0.92 h -23 v 38.31 h 15.63 V 393.7 a 4.83,4.83 0 0 1 2.44,0.65 7.47,7.47 0 0 1 1.93,2.34 c 0,0 7.32,11.5 7.32,11.5 h 17.66 l -7.43,-12.26 z m -11.35,-13.82 a 2.84,2.84 0 0 1 -0.25,1.08 3.47,3.47 0 0 1 -0.56,0.85 3.56,3.56 0 0 1 -2.09,1.15 23.54,23.54 0 0 1 -3.43,0.49 h -5.46 v -7.29 h 5.68 c 2.36,0 4,0.31 4.84,0.93 v 0 a 3.48,3.48 0 0 1 0.53,0.48 l 0.05,0.06 a 3,3 0 0 1 0.61,1.26 0.5,0.5 0 0 1 0,0.12 3.79,3.79 0 0 1 0.08,0.77 v 0 a 0.59,0.59 0 0 1 0.02,0.1 z"
     id="path9" />
  <polygon
     class="cls-1"
     points="197.93,465.77 197.93,455.26 197.43,455.26 185.05,455.26 185.05,465.77 "
     id="polygon10"
     transform="translate(-73.11,-57.6)" />
  <polygon
     class="cls-1"
     points="134.74,465.78 134.74,455.28 134.24,455.28 121.87,455.28 121.87,465.78 "
     id="polygon11"
     transform="translate(-73.11,-57.6)" />
  <path
     class="cls-1"
     d="m 44.13,369.94 h -15 v 23 a 4.32,4.32 0 0 1 -1.6,3.62 7.48,7.48 0 0 1 -4.82,1.34 7.64,7.64 0 0 1 -4.88,-1.37 4.3,4.3 0 0 1 -1.57,-3.59 v -23 H 0 v 22.56 a 18.63,18.63 0 0 0 1.36,6.48 12.34,12.34 0 0 0 3.26,4.61 17.22,17.22 0 0 0 5.12,3.31 23.63,23.63 0 0 0 6.81,1.5 c 2.62,0.25 5,0.37 7.25,0.37 a 35.89,35.89 0 0 0 10,-1.24 17.49,17.49 0 0 0 6,-3.18 14.14,14.14 0 0 0 4.24,-5.4 16,16 0 0 0 1.34,-6.49 v -22.52 z"
     id="path11" />
  <path
     class="cls-1"
     d="m 99.99,384.45 a 44.63,44.63 0 0 0 -6.6,-1.93 l 13.73,-0.67 -0.21,-1.37 a 12.09,12.09 0 0 0 -6.09,-9.16 c -3.24,-1.83 -7.94,-2.76 -14,-2.76 a 36.54,36.54 0 0 0 -11.66,1.51 14.6,14.6 0 0 0 -6.69,4.33 9.32,9.32 0 0 0 2.21,14.17 c 2.8,2 7.3,3.49 13.73,4.66 4.7,0.83 6.22,1.55 6.7,1.9 1,0.76 1,1.34 1,1.53 0,0.19 0,0.84 -1.1,1.61 a 7,7 0 0 1 -4,0.92 7.12,7.12 0 0 1 -5.37,-1.86 6.06,6.06 0 0 1 -1.44,-3.35 l -0.19,-1.1 -15.81,0.82 0.14,1.31 a 14.29,14.29 0 0 0 5.55,9.94 c 3.25,2.6 8.79,3.86 16.94,3.86 a 35.23,35.23 0 0 0 11.43,-1.6 16.2,16.2 0 0 0 7.35,-4.87 11.25,11.25 0 0 0 2.72,-7.28 10.07,10.07 0 0 0 -2.07,-6.16 14.8,14.8 0 0 0 -6.27,-4.45 z m -13.52,-3.31 c -3.14,-0.52 -4,-1 -4.27,-1.13 -0.44,-0.3 -0.53,-0.51 -0.53,-0.55 v 0 c 0,-0.16 0,-0.55 0.71,-1 a 5.78,5.78 0 0 1 3,-0.63 7.33,7.33 0 0 1 4.05,0.93 4.26,4.26 0 0 1 1.73,2.84 l 0.1,0.48 c -1.43,-0.33 -3.02,-0.63 -4.79,-0.94 z"
     id="path12" />
  <polygon
     class="cls-1"
     points="277.56,465.79 277.56,427.48 276.31,427.48 262.75,427.48 262.75,465.79 "
     id="polygon12"
     transform="translate(-73.11,-57.6)" />
  <path
     class="cls-1"
     d="m 275.89,369.94 v 38.25 h 16.38 v -14.63 h 17.32 v -9.75 h -17.37 v -3.62 h 20.37 v -10.25 z"
     id="path13" />
  <path
     class="cls-1"
     d="m 456.38,391.97 a 8.91,8.91 0 0 1 -2.63,4.5 8.2,8.2 0 0 1 -5.34,1.47 7.92,7.92 0 0 1 -5.65,-1.86 c -1.28,-1.2 -1.93,-3.64 -1.93,-7.22 0,-2.87 0.55,-5 1.64,-6.21 1.48,-1.75 3.59,-2.59 6.46,-2.59 a 9.1,9.1 0 0 1 3.39,0.6 6.75,6.75 0 0 1 2.47,1.65 6.23,6.23 0 0 1 1.13,2 l 0.38,0.93 15.06,-2.58 -0.63,-1.45 a 18,18 0 0 0 -7.93,-9 c -3.48,-1.92 -8.28,-2.89 -14.25,-2.89 -7.65,0 -13.68,1.69 -17.93,5 -4.25,3.31 -6.54,8.33 -6.54,14.61 a 18.13,18.13 0 0 0 3.72,11.73 19.79,19.79 0 0 0 8.73,6.36 38.46,38.46 0 0 0 12.65,1.77 32.66,32.66 0 0 0 10.56,-1.39 18.38,18.38 0 0 0 7.16,-4.44 17.77,17.77 0 0 0 4.25,-7.35 l 0.4,-1.28 -14.85,-3.46 z"
     id="path14" />
  <path
     class="cls-1"
     d="m 494.94,397.56 v -4.5 h 21.49 v -9.75 h -21.5 v -3.25 h 23.24 v -10.12 h -39.61 v 38.25 h 40.25 v -10.63 z"
     id="path15" />
  <path
     class="cls-1"
     d="m 170.08,369.88 h -16.44 l -17.65,38.31 h 16.72 l 2.12,-5.87 h 13.7 l 2.19,5.87 h 17 z m -13.19,23.45 4.85,-12.93 4.86,12.89 z"
     id="path16" />
  <path
     class="cls-1"
     d="m 413.89,395.96 a 14.85,14.85 0 0 0 -2,-2.44 12.19,12.19 0 0 0 -2.35,-2.08 l -0.12,-0.06 a 13.13,13.13 0 0 0 1.23,-0.49 12.45,12.45 0 0 0 4.56,-3.93 10.84,10.84 0 0 0 -0.52,-12.46 11.13,11.13 0 0 0 -5.79,-3.68 37.25,37.25 0 0 0 -9.56,-0.93 h -23 v 38.31 h 15.62 v -14.48 a 4.8,4.8 0 0 1 2.44,0.65 7.15,7.15 0 0 1 1.93,2.35 l 7.33,11.49 h 17.65 l -7.42,-12.27 z m -12.16,-11.91 a 3.56,3.56 0 0 1 -2.09,1.15 22.17,22.17 0 0 1 -3.43,0.49 h -5.46 v -7.29 h 5.69 q 3.54,0 4.83,0.93 a 2.85,2.85 0 0 1 0.68,0.66 v 0 a 3.09,3.09 0 0 1 0.57,1.43 5.47,5.47 0 0 1 0,0.59 3,3 0 0 1 -0.76,2.04 z"
     id="path17" />
  <path
     class="cls-1"
     d="m 360.63,374.4 c -4.23,-3.36 -10.29,-5.07 -18,-5.07 -7.52,0 -13.51,1.74 -17.79,5.16 -4.28,3.42 -6.57,8.41 -6.57,14.62 a 18.35,18.35 0 0 0 3.31,11.19 19.12,19.12 0 0 0 8.61,6.53 36.49,36.49 0 0 0 13,2 31.73,31.73 0 0 0 12.95,-2.34 18.46,18.46 0 0 0 8.16,-6.69 19.7,19.7 0 0 0 2.85,-11 c 0,-6.15 -2.19,-10.99 -6.52,-14.4 z m -11,22.61 a 11.16,11.16 0 0 1 -13.69,0 v 0 a 6,6 0 0 1 -0.58,-0.65 1.88,1.88 0 0 1 -0.16,-0.23 c -0.14,-0.19 -0.27,-0.38 -0.39,-0.58 l -0.12,-0.24 a 8.23,8.23 0 0 1 -0.37,-0.79 1.8,1.8 0 0 0 -0.08,-0.21 10.93,10.93 0 0 1 -0.32,-1.06 0.14,0.14 0 0 1 0,-0.07 c -0.06,-0.24 -0.11,-0.49 -0.16,-0.74 0,-0.08 0,-0.16 0,-0.24 0,-0.23 -0.07,-0.46 -0.1,-0.71 -0.03,-0.25 0,-0.32 -0.05,-0.48 -0.05,-0.16 0,-0.36 0,-0.55 0,-0.38 0,-0.77 0,-1.18 0,0 0,-0.08 0,-0.13 0,-3.59 0.85,-6.18 2.51,-7.74 a 9.41,9.41 0 0 1 6.69,-2.36 9.76,9.76 0 0 1 6.88,2.34 v 0 a 5,5 0 0 1 0.66,0.72 l 0.23,0.31 c 0.11,0.16 0.22,0.32 0.32,0.49 a 3.75,3.75 0 0 1 0.24,0.44 6.65,6.65 0 0 1 0.27,0.61 c 0.06,0.15 0.13,0.29 0.18,0.44 a 8.51,8.51 0 0 1 0.3,1.08 c 0,0.16 0.06,0.33 0.1,0.5 0.04,0.17 0.09,0.57 0.12,0.87 0.03,0.3 0,0.32 0.05,0.48 0,0.47 0.07,0.95 0.07,1.46 v 0 q -0.2,5.88 -2.63,8.2 z"
     id="path18" />
</svg>
