<?xml version="1.0" encoding="UTF-8" standalone="no"?>
<svg xmlns:dc="http://purl.org/dc/elements/1.1/" xmlns:cc="http://creativecommons.org/ns#" xmlns:rdf="http://www.w3.org/1999/02/22-rdf-syntax-ns#" xmlns:svg="http://www.w3.org/2000/svg" xmlns="http://www.w3.org/2000/svg" id="svg8" version="1.1" viewBox="0 0 130.96358 60.988422" height="60.988422mm" width="130.96358mm">
  <defs id="defs2"/>
  <metadata id="metadata5">
    <rdf:RDF>
      <cc:Work rdf:about="">
        <dc:format>image/svg+xml</dc:format>
        <dc:type rdf:resource="http://purl.org/dc/dcmitype/StillImage"/>
        <dc:title/>
      </cc:Work>
    </rdf:RDF>
  </metadata>
  <g transform="translate(64.165224,-37.968579)" id="layer1">
    <path id="path826" d="M -64.165224,85.31202 V 71.68598 h 5.55625 5.55625 v 1.86977 1.86977 l 7.871356,-0.0838 c 7.63188,-0.0813 7.906136,-0.1024 9.014621,-0.69411 0.628796,-0.33565 1.650185,-1.13932 2.26975,-1.78594 l 1.126484,-1.17566 h 5.745885 5.745885 l -0.162382,0.99219 c -0.234215,1.43109 -2.041584,5.01568 -3.274971,6.49533 -2.299023,2.75804 -5.789282,4.93266 -9.6837,6.03349 -1.946217,0.55013 -2.781575,0.60663 -10.384697,0.70231 l -8.268231,0.10405 v 6.46236 6.46235 h -5.55625 -5.55625 z m 47.360419,0.005 V 71.68561 h 5.558652 5.5586526 l -0.06855,13.5599 -0.06855,13.55989 -5.4901036,0.0715 -5.490104,0.0715 z m 11.9062496,13.40495 c 0,-0.11865 1.041797,-1.50551 2.315104,-3.08191 1.273308,-1.5764 3.32713605,-4.14303 4.564063,-5.70364 2.876955,-3.62979 7.564655,-9.47054 8.2376364,-10.26387 l 0.519176,-0.61203 -2.5924674,-3.06048 c -1.425858,-1.68326 -2.810759,-3.34262 -3.07756,-3.68745 l -0.485087,-0.62698 h 13.1366514 13.13666 l -1.00948,1.25677 c -0.55522,0.69122 -1.66577,2.03068 -2.46789,2.97656 -0.80211,0.94589 -1.7988,2.16641 -2.21485,2.71228 l -0.75646,0.99248 1.02381,1.22808 c 1.27407,1.52826 5.47081,6.68088 8.94963,10.98808 1.44878,1.79375 3.3471,4.09481 4.218478,5.11346 l 1.58433,1.85208 -6.732018,0.0758 -6.73202,0.0758 -0.74906,-0.86952 c -0.95285,-1.10607 -6.67787,-8.40246 -7.68463,-9.79387 l -0.76078,-1.05144 -0.61413,0.62227 c -0.33778,0.34225 -1.8409,2.1832 -3.340268,4.09099 -1.49937,1.9078 -3.362076,4.25928 -4.1393434,5.22552 l -1.413213,1.7568 h -6.458141 c -3.551979,0 -6.458141,-0.0971 -6.458141,-0.21572 z M 40.874359,85.31165 V 71.68561 h 5.55625 5.55625 v 13.62604 13.62604 h -5.55625 -5.55625 z m 14.81667,0 V 71.68561 h 5.42396 5.42396 v 13.62604 13.62604 h -5.42396 -5.42396 z M -12.836055,49.74001 c -4.368292,-0.85406 -6.259346,-6.17049 -3.41943,-9.61327 1.159531,-1.40568 2.687378,-2.12614 4.514511,-2.12883 4.1463626,-0.006 6.9157056,3.7062 5.7880486,7.7589 -0.750594,2.69758 -3.959844,4.55474 -6.8831296,3.9832 z m 57.367104,-0.12298 c -2.44998,-0.65172 -4.05581,-2.55166 -4.3653,-5.1648 -0.61076,-5.15697 5.74759,-8.50324 9.71102,-5.1107 2.20641,1.88861 2.74735,4.81325 1.38249,7.47454 -1.19731,2.33457 -4.03716,3.51681 -6.72821,2.80096 z m 15.12873,0.12466 c -5.55733,-1.1169 -6.54353,-8.58483 -1.47674,-11.18251 1.9543,-1.00195 5.10768,-0.56811 6.73367,0.92641 0.95467,0.87748 1.88165,3.05454 1.88165,4.41914 0,1.3646 -0.92698,3.54166 -1.88165,4.41914 -1.231,1.13147 -3.55842,1.75919 -5.25693,1.41782 z" style="fill:#000000;stroke-width:0.26458335"/>
  </g>
</svg>