<?xml version="1.0" encoding="UTF-8" standalone="no"?>
<svg
   version="1.0"
   width="1920.000000pt"
   height="1920.000000pt"
   viewBox="0 0 1920.000000 1920.000000"
   preserveAspectRatio="xMidYMid meet"
   id="svg3"
   sodipodi:docname="buerokratt.svg"
   inkscape:export-filename="buerokratt.png"
   inkscape:export-xdpi="96"
   inkscape:export-ydpi="96"
   inkscape:version="1.4.2 (ebf0e940d0, 2025-05-08)"
   xmlns:inkscape="http://www.inkscape.org/namespaces/inkscape"
   xmlns:sodipodi="http://sodipodi.sourceforge.net/DTD/sodipodi-0.dtd"
   xmlns="http://www.w3.org/2000/svg"
   xmlns:svg="http://www.w3.org/2000/svg">
  <defs
     id="defs3" />
  <sodipodi:namedview
     id="namedview3"
     pagecolor="#ffffff"
     bordercolor="#666666"
     borderopacity="1.0"
     inkscape:showpageshadow="2"
     inkscape:pageopacity="0.0"
     inkscape:pagecheckerboard="0"
     inkscape:deskcolor="#d1d1d1"
     inkscape:document-units="pt"
     inkscape:zoom="0.24140625"
     inkscape:cx="1280"
     inkscape:cy="1280"
     inkscape:window-width="1415"
     inkscape:window-height="869"
     inkscape:window-x="0"
     inkscape:window-y="0"
     inkscape:window-maximized="1"
     inkscape:current-layer="svg3" />
  <g
     transform="translate(0.000000,1920.000000) scale(0.100000,-0.100000)"
     fill="#000000"
     stroke="none"
     id="g3">
    <path
       d="M9210 15979 c-2616 -121 -4875 -1177 -6036 -2819 -732 -1034 -959 -2288 -623 -3428 l40 -132 -25 -83 c-65 -215 -110 -430 -142 -682 -23 -174 -26 -681 -6 -845 61 -498 190 -926 409 -1365 239 -476 532 -874 955 -1292 380 -376 743 -656 1233 -950 1234 -741 2863 -1180 4405 -1187 l275 -1 67 32 c126 59 204 161 229 296 10 53 10 81 0 134 -25 136 -104 237 -229 296 l-67 31 -260 7 c-298 8 -401 14 -645 35 -2201 189 -4118 1168 -5033 2570 -345 529 -535 1103 -553 1669 l-5 160 23 -30 c13 -16 58 -75 101 -130 185 -238 453 -519 712 -745 1399 -1224 3483 -1929 5705 -1930 2093 -1 4062 508 5388 1392 307 205 492 356 748 612 313 314 483 544 649 881 138 278 215 527 256 825 20 140 17 477 -5 625 -38 253 -120 519 -237 766 l-51 106 40 80 c352 700 359 1470 21 2182 -746 1568 -3081 2705 -5959 2901 -426 29 -1000 37 -1380 19z m1270 -814 c712 -48 1334 -142 1957 -295 1664 -409 2909 -1182 3362 -2088 142 -282 196 -509 194 -807 -1 -152 -5 -198 -26 -298 -14 -66 -28 -121 -31 -124 -3 -3 -41 27 -84 68 -203 193 -371 332 -575 478 -1104 783 -2693 1298 -4462 1446 -665 55 -1366 58 -1960 9 -2334 -192 -4351 -1130 -5494 -2554 -64 -80 -127 -158 -139 -175 l-23 -30 5 145 c17 432 149 907 368 1320 334 632 879 1206 1588 1675 1106 731 2516 1162 4070 1245 234 12 984 4 1250 -15z m-35 -2395 c1992 -129 3677 -689 4686 -1557 105 -91 338 -325 377 -380 l21 -30 -103 -114 c-436 -481 -1171 -935 -2041 -1259 -1051 -392 -2267 -611 -3535 -636 -317 -6 -378 -14 -455 -60 -64 -37 -140 -125 -166 -192 -33 -82 -33 -223 0 -307 33 -83 133 -182 216 -216 59 -24 64 -24 370 -23 832 4 1727 105 2550 290 1448 324 2677 915 3455 1661 61 58 112 104 114 102 2 -2 14 -48 25 -102 82 -381 32 -764 -149 -1133 -289 -587 -893 -1115 -1764 -1540 -995 -485 -2198 -773 -3621 -866 -254 -16 -1081 -17 -1295 0 -833 64 -1513 196 -2222 432 -1280 426 -2351 1137 -3001 1993 -155 203 -313 461 -409 666 l-49 104 70 144 c676 1387 2321 2461 4388 2867 464 91 869 138 1453 170 124 7 926 -3 1085 -14z"
       id="path1" />
    <path
       d="M8613 11376 c-219 -53 -383 -261 -383 -486 0 -270 230 -500 500 -500 270 0 500 230 500 500 0 274 -233 503 -508 499 -31 0 -80 -6 -109 -13z"
       id="path2" />
    <path
       d="M10413 11376 c-219 -53 -383 -261 -383 -486 0 -270 230 -500 500 -500 270 0 500 230 500 500 0 274 -233 503 -508 499 -31 0 -80 -6 -109 -13z"
       id="path3" />
  </g>
</svg>
