<?xml version="1.0" encoding="UTF-8" standalone="no"?>
<svg
   width="298"
   height="76"
   viewBox="0 0 298 76"
   fill="none"
   version="1.1"
   id="svg11"
   sodipodi:docname="pontotel.svg"
   inkscape:version="1.4.2 (ebf0e940d0, 2025-05-08)"
   xmlns:inkscape="http://www.inkscape.org/namespaces/inkscape"
   xmlns:sodipodi="http://sodipodi.sourceforge.net/DTD/sodipodi-0.dtd"
   xmlns="http://www.w3.org/2000/svg"
   xmlns:svg="http://www.w3.org/2000/svg">
  <sodipodi:namedview
     id="namedview11"
     pagecolor="#ffffff"
     bordercolor="#666666"
     borderopacity="1.0"
     inkscape:showpageshadow="2"
     inkscape:pageopacity="0.0"
     inkscape:pagecheckerboard="0"
     inkscape:deskcolor="#d1d1d1"
     inkscape:zoom="4.3926174"
     inkscape:cx="60.55615"
     inkscape:cy="38.018335"
     inkscape:window-width="1415"
     inkscape:window-height="869"
     inkscape:window-x="0"
     inkscape:window-y="0"
     inkscape:window-maximized="1"
     inkscape:current-layer="svg11" />
  <path
     d="m 94.6779,35.7884 v 8.454 H 86.0213 V 13.7639 h 13.4092 c 7.2725,0 11.7435,4.2681 11.7435,10.9711 0,6.703 -4.471,11.0534 -11.7024,11.0534 z m 0,-15.1569 v 8.2893 h 3.5747 c 3.0494,0 4.3474,-1.9504 4.3474,-4.1858 0,-2.2354 -1.26,-4.1035 -4.3062,-4.1035 z"
     fill="#000000"
     id="path1" />
  <path
     d="M 149.258,44.2424 V 13.7639 h 9.996 l 8.21,17.272 h 1.504 v -17.272 h 7.963 V 44.2424 H 166.65 l -7.925,-17.272 h -1.504 v 17.272 h -7.966 z"
     fill="#000000"
     id="path2" />
  <path
     d="M 185.262,44.2424 V 20.7138 h -5.405 v -6.9499 h 19.425 v 6.9499 h -5.364 v 23.5286 z"
     fill="#000000"
     id="path3" />
  <path
     d="M 239.364,44.2424 V 20.7138 h -5.405 v -6.9499 h 19.425 v 6.9499 h -5.364 v 23.5286 z"
     fill="#000000"
     id="path4" />
  <path
     d="M 276.264,44.2424 H 256.351 V 13.7639 h 19.628 v 6.9499 h -10.972 v 4.7558 h 10.484 v 6.0159 h -10.484 v 5.8101 h 11.257 v 6.95 z"
     fill="#000000"
     id="path5" />
  <path
     d="M 298,44.2424 H 279.594 V 13.7639 h 8.657 V 37.2924 H 298 Z"
     fill="#000000"
     id="path6" />
  <path
     d="m 130.178,13.1938 c -9.508,0 -16.297,6.7062 -16.297,15.7269 0,9.0207 6.786,15.8884 16.297,15.8884 9.512,0 16.376,-6.8265 16.376,-15.8884 0,-9.0619 -6.785,-15.7269 -16.376,-15.7269 z m 0.022,23.2215 c -4.458,0 -7.643,-3.2011 -7.643,-7.4534 0,-4.2523 3.182,-7.3743 7.643,-7.3743 4.462,0 7.682,3.1441 7.682,7.3743 0,4.2301 -3.182,7.4534 -7.682,7.4534 z"
     fill="#000000"
     id="path7" />
  <path
     d="m 216.605,13.1938 c -9.509,0 -16.297,6.7062 -16.297,15.7269 0,9.0207 6.785,15.8884 16.297,15.8884 9.511,0 16.376,-6.8265 16.376,-15.8884 0,-9.0619 -6.786,-15.7269 -16.376,-15.7269 z m 0.022,23.2215 c -4.458,0 -7.644,-3.2011 -7.644,-7.4534 0,-4.2523 3.183,-7.3743 7.644,-7.3743 4.461,0 7.681,3.1441 7.681,7.3743 0,4.2301 -3.182,7.4534 -7.681,7.4534 z"
     fill="#000000"
     id="path8" />
  <g
     id="g11"
     inkscape:export-filename="pontotel.png"
     inkscape:export-xdpi="874.89722"
     inkscape:export-ydpi="874.89722">
    <path
       d="M 33.7905,-6.10352e-5 H 18.4182 V 12.817 h 16.1733 c 12.4245,0 17.9591,8.169 17.9591,16.3411 0,8.1722 -5.5346,16.3412 -17.9591,16.3412 H 18.4182 v 12.817 h 15.3723 c 22.1702,0 32.0458,-14.5775 32.0458,-29.1582 0,-14.5806 -9.8756,-29.1581610352 -32.0458,-29.1581610352 z"
       fill="#fccc31"
       id="path9" />
    <path
       d="M 18.4182,12.817 H 0 v 17.4747 h 18.4182 z"
       fill="#fccc31"
       id="path10" />
    <path
       d="M 18.4182,58.3131 H 0 v 17.4747 h 18.4182 z"
       fill="#fccc31"
       id="path11" />
  </g>
  <defs
     id="defs11" />
</svg>
