<?xml version="1.0" encoding="UTF-8" standalone="no"?>
<svg
   viewBox="0 0 305.31857 104.94"
   fill="none"
   width="523.83087"
   height="179.89714"
   version="1.1"
   id="svg19"
   sodipodi:docname="CuriosityStreamBlack.svg"
   inkscape:version="1.4.2 (ebf0e940d0, 2025-05-08)"
   inkscape:export-filename="CuriosityStream.png"
   inkscape:export-xdpi="96"
   inkscape:export-ydpi="96"
   xmlns:inkscape="http://www.inkscape.org/namespaces/inkscape"
   xmlns:sodipodi="http://sodipodi.sourceforge.net/DTD/sodipodi-0.dtd"
   xmlns="http://www.w3.org/2000/svg"
   xmlns:svg="http://www.w3.org/2000/svg"
   xmlns:rdf="http://www.w3.org/1999/02/22-rdf-syntax-ns#"
   xmlns:cc="http://creativecommons.org/ns#"
   xmlns:dc="http://purl.org/dc/elements/1.1/">
  <metadata
     id="metadata23">
    <rdf:RDF>
      <cc:Work
         rdf:about="">
        <dc:format>image/svg+xml</dc:format>
        <dc:type
           rdf:resource="http://purl.org/dc/dcmitype/StillImage" />
        <dc:title />
      </cc:Work>
    </rdf:RDF>
  </metadata>
  <sodipodi:namedview
     pagecolor="#ffffff"
     bordercolor="#666666"
     borderopacity="1"
     objecttolerance="10"
     gridtolerance="10"
     guidetolerance="10"
     inkscape:pageopacity="0"
     inkscape:pageshadow="2"
     inkscape:window-width="1415"
     inkscape:window-height="869"
     id="namedview21"
     showgrid="false"
     inkscape:zoom="2"
     inkscape:cx="126.5"
     inkscape:cy="-11.5"
     inkscape:window-x="0"
     inkscape:window-y="0"
     inkscape:window-maximized="1"
     inkscape:current-layer="svg19"
     inkscape:document-rotation="0"
     inkscape:showpageshadow="2"
     inkscape:pagecheckerboard="0"
     inkscape:deskcolor="#d1d1d1" />
  <path
     fill-rule="evenodd"
     clip-rule="evenodd"
     d="M 292.97433,57.879 V 18.687 h 12.552 v 39.192 c 0,7.524 -4.878,15.126 -12.552,17.595 v 10.557 h -12.555 V 75.48 a 18.753,18.753 0 0 1 -12.42,-17.601 V 18.687 h 12.42 v 39.192 c 0,3.186 2.898,6.171 6.345,6.171 3.45,0 6.21,-2.985 6.21,-6.174 z m -6.186,47.061 c -3.663,0 -6.633,-3.075 -6.633,-6.873 0,-3.801 2.97,-6.873 6.63,-6.873 3.666,0 6.633,3.072 6.633,6.87 0,3.801 -2.97,6.873 -6.63,6.873 z"
     fill="url(&quot;#logo_svg__paint0_linear&quot;)"
     id="path2"
     style="fill:url(#logo_svg__paint0_linear);stroke-width:3" />
  <path
     fill-rule="evenodd"
     clip-rule="evenodd"
     d="M 18.693333,75.117 C 8.3583333,75.117 -0.04166667,66.756 -0.04166667,56.478 V 19.05 c 0,-10.275 8.40299997,-18.78 18.73499967,-18.78 10.326,0 18.726,8.505 18.726,18.78 h -12.531 c 0,-3.429 -2.754,-6.3 -6.198,-6.3 -3.444,0 -6.336,2.871 -6.336,6.3 v 37.428 c 0,3.426 2.892,6.162 6.336,6.162 a 6.15,6.15 0 0 0 6.198,-6.162 h 12.528 c 0,10.278 -8.4,18.639 -18.726,18.639 z m 43.11,0.246 c -10.467,0 -18.87,-7.551 -18.87,-16.971 V 19.008 h 12.54 v 39.384 c 0,3.099 2.748,5.706 6.33,5.706 3.441,0 6.198,-2.607 6.198,-5.706 V 19.008 h 12.531 v 39.384 c 0,9.42 -8.4,16.971 -18.729,16.971 z m 53.849997,-0.456 h 12.399 V 19.053 h -12.399 V 74.91 Z M 98.364333,22.518 V 19.05 h -12.39 v 55.86 h 12.39 l -0.06,-36.498 c -0.021,-7.686 12.659997,-8.268 12.659997,-8.268 V 18.969 c 0,0 -8.973,0.858 -12.599997,3.549 z m 54.476997,7.698 c -3.438,0 -6.198,2.49 -6.198,5.586 v 22.563 c 0,3.105 2.76,5.718 6.198,5.718 3.447,0 6.192,-2.613 6.192,-5.718 v -22.56 c 0,-3.099 -2.745,-5.589 -6.192,-5.589 z m 0,45.147 c -10.326,0 -18.726,-7.56 -18.726,-16.998 v -22.56 c 0,-9.303 8.4,-16.869 18.726,-16.869 10.332,0 18.735,7.566 18.735,16.866 v 22.563 c 0,9.438 -8.403,16.998 -18.735,16.998 z m 43.107,-33.732 c 10.332,0 18.732,7.566 18.732,16.869 0,9.42 -8.4,16.992 -18.732,16.992 -10.47,0 -18.867,-7.572 -18.867,-16.992 h 12.537 c 0,3.228 2.754,5.7 6.33,5.7 3.45,0 6.195,-2.472 6.195,-5.7 0,-3.099 -2.748,-5.58 -6.33,-5.58 -10.332,0 -18.732,-7.572 -18.732,-16.869 0,-9.426 8.4,-16.992 18.867,-16.992 10.332,0 18.732,7.566 18.732,16.992 h -12.537 c 0,-3.225 -2.748,-5.7 -6.195,-5.7 -3.576,0 -6.33,2.475 -6.33,5.7 0,3.099 2.754,5.58 6.33,5.58 z m 23.553,33.276 h 12.402 V 18.999 h -12.402 V 74.91 Z m 37.053,-12.507 h 6.204 v 12.501 h -6.201 c -10.332,0 -18.726,-8.385 -18.726,-18.696 V 0 h 12.396 v 18.999 l 12.531,0.018 v 12.177 h -12.531 v 25.011 c 0,3.441 2.895,6.192 6.33,6.192 z M 0.91533333,100.551 H 3.1263333 c 0.156,1.212 0.657,2.223 2.748,2.223 1.365,0 2.331,-0.741 2.331,-1.854 0,-1.11 -0.57,-1.533 -2.574,-1.854 -2.955,-0.387 -4.353,-1.263 -4.353,-3.522 0,-1.974 1.728,-3.456 4.302,-3.456 2.661,0 4.248,1.179 4.4909997,3.489 H 7.9653333 c -0.225,-1.263 -0.969,-1.803 -2.385,-1.803 -1.401,0 -2.127,0.657 -2.127,1.584 0,0.978 0.417,1.467 2.559,1.77 2.901,0.39 4.4039997,1.197 4.4039997,3.609 0,2.088 -1.8149997,3.723 -4.5419997,3.723 -3.369,0 -4.788,-1.635 -4.95899997,-3.909 z M 25.728333,94.011 h -3.444 v -1.77 h 9.192 v 1.77 h -3.435 v 10.281 h -2.313 V 94.008 Z m 22.701,3.807 c 1.539,0 2.352,-0.639 2.352,-1.92 v -0.069 c 0,-1.38 -0.882,-1.854 -2.352,-1.854 h -1.848 v 3.843 z m -4.146,-5.58 h 4.146 c 2.712,0 4.614,1.08 4.614,3.54 v 0.069 c 0,1.89 -1.209,2.85 -2.748,3.237 l 3.474,5.208 h -2.49 l -3.228,-4.872 h -1.47 v 4.872 h -2.298 V 92.241 Z m 22.272,0.003 h 7.722 v 1.77 h -5.424 v 3.3 h 4.353 V 99 h -4.353 v 3.522 h 5.718 v 1.77 h -8.016 z m 23.757,7.431 h 3.645 l -1.812,-5.595 -1.83,5.595 z m 0.468,-7.431 h 3.006 l 4.077,12.051 h -2.385 l -0.984,-2.982 h -4.716 l -0.969,2.982 h -2.16 z m 19.922997,0 h 3.075 l 3.246,8.226 3.18,-8.226 h 3.042 v 12.051 h -2.298 V 95.19 l -3.681,9.102 h -0.744 l -3.75,-9.102 v 9.102 h -2.07 z"
     fill="#080808"
     id="path4"
     style="stroke-width:3" />
  <defs
     id="defs17">
    <linearGradient
       id="logo_svg__paint0_linear"
       x1="85.306999"
       y1="15.516"
       x2="104.187"
       y2="28.231001"
       gradientUnits="userSpaceOnUse"
       gradientTransform="matrix(3,0,0,3,-0.04166667,0)">
      <stop
         stop-color="#ECC334"
         id="stop6" />
      <stop
         offset="1"
         stop-color="#EB8B4C"
         id="stop8" />
    </linearGradient>
    <linearGradient
       id="linearGradient15"
       x1="85.306999"
       y1="15.516"
       x2="104.187"
       y2="28.231001"
       gradientUnits="userSpaceOnUse">
      <stop
         stop-color="#ECC334"
         id="stop11" />
      <stop
         offset="1"
         stop-color="#EB8B4C"
         id="stop13" />
    </linearGradient>
  </defs>
</svg>
